<?xml version="1.0" standalone="no"?>
<!DOCTYPE svg PUBLIC "-//W3C//DTD SVG 1.1//EN" "http://www.w3.org/Graphics/SVG/1.1/DTD/svg11.dtd">
<svg xmlns="http://www.w3.org/2000/svg"><metadata>This SVG WebFont was generated by YouWorkForThem.
Copyright Â© 2019 by Enrique Hernandez Vasquez. All rights reserved.</metadata><defs><font horiz-adv-x="0" id="ywftsvg"><font-face ascent="1638" bbox="-1354 -412 2636 1767" cap-height="1331" descent="-410" font-family="" font-stretch="normal" font-weight="280" panose-1="0 0 3 0 0 0 0 0 0 0" underline-position="0" underline-thickness="0" unicode-range="U+0020-FB02" units-per-em="2048" x-height="1028"/><missing-glyph d="M102 1495h881v-1495h-881v1495zM236 1423l307 -587l307 587h-614zM498 748l-314 598v-1196zM590 748l311 -598v1196zM543 659l-307 -587h614z" horiz-adv-x="1085"/><glyph d="M813 1028q29 0 29 -31v-966q0 -31 -29 -31h-16q-29 0 -29 31v932h-469v-932q0 -31 -29 -31h-16q-29 0 -29 31v932h-151q-29 0 -29 28v8q0 29 29 29h151v74q0 178 85 266t218 88q78 0 138 -33q29 -16 16 -41l-6 -10q-12 -23 -43 -10q-55 29 -105 29q-106 0 -167.5 -72 t-61.5 -217v-74h514zM805 1423q33 0 56.5 -23.5t23.5 -56t-23.5 -56t-56.5 -23.5q-35 0 -58.5 23.5t-23.5 56t23.5 56t58.5 23.5z" glyph-name="uniFB01" horiz-adv-x="1021" unicode="fi"/><glyph d="M1008 47q14 -25 -7 -41q-37 -31 -96 -31q-57 0 -90 37t-33 105v1145q-41 61 -107.5 95t-133.5 34q-109 0 -175.5 -79t-66.5 -208v-76h307q29 0 29 -29v-8q0 -29 -29 -28h-307v-932q0 -31 -29 -31h-16q-29 0 -29 31v932h-151q-29 0 -29 28v8q0 29 29 29h151v74 q0 160 86 257t226 97q154 0 245 -96v67q0 18 21 23l26 6q25 8 25 -22v-1319q0 -76 59 -76q18 0 52 18q23 16 41 -6z" glyph-name="uniFB02" horiz-adv-x="1056" unicode="fl"/><glyph d="M102 1495h881v-1495h-881v1495zM236 1423l307 -587l307 587h-614zM498 748l-314 598v-1196zM590 748l311 -598v1196zM543 659l-307 -587h614z" glyph-name=".notdef" horiz-adv-x="1085"/><glyph glyph-name="glyph1"/><glyph glyph-name="glyph2" horiz-adv-x="681"/><glyph glyph-name="space" horiz-adv-x="534" unicode=" "/><glyph d="M246 1331q35 0 35 -37l-13 -1024q0 -31 -28 -30h-7q-29 0 -28 30l-15 1024q0 37 37 37h19zM236 137q35 0 58 -23.5t23 -58.5q0 -33 -24.5 -56.5t-57 -23.5t-56 24t-23.5 56.5t23.5 57t56.5 24.5z" glyph-name="exclam" horiz-adv-x="473" unicode="!"/><glyph d="M176 866q-25 0 -24 27l-17 403q0 35 33 35h16q35 0 35 -35l-16 -403q0 -27 -23 -27h-4zM395 866q-23 0 -22 27l-17 403q-2 35 31 35h16q35 0 35 -35l-14 -403q0 -27 -25 -27h-4z" glyph-name="quotedbl" horiz-adv-x="573" unicode="&quot;"/><glyph d="M266 0q-29 0 -24 33l51 375h-195q-35 0 -26 26l2 10q8 27 35 27h194l53 389h-204q-35 0 -29 29l4 10q8 27 35 27h205l53 377q4 29 33 28h8q31 0 26 -33l-53 -372h324l51 377q4 29 33 28h10q29 0 25 -33l-52 -372h201q35 0 29 -29l-4 -10q-8 -27 -35 -27h-201l-53 -389 h213q35 0 26 -29l-2 -8q-8 -27 -34 -26h-213l-54 -379q-4 -29 -32 -29h-9q-31 0 -26 33l53 375h-324l-51 -379q-4 -29 -33 -29h-10zM371 471h323l54 389h-324z" glyph-name="numbersign" horiz-adv-x="1126" unicode="#"/><glyph d="M842 395q0 -129 -93.5 -214t-240.5 -93v-104q0 -31 -29 -31h-12q-29 0 -29 31v106q-109 10 -205 60.5t-153 134.5q-18 25 0 39l16 10q18 14 37 -8q55 -80 148.5 -127t193.5 -47q133 0 214 66.5t81 170.5q0 33 -9 61.5t-21.5 49t-37 41t-43 34t-55.5 30t-58.5 24.5 t-64.5 24.5t-63 24.5q-131 53 -208 120.5t-77 184.5t84 194.5t221 86.5v106q0 31 29 31h12q29 0 29 -31v-106q182 -10 287 -138q18 -23 -2 -39l-9 -8q-20 -20 -41 2q-109 123 -270 123q-121 0 -195.5 -61.5t-74.5 -157.5q0 -86 62.5 -141.5t183.5 -104.5l68 -25.5 t71.5 -27.5t63.5 -28.5t62.5 -36t49.5 -41t44 -51t23.5 -60.5t10.5 -74z" glyph-name="dollar" horiz-adv-x="929" unicode="$"/><glyph d="M369 588q-121 0 -199 106.5t-78 276.5q0 174 78 279.5t199 105.5q123 0 199.5 -105.5t76.5 -279.5q0 -172 -76.5 -277.5t-199.5 -105.5zM240 0q-14 0 -19.5 8t2.5 21l983 1274q23 29 45 28h17q14 0 20 -8t-2 -20l-985 -1274q-23 -29 -45 -29h-16zM368.5 653 q94.5 0 152 87t57.5 230.5t-57.5 231.5t-152 88t-150.5 -88t-56 -231.5t56 -230.5t150.5 -87zM1143 -25q-121 0 -199 105.5t-78 277.5t78 278.5t199 106.5t198.5 -106.5t77.5 -278.5t-77.5 -277.5t-198.5 -105.5zM1143 41q94 0 151.5 87t57.5 230.5t-57.5 231.5t-151.5 88 t-151.5 -88t-57.5 -231.5t57.5 -230.5t151.5 -87z" glyph-name="percent" horiz-adv-x="1509" unicode="%"/><glyph d="M1264 31q10 -25 -17 -39q-41 -18 -82 -19q-98 0 -198 117q-150 -117 -351 -117q-219 0 -371.5 136.5t-152.5 328.5q0 135 72 240.5t194 167.5q-74 102 -73 213q0 131 93 214t238 83q184 0 310 -152q20 -23 -2 -41l-13 -8q-25 -18 -43 6q-106 127 -254 125 q-113 -2 -183.5 -64.5t-70.5 -160.5q0 -113 125 -264l490 -598q94 111 94 247q0 143 -94 244q-20 20 2 41l12 12q20 18 45 -6q113 -123 113 -293q0 -174 -125 -305q82 -100 147 -100q27 0 52 12q27 12 39 -12zM168 446q0 -166 132 -284.5t321 -118.5q174 0 301 104l-525 646 q-102 -51 -165.5 -142.5t-63.5 -204.5z" glyph-name="ampersand" horiz-adv-x="1282" unicode="&amp;"/><glyph d="M176 866q-25 0 -24 27l-17 403q0 35 33 35h16q35 0 35 -35l-16 -403q0 -27 -23 -27h-4z" glyph-name="quotesingle" horiz-adv-x="354" unicode="'"/><glyph d="M424 -238q-23 0 -43 31q-279 391 -279 844q0 457 281 846q25 31 45 30h25q14 0 19 -9t-5 -25q-287 -375 -287 -842q0 -469 285 -840q10 -14 5 -24.5t-21 -10.5h-25z" glyph-name="parenleft" horiz-adv-x="520" unicode="("/><glyph d="M96 -238h-24q-16 0 -21.5 10.5t4.5 24.5q285 371 285 840q0 467 -287 842q-10 16 -5 25t20 9h24q20 0 45 -30q281 -389 281 -846q0 -453 -279 -844q-20 -31 -43 -31z" glyph-name="parenright" horiz-adv-x="520" unicode=")"/><glyph d="M770 856q23 -12 12 -35l-4 -4q-14 -29 -37 -12l-254 147l5 -293q0 -27 -29 -26h-8q-27 0 -27 26l2 295l-252 -149q-23 -14 -37 10l-4 6q-12 25 10 37l259 143l-259 146q-23 12 -8 37l2 8q16 18 37 10l252 -151l-2 295q0 27 27 26h8q29 0 29 -26l-5 -297l254 151 q23 12 37 -8l2 -6q14 -27 -8 -39l-258 -143z" glyph-name="asterisk" horiz-adv-x="917" unicode="*"/><glyph d="M981 647q29 0 29 -29v-8q0 -27 -29 -26h-408v-391q0 -31 -26 -31h-15q-29 0 -28 31v391h-410q-31 0 -31 26v8q0 29 31 29h410v387q0 31 28 31h15q27 0 26 -31v-387h408z" glyph-name="plus" horiz-adv-x="1075" unicode="+"/><glyph d="M190.5 137q34.5 0 59 -25.5t24.5 -64.5q0 -121 -153 -303q-18 -27 -37 -14l-8 6q-14 12 6 37q102 139 104 202q-33 2 -55 25t-22 55q0 35 23.5 58.5t58 23.5z" glyph-name="comma" horiz-adv-x="376" unicode=","/><glyph d="M174 584q-31 0 -31 26v6q0 29 31 29h629q31 0 31 -29v-6q0 -27 -31 -26h-629z" glyph-name="hyphen" horiz-adv-x="976" unicode="-"/><glyph d="M205 -25q-33 0 -56.5 24t-23.5 56.5t23.5 57t56.5 24.5t57.5 -23.5t24.5 -58.5q0 -33 -24.5 -56.5t-57.5 -23.5z" glyph-name="period" horiz-adv-x="411" unicode="."/><glyph d="M74 -109q-33 0 -17 29l795 1493q16 29 41 29h14q14 0 20.5 -7.5t0.5 -21.5l-797 -1493q-16 -29 -41 -29h-16z" glyph-name="slash" horiz-adv-x="983" unicode="/"/><glyph d="M1087 665.5q0 -309.5 -133 -500t-352 -190.5q-217 0 -351 190.5t-134 500t134 500t351 190.5q219 0 352 -190.5t133 -500zM193 665.5q0 -278.5 112.5 -449.5t296.5 -171t297 171t113 449.5t-113 449.5t-297 171t-296.5 -171t-112.5 -449.5z" glyph-name="zero" horiz-adv-x="1204" unicode="0"/><glyph d="M315 1331q31 0 31 -28v-1272q0 -31 -31 -31h-14q-29 0 -29 31v1231h-188q-35 0 -25 28l7 13q12 29 34 28h215z" glyph-name="one" horiz-adv-x="555" unicode="1"/><glyph d="M879 66q31 0 30 -29v-8q0 -29 -30 -29h-773q-31 0 -30 29v10q0 18 18 37q297 295 457 469q123 135 178 240.5t55 209.5q0 133 -87 212t-220 79q-184 0 -317 -147q-27 -31 -51 -6l-5 6q-27 25 5 51q152 166 368 166q168 0 276.5 -97.5t108.5 -263.5q0 -113 -60.5 -227.5 t-187.5 -259.5q-125 -137 -432 -442h697z" glyph-name="two" horiz-adv-x="995" unicode="2"/><glyph d="M643 727q129 -37 205 -132t76 -233q0 -172 -121 -279.5t-309 -107.5q-254 0 -412 172q-23 31 -4 50l8 6q23 23 47 -4q137 -154 361 -154q154 0 254 88t100 232q0 152 -109.5 238.5t-277.5 86.5h-45q-31 0 -31 29v4q0 29 31 29h53q129 0 226.5 79.5t97.5 200.5 q0 111 -84 182.5t-213 71.5q-172 0 -299 -131q-27 -27 -52 -6l-4 6q-25 25 4 49q156 152 355 152q160 0 264 -89t104 -233q0 -106 -62.5 -187t-162.5 -120z" glyph-name="three" horiz-adv-x="1032" unicode="3"/><glyph d="M961 424q31 0 30 -29v-10q0 -29 -30 -29h-138v-325q0 -31 -30 -31h-15q-29 0 -28 31v325h-682q-31 0 -31 29v12q0 16 20 43l709 865q18 27 35 26h4q18 0 18 -20v-887h138zM131 424h621v760z" glyph-name="four" horiz-adv-x="1067" unicode="4"/><glyph d="M547 860q205 0 325.5 -124t120.5 -312q0 -195 -135 -322t-340 -127q-252 0 -409 172q-27 27 -5 48l9 6q23 23 47 -4q133 -152 354 -152q174 0 287.5 106.5t113.5 274.5q0 158 -102 261.5t-272 103.5q-104 0 -191.5 -39t-138.5 -99q-25 -29 -51 -14l-8 4q-27 12 -19 49 l94 611q4 29 31 28h592q31 0 31 -28v-13q0 -29 -31 -28h-557l-80 -514q150 112 334 112z" glyph-name="five" horiz-adv-x="1075" unicode="5"/><glyph d="M565 -25q-203 0 -332 124t-131 325q0 383 494 919q25 33 53 9l6 -6q25 -20 -2 -48q-270 -291 -428 -616h2q49 86 147.5 130t207.5 44q195 0 321.5 -124t126.5 -316.5t-131 -316.5t-334 -124zM565 45q168 0 278.5 105.5t110.5 265.5q0 162 -108.5 266t-276.5 104 t-279.5 -105.5t-111.5 -265t109.5 -265t277.5 -105.5z" glyph-name="six" horiz-adv-x="1097" unicode="6"/><glyph d="M831 1331q31 0 31 -24v-9q0 -12 -8 -34l-557 -1235q-12 -29 -37 -29h-18q-12 0 -19.5 10t-1.5 25l551 1227h-715q-31 0 -30 28v13q0 29 30 28h774z" glyph-name="seven" horiz-adv-x="899" unicode="7"/><glyph d="M727 754q137 -37 220 -139.5t83 -235.5q0 -174 -132 -289t-331 -115q-201 0 -333 115t-132 289q0 133 84 234.5t220 140.5q-92 35 -148.5 109.5t-56.5 170.5q0 139 104.5 230.5t262 91.5t261 -92.5t103.5 -229.5q0 -96 -54.5 -170.5t-150.5 -109.5zM279 1034.5 q0 -108.5 81.5 -180.5t206.5 -72q123 0 205 72t82 180.5t-82 180t-205 71.5q-125 0 -206.5 -71.5t-81.5 -180zM567 45q166 0 276.5 96.5t110.5 239.5t-110.5 239.5t-276.5 96.5t-277.5 -96.5t-111.5 -239.5t111.5 -239.5t277.5 -96.5z" glyph-name="eight" horiz-adv-x="1132" unicode="8"/><glyph d="M453 -20l-7 6q-25 20 5 49q291 305 430 608h-2q-49 -86 -146.5 -131t-200.5 -45q-199 0 -331.5 126t-132.5 318q0 195 132 320t337 125q242 0 374 -166q88 -115 93 -277q0 -395 -496 -925q-28 -33 -55 -8zM537 537q166 0 277.5 109.5t111.5 271.5q0 160 -110.5 264 t-278.5 104q-170 0 -281 -105.5t-111 -267.5q0 -164 111 -270t281 -106z" glyph-name="nine" horiz-adv-x="1105" unicode="9"/><glyph d="M225.5 868q-32.5 0 -57.5 25t-25 57.5t25 56t57.5 23.5t56 -23.5t23.5 -56t-23.5 -57.5t-56 -25zM225 -27q-35 0 -58.5 23.5t-23.5 56.5t25 57.5t57.5 24.5t56 -24.5t23.5 -57.5t-23.5 -56.5t-56.5 -23.5z" glyph-name="colon" horiz-adv-x="448" unicode=":"/><glyph d="M270.5 868q-32.5 0 -57.5 25t-25 57.5t25 57t57.5 24.5t57 -24.5t24.5 -57t-24.5 -57.5t-57 -25zM270 137q35 0 59.5 -25.5t24.5 -64.5q0 -121 -153 -303q-20 -27 -37 -14l-8 6q-14 12 6 37q102 139 104 202q-33 2 -55.5 25t-22.5 55q0 35 24.5 58.5t57.5 23.5z" glyph-name="semicolon" horiz-adv-x="520" unicode=";"/><glyph d="M829 1081q0 -25 -24 -39l-649 -383l649 -383q25 -14 24 -38v-13q0 -14 -10 -21t-28 3l-695 407q-33 23 -33 41v9q0 20 33 41l695 407q18 10 28 3t10 -21v-13z" glyph-name="less" horiz-adv-x="948" unicode="&lt;"/><glyph d="M180 788q-31 0 -30 27v8q0 29 30 29h881q31 0 31 -29v-8q0 -27 -31 -27h-881zM180 377q-31 0 -30 29v6q0 29 30 28h881q31 0 31 -28v-6q0 -29 -31 -29h-881z" glyph-name="equal" horiz-adv-x="1241" unicode="="/><glyph d="M852 705q33 -20 33 -41v-9q0 -18 -33 -41l-694 -407q-18 -10 -28.5 -3t-10.5 21v13q0 25 24 38l650 383l-650 383q-25 14 -24 39v13q0 14 10 21t29 -3z" glyph-name="greater" horiz-adv-x="948" unicode=">"/><glyph d="M471 1356q188 0 304 -98.5t116 -260.5q0 -37 -6 -70.5t-23.5 -66.5t-30 -55.5t-42 -54t-43 -45t-50.5 -48t-45 -43.5q-49 -49 -68.5 -73.5t-38 -72.5t-18.5 -114v-80q0 -31 -28 -30h-15q-29 0 -28 30v76q0 111 33.5 172.5t109.5 134.5q12 12 49 48t51.5 51.5t42 49.5 t40 58.5t22.5 60.5t10 72q0 129 -94 209t-248 80q-113 0 -207 -73.5t-133 -192.5q-8 -27 -37 -21l-16 7q-25 6 -15 36q39 139 152 226.5t256 87.5zM489 137q35 0 58.5 -23.5t23.5 -58.5q0 -33 -24.5 -56.5t-57 -23.5t-56 24t-23.5 56.5t23 57t56 24.5z" glyph-name="question" horiz-adv-x="983" unicode="?"/><glyph d="M1298 -119q-166 -129 -424 -129q-328 0 -549 216t-221 544q0 330 219.5 545t555.5 215q332 0 549 -211t217 -533q0 -190 -78 -296.5t-211 -106.5q-90 0 -144.5 52t-60.5 149q-41 -88 -123 -139.5t-190 -51.5q-162 0 -262.5 106.5t-100.5 266.5t100.5 266.5t264.5 106.5 q215 0 305 -187v160q0 25 24 25h13q23 0 22 -25v-473q0 -195 150 -195q104 0 161.5 91.5t57.5 250.5q0 297 -195.5 488.5t-494.5 191.5q-307 0 -507 -195.5t-200 -498.5t196.5 -500.5t501.5 -197.5q215 0 386 118q29 23 45 -6l4 -4q16 -27 -11 -43zM840 193q131 0 216 89 t85 226t-84 225t-213 88q-133 0 -217 -91t-84 -224q0 -131 83 -222t214 -91z" glyph-name="at" horiz-adv-x="1757" unicode="@"/><glyph d="M1421 47q14 -23 -10 -41q-37 -31 -90 -31q-51 0 -90 31q-37 29 -74 111l-94 215h-791l-133 -303q-14 -29 -35 -29h-22q-16 0 -21.5 9t2.5 24l572 1286q10 23 31 22h6q23 0 33 -22l526 -1186q39 -86 88 -88q31 0 57 18q27 14 39 -6zM303 399h729l-364 830z" glyph-name="A" horiz-adv-x="1419" unicode="A"/><glyph d="M854 694q127 -35 199.5 -123t72.5 -209q0 -164 -116.5 -263t-309.5 -99h-462q-31 0 -31 31v1269q0 31 31 31h430q190 0 299.5 -90t109.5 -246q0 -109 -60.5 -187.5t-162.5 -113.5zM676 1264h-393v-539h411q141 0 224 72.5t83 195.5q0 125 -86.5 198t-238.5 73zM705 68 q160 0 252 79.5t92 217.5q0 133 -97.5 213.5t-255.5 80.5h-413v-591h422z" glyph-name="B" horiz-adv-x="1245" unicode="B"/><glyph d="M801 -25q-299 0 -499 199t-200 491.5t200 491.5t499 199q160 0 298 -63.5t230 -176.5q25 -25 0 -41l-14 -10q-23 -16 -43 8q-84 98 -208 155.5t-265 57.5q-262 0 -441.5 -179t-179.5 -441.5t179.5 -441.5t441.5 -179q141 0 265 57.5t208 155.5q20 25 43 8l14 -10 q25 -16 0 -41q-92 -113 -230 -176.5t-298 -63.5z" glyph-name="C" horiz-adv-x="1417" unicode="C"/><glyph d="M236 0q-29 0 -29 29v1274q0 29 29 28h446q315 0 498.5 -182t183.5 -483t-183.5 -483.5t-498.5 -182.5h-446zM283 68h401q281 0 442.5 162.5t161.5 435t-161.5 435.5t-442.5 163h-401v-1196z" glyph-name="D" horiz-adv-x="1470" unicode="D"/><glyph d="M236 0q-29 0 -29 29v1274q0 29 29 28h788q31 0 31 -28v-11q0 -29 -31 -28h-741v-557h581q31 0 31 -29v-10q0 -29 -31 -29h-581v-571h741q31 0 31 -29v-10q0 -29 -31 -29h-788z" glyph-name="E" horiz-adv-x="1134" unicode="E"/><glyph d="M236 0q-29 0 -29 33v1270q0 29 29 28h753q31 0 31 -28v-11q0 -29 -31 -28h-706v-555h544q31 0 31 -29v-10q0 -29 -31 -29h-544v-608q0 -33 -31 -33h-16z" glyph-name="F" horiz-adv-x="1054" unicode="F"/><glyph d="M780 -25q-287 0 -482.5 199t-195.5 491.5t198 491.5t486 199q160 0 299.5 -62.5t231.5 -175.5q20 -25 -4 -43l-15 -10q-25 -16 -43 8q-82 98 -205.5 155.5t-265.5 57.5q-254 0 -430 -179t-176 -441.5t176 -441.5t428 -179q262 0 441 188q154 164 153 383h-551 q-31 0 -30 29v12q0 27 30 27h598q31 0 31 -29v-20q0 -266 -180 -453q-201 -207 -494 -207z" glyph-name="G" horiz-adv-x="1540" unicode="G"/><glyph d="M236 0q-29 0 -29 33v1265q0 33 29 33h16q31 0 31 -33v-591h872v591q0 33 29 33h16q31 0 31 -33v-1265q0 -33 -31 -33h-16q-29 0 -29 33v606h-872v-606q0 -33 -31 -33h-16z" glyph-name="H" horiz-adv-x="1435" unicode="H"/><glyph d="M236 0q-29 0 -29 33v1265q0 33 29 33h16q31 0 31 -33v-1265q0 -33 -31 -33h-16z" glyph-name="I" horiz-adv-x="487" unicode="I"/><glyph d="M430 -25q-225 0 -362 187q-20 29 0 47l12 8q27 20 47 -8q127 -164 303 -164q133 0 218 85t85 226v908h-399q-33 0 -33 28v11q0 29 33 28h442q33 0 33 -33v-942q0 -174 -107.5 -277.5t-271.5 -103.5z" glyph-name="J" horiz-adv-x="999" unicode="J"/><glyph d="M1243 47q14 -20 -10 -41q-37 -31 -90 -31q-41 0 -80 29q-49 29 -119 113l-463 569l-198 -192v-461q0 -33 -31 -33h-16q-29 0 -29 33v1265q0 33 29 33h16q31 0 31 -33v-718l741 727q25 25 47 24h29q14 0 19 -11t-5 -22l-577 -563l479 -588q82 -98 125 -102q31 0 57 18 q29 16 39 -6z" glyph-name="K" horiz-adv-x="1239" unicode="K"/><glyph d="M236 0q-29 0 -29 31v1267q0 33 29 33h16q31 0 31 -33v-1230h665q31 0 31 -29v-10q0 -29 -31 -29h-712z" glyph-name="L" horiz-adv-x="1021" unicode="L"/><glyph d="M1657 47q14 -23 -8 -41q-39 -31 -93 -31q-70 0 -102.5 53.5t-44.5 159.5l-111 983l-444 -1153q-12 -29 -31 -28h-8q-18 0 -31 28l-446 1149l-127 -1134q-4 -33 -33 -33h-12q-33 0 -27 33l146 1284q6 27 26 26h4q23 0 33 -26l471 -1206l471 1206q10 27 33 26h4 q23 0 25 -26l125 -1092q10 -96 25.5 -136t49.5 -42q31 -6 60 16q27 14 39 -6z" glyph-name="M" horiz-adv-x="1695" unicode="M"/><glyph d="M1198 1331q31 0 31 -33v-1286q0 -25 -27 -24h-4q-14 0 -41 30l-876 1174v-1159q0 -33 -31 -33h-14q-29 0 -29 33v1284q0 25 24 24h5q16 0 40 -28l877 -1174v1159q0 33 31 33h14z" glyph-name="N" horiz-adv-x="1433" unicode="N"/><glyph d="M805 -25q-301 0 -502 199t-201 491.5t201 491.5t502 199q303 0 502.5 -199t199.5 -491.5t-199.5 -491.5t-502.5 -199zM805 45q266 0 446.5 179t180.5 441.5t-180.5 441.5t-446.5 179t-446.5 -179t-180.5 -441.5t180.5 -441.5t446.5 -179z" glyph-name="O" horiz-adv-x="1609" unicode="O"/><glyph d="M236 0q-29 0 -29 33v1270q0 29 29 28h423q201 0 314.5 -104.5t113.5 -282.5t-114.5 -283.5t-313.5 -105.5h-376v-522q0 -33 -31 -33h-16zM283 623h393q154 0 245 87t91 232t-91.5 233.5t-244.5 88.5h-393v-641z" glyph-name="P" horiz-adv-x="1161" unicode="P"/><glyph d="M1450 -221l4 -6q16 -20 -8 -41q-43 -39 -135 -39q-106 0 -232 102q-18 16 -56 49t-60.5 50.5t-52 40t-54.5 31.5t-47 9h-4q-301 0 -502 199t-201 491.5t201 491.5t502 199q303 0 502.5 -199t199.5 -491q0 -256 -154.5 -443.5t-402.5 -234.5q45 -29 160 -123 q127 -104 205 -105q49 0 92 27q27 15 43 -8zM178 665.5q0 -262.5 180.5 -441.5t446.5 -179t446.5 179t180.5 441.5t-180.5 441.5t-446.5 179t-446.5 -179t-180.5 -441.5z" glyph-name="Q" horiz-adv-x="1615" unicode="Q"/><glyph d="M1239 45q12 -20 -10 -39q-37 -31 -92 -31q-76 0 -121 52.5t-94 158.5l-117 260q-43 98 -73 122t-75 24h-374v-559q0 -33 -31 -33h-16q-29 0 -29 33v1270q0 29 29 28h458q199 0 313.5 -99t114.5 -269q0 -147 -89 -244.5t-245 -120.5q10 -2 18.5 -9t14.5 -13.5t13.5 -20.5 t11.5 -22.5t13 -29t13 -28.5l117 -262q37 -84 70 -126t80 -42q29 0 55 18q29 14 39 -8zM283 657h424q154 0 247 85t93 220.5t-93.5 218.5t-246.5 83h-424v-607z" glyph-name="R" horiz-adv-x="1273" unicode="R"/><glyph d="M549 -25q-145 0 -271 57.5t-198 168.5q-20 35 2 51l8 6q27 20 49 -8q59 -96 170 -150.5t234 -54.5q154 0 252 81t98 204q0 51 -19.5 93t-42 68.5t-76 57.5t-82 43t-103 41t-97.5 39q-76 31 -123 56.5t-101 66.5t-81 98t-27 129q0 145 110.5 239.5t289.5 94.5 q233 0 368 -160q27 -35 2 -53l-6 -4q-31 -18 -53 8q-125 139 -311 139q-143 0 -232.5 -73.5t-89.5 -186.5q0 -102 73 -163.5t218 -121.5q25 -10 80 -31.5t82.5 -32.5t75 -35t73 -41t58 -47t49 -59.5t29 -70.5t12.5 -88q0 -160 -118 -260.5t-302 -100.5z" glyph-name="S" horiz-adv-x="1060" unicode="S"/><glyph d="M526 0q-29 0 -28 33v1231h-432q-33 0 -33 28v11q0 29 33 28h944q33 0 32 -28v-11q0 -29 -32 -28h-437v-1231q0 -33 -30 -33h-17z" glyph-name="T" horiz-adv-x="1075" unicode="T"/><glyph d="M723 -25q-242 0 -389.5 149.5t-147.5 395.5v778q0 33 29 33h16q31 0 31 -33v-776q0 -213 127 -345t334 -132t334 132t127 345v776q0 33 30 33h15q31 0 31 -33v-778q0 -246 -147.5 -395.5t-389.5 -149.5z" glyph-name="U" horiz-adv-x="1445" unicode="U"/><glyph d="M1307 1331q14 0 20 -11t0 -22l-555 -1280q-12 -29 -35 -28h-4q-23 0 -35 28l-512 1178q-39 88 -86 90q-31 0 -57 -18q-27 -16 -39 6l-6 10q-14 23 10 39q43 33 92 33q53 0 90 -31q43 -35 74 -111l471 -1095l510 1184q12 29 41 28h21z" glyph-name="V" horiz-adv-x="1388" unicode="V"/><glyph d="M1917 1331q14 0 19.5 -10t0.5 -23l-462 -1280q-10 -29 -33 -28h-4q-25 0 -33 28l-365 1172l-364 -1172q-8 -29 -33 -28h-4q-23 0 -33 28l-428 1180q-35 86 -88 88q-27 0 -55.5 -16.5t-40.5 4.5l-4 10q-14 23 8 41q41 31 92 31q55 0 92 -31q45 -35 72 -111l387 -1077 l367 1176q8 29 30 28h4q23 0 31 -28l369 -1182l420 1172q12 29 41 28h14z" glyph-name="W" horiz-adv-x="2009" unicode="W"/><glyph d="M1290 45q12 -20 -10 -39q-37 -31 -94 -31q-41 0 -76 20.5t-56.5 45.5t-60.5 78l-362 491l-445 -583q-23 -27 -43 -27h-26q-14 0 -19.5 11.5t2.5 21.5l490 637l-352 512q-41 57 -68 80.5t-61 23.5q-27 0 -56 -16q-25 -16 -41 6l-4 10q-12 20 10 39q37 31 95 31 q59 0 100 -34t94 -110l330 -483l428 576q18 27 41 26h27q14 0 21 -11t-3 -22l-471 -626l383 -522q43 -59 68.5 -82t58.5 -23q27 0 55 18q29 14 39 -8z" glyph-name="X" horiz-adv-x="1286" unicode="X"/><glyph d="M1192 1331q14 0 19.5 -11t-1.5 -22l-487 -788v-477q0 -33 -31 -33h-14q-31 0 -31 33v477l-416 672q-57 96 -112 102q-35 6 -64 -16q-29 -16 -41 6l-6 10q-12 20 10 39q39 33 97 33q59 0 102 -37t86 -109l383 -630l442 725q14 27 41 26h23z" glyph-name="Y" horiz-adv-x="1298" unicode="Y"/><glyph d="M1012 66q33 0 32 -27v-10q0 -29 -32 -29h-936q-29 0 -29 23v12q0 12 16 39l840 1192h-780q-33 0 -33 26v11q0 29 33 28h850q29 0 28 -22v-11q0 -14 -16 -41l-838 -1191h865z" glyph-name="Z" horiz-adv-x="1079" unicode="Z"/><glyph d="M227 -238q-29 0 -28 27v1696q0 27 28 26h224q31 0 30 -26v-8q0 -29 -30 -29h-181v-1622h181q31 0 30 -29v-8q0 -27 -30 -27h-224z" glyph-name="bracketleft" horiz-adv-x="524" unicode="["/><glyph d="M893 -109q-25 0 -41 29l-797 1493q-16 29 19 29h16q25 0 41 -29l795 -1493q16 -29 -17 -29h-16z" glyph-name="backslash" horiz-adv-x="983" unicode="\"/><glyph d="M297 -238h-223q-31 0 -31 27v8q0 29 31 29h180v1622h-180q-31 0 -31 29v8q0 27 31 26h223q31 0 31 -26v-1696q0 -27 -31 -27z" glyph-name="bracketright" horiz-adv-x="524" unicode="]"/><glyph d="M1071 590q10 -14 5 -23.5t-17 -9.5h-27q-16 0 -39 31l-415 655l-416 -655q-18 -31 -39 -31h-27q-12 0 -17 9t5 24l453 713q18 29 36 28h9q20 0 39 -28z" glyph-name="asciicircum" horiz-adv-x="1155" unicode="^"/><glyph d="M115 -201q-31 0 -31 29v6q0 29 31 29h805q29 0 28 -29v-6q0 -29 -28 -29h-805z" glyph-name="underscore" horiz-adv-x="1034" unicode="_"/><glyph d="M438 1204q-16 -16 -47 6l-291 207q-33 23 -8 51l8 11q20 25 54 -4l276 -222q29 -25 12 -43z" glyph-name="grave" horiz-adv-x="530" unicode="`"/><glyph d="M1102 47q14 -25 -6 -41q-37 -31 -97 -31q-55 0 -88.5 37t-33.5 105v55q-59 -94 -164 -145.5t-228 -51.5q-174 0 -281.5 89.5t-107.5 232.5q0 147 115 236.5t301 89.5q197 0 365 -95v146q0 135 -91.5 221t-240.5 86q-193 0 -355 -150q-23 -20 -43 5l-4 4q-20 25 7 47 q180 162 397 162q184 0 292.5 -104.5t108.5 -280.5v-549q0 -76 60 -76q18 0 51 18q23 16 41 -6zM489 43q158 0 273 87t115 232v95q-168 100 -363 100q-154 0 -248 -71.5t-94 -190.5q0 -113 87 -182.5t230 -69.5z" glyph-name="a" horiz-adv-x="1122" unicode="a"/><glyph d="M690 1049q225 0 369.5 -154t144.5 -383t-144.5 -383t-369.5 -154q-147 0 -262 72t-178 195v-211q0 -31 -29 -31h-16q-29 0 -29 31v1390q0 20 25 29l20 6q29 10 29 -24v-641q63 119 179 188.5t261 69.5zM686 43q195 0 318.5 134t123.5 335q0 199 -123.5 334t-318.5 135 q-190 0 -317 -131t-125 -338t127 -338t315 -131z" glyph-name="b" horiz-adv-x="1302" unicode="b"/><glyph d="M627 -25q-229 0 -380 154t-151 383t150.5 383t380.5 154q258 0 417 -197q20 -25 3 -43l-7 -6q-23 -23 -45 0q-143 178 -364 178q-201 0 -330 -134t-129 -335t129 -335t330 -134q221 0 364 178q23 23 45 0l7 -6q18 -18 -3 -43q-159 -197 -417 -197z" glyph-name="c" horiz-adv-x="1128" unicode="c"/><glyph d="M1278 47q14 -25 -6 -41q-37 -31 -94.5 -31t-91 37t-33.5 105v121q-63 -121 -178 -192t-265 -71q-223 0 -368.5 155t-145.5 382t145.5 382t368.5 155q145 0 261 -69t182 -187v628q0 20 24 29l19 6q29 8 28 -24v-1317q0 -76 60 -76q18 0 51 18q23 16 41 -6zM614 43 q193 0 318 131t125 338t-125 338t-316 131q-195 0 -319.5 -135t-124.5 -334t123.5 -334t318.5 -135z" glyph-name="d" horiz-adv-x="1320" unicode="d"/><glyph d="M172 487q8 -199 136 -321.5t310 -122.5q106 0 210 49t173 133q20 23 43 4l9 -8q23 -20 0 -43q-76 -94 -194 -148.5t-241 -54.5q-219 0 -370.5 148.5t-151.5 388.5q0 229 141.5 383t362.5 154q258 0 393 -205q96 -137 97 -309q0 -47 -39 -48h-879zM602 981 q-180 0 -300 -120t-130 -306h842q-6 133 -72 236q-113 190 -340 190z" glyph-name="e" horiz-adv-x="1177" unicode="e"/><glyph d="M696 1415q31 -16 17 -41l-6 -10q-14 -25 -43 -10q-66 37 -129 37q-106 0 -171 -72t-65 -217v-74h307q29 0 29 -29v-8q0 -29 -29 -28h-307v-932q0 -31 -29 -31h-16q-29 0 -29 31v932h-149q-31 0 -31 28v8q0 29 31 29h149v74q0 178 87 266t223 88q87 0 161 -41z" glyph-name="f" horiz-adv-x="632" unicode="f"/><glyph d="M1202 1018q23 -18 6 -41l-2 -4q-16 -23 -41 -6q-27 18 -51 18q-57 0 -57 -76v-823q0 -221 -130 -341t-345 -120q-293 0 -451 223q-18 25 6 46l8 4q25 18 43 -7q133 -199 396 -198q184 0 291.5 104.5t107.5 290.5v240q-61 -104 -166.5 -164t-238.5 -60 q-207 0 -343.5 135.5t-136.5 338.5q0 199 137.5 335t342.5 136q133 0 238.5 -60.5t166.5 -165.5v84q0 68 34 105t89 37q59 0 96 -31zM580 172q178 0 291.5 114.5t113.5 289t-113.5 290t-293.5 115.5q-176 0 -290 -115.5t-114 -287.5q0 -176 113 -291t293 -115z" glyph-name="g" horiz-adv-x="1253" unicode="g"/><glyph d="M629 1049q184 0 297.5 -113t113.5 -297v-608q0 -31 -28 -31h-17q-29 0 -28 31v604q0 156 -95.5 251t-250.5 95q-164 0 -267.5 -101.5t-103.5 -256.5v-592q0 -31 -29 -31h-16q-29 0 -29 31v1390q0 20 25 29l20 6q29 10 29 -24v-596q53 98 151.5 155.5t227.5 57.5z" glyph-name="h" horiz-adv-x="1200" unicode="h"/><glyph d="M217 1264q-33 0 -56.5 23.5t-23.5 56t23.5 56t56.5 23.5q35 0 58.5 -23.5t23.5 -56t-23.5 -56t-58.5 -23.5zM211 0q-29 0 -29 31v964q0 33 29 33h14q29 0 29 -33v-964q0 -31 -29 -31h-14z" glyph-name="i" horiz-adv-x="436" unicode="i"/><glyph d="M221 1264q-33 0 -56.5 23.5t-23.5 56t23.5 56t56.5 23.5q35 0 58.5 -23.5t23.5 -56t-23.5 -56t-58.5 -23.5zM102 -369q-29 -18 -45 9l-4 4q-18 29 17 45q74 47 106.5 105.5t32.5 164.5v1004h-135q-31 0 -31 28v8q0 29 31 29h180q27 0 27 -29v-1036q0 -131 -43.5 -202 t-135.5 -130z" glyph-name="j" horiz-adv-x="456" unicode="j"/><glyph d="M1051 47q14 -25 -9 -41q-37 -31 -94 -31q-47 0 -83 30t-83 91l-323 432l-209 -209v-288q0 -31 -29 -31h-16q-29 0 -29 31v1390q0 20 25 29l20 6q29 10 29 -24v-1022l590 591q27 27 45 27h30q14 0 18.5 -10t-5.5 -21l-420 -419l340 -453q61 -86 108 -86q23 0 50 18 q27 16 41 -6z" glyph-name="k" horiz-adv-x="1044" unicode="k"/><glyph d="M305 -25q-57 0 -90 36t-33 106v1304q0 20 25 29l18 6q29 8 29 -24v-1317q0 -76 59 -76q18 0 52 18q23 16 41 -6l2 -4q14 -25 -7 -41q-37 -31 -96 -31z" glyph-name="l" horiz-adv-x="456" unicode="l"/><glyph d="M1423 1049q180 0 286 -112t106 -298v-608q0 -31 -29 -31h-14q-29 0 -29 31v604q0 158 -88 252t-240 94q-164 0 -267.5 -101.5t-103.5 -256.5v-592q0 -31 -28 -31h-15q-29 0 -28 31v604q0 158 -88 252t-242 94q-164 0 -266.5 -101.5t-102.5 -256.5v-592q0 -31 -28 -31h-17 q-29 0 -28 31v878q0 76 -60 76q-23 0 -49 -18q-25 -16 -41 6l-4 4q-14 25 8 41q37 31 97 31q55 0 87.5 -36t32.5 -106v-84q51 104 149.5 165t231.5 61q139 0 236.5 -69t134.5 -192q45 119 150.5 190t248.5 71z" glyph-name="m" horiz-adv-x="1976" unicode="m"/><glyph d="M653 1049q184 0 298 -113t114 -297v-608q0 -31 -29 -31h-16q-29 0 -29 31v604q0 156 -95 251t-251 95q-164 0 -267.5 -101.5t-103.5 -256.5v-592q0 -31 -28 -31h-17q-29 0 -28 31v878q0 76 -60 76q-23 0 -49 -18q-25 -16 -41 6l-4 4q-14 25 8 41q37 31 97 31 q55 0 87.5 -36t32.5 -106v-84q51 104 149.5 165t231.5 61z" glyph-name="n" horiz-adv-x="1224" unicode="n"/><glyph d="M636.5 -25q-233.5 0 -388 155t-154.5 382t154.5 382t388 155t388.5 -155t155 -382t-155 -382t-388.5 -155zM637 43q203 0 335 134t132 335t-132 335t-335 134q-201 0 -334 -134t-133 -335t133 -335t334 -134z" glyph-name="o" horiz-adv-x="1273" unicode="o"/><glyph d="M715 1049q225 0 369.5 -154t144.5 -383t-144.5 -383t-369.5 -154q-150 0 -264.5 73t-176.5 196v-588q0 -31 -28 -31h-17q-29 0 -28 31v1253q0 76 -60 76q-23 0 -49 -18q-25 -16 -41 6l-4 4q-14 25 8 41q37 31 97 31q55 0 87.5 -36t32.5 -106v-129q61 125 177 198t266 73z M711 43q195 0 318.5 134t123.5 335q0 199 -124 334t-318 135q-193 0 -318 -131t-125 -338t125 -338t318 -131z" glyph-name="p" horiz-adv-x="1325" unicode="p"/><glyph d="M1272 1018q20 -16 6 -41l-2 -4q-18 -23 -41 -6q-33 18 -51 18q-59 0 -60 -76v-1253q0 -31 -28 -31h-15q-29 0 -28 31v588q-61 -123 -176 -196t-267 -73q-223 0 -368.5 155t-145.5 382t145.5 382t368.5 155q150 0 265.5 -73t179.5 -200v131q0 141 121 142q59 0 96 -31z M614 43q193 0 318 131t125 338t-125 338t-317.5 131t-317.5 -135t-125 -334t123.5 -334t318.5 -135z" glyph-name="q" horiz-adv-x="1320" unicode="q"/><glyph d="M680 1030q27 -10 16 -41l-2 -8q-12 -27 -41 -14q-43 14 -84 14q-119 0 -207 -110.5t-88 -278.5v-561q0 -31 -28 -31h-17q-29 0 -28 31v878q0 76 -60 76q-23 0 -49 -18q-25 -16 -41 6l-4 4q-14 25 8 41q37 31 97 31q55 0 87.5 -36t32.5 -106v-84q45 104 125 165t178 61 q60 -1 105 -19z" glyph-name="r" horiz-adv-x="706" unicode="r"/><glyph d="M438 -25q-252 0 -364 187q-16 27 6 43l8 6q27 16 43 -8q98 -160 303 -160q123 0 197 56.5t74 152.5q0 27 -5.5 50.5t-19.5 44t-25.5 35.5t-37 32.5t-41 28t-48 24.5t-49 21.5t-54.5 21.5t-52 20q-115 49 -178.5 105.5t-63.5 155.5q0 117 88 187.5t221 70.5 q199 0 305 -152q20 -25 0 -43l-8 -6q-25 -20 -43 4q-96 129 -256 129q-102 0 -167.5 -51t-65.5 -133q0 -76 53 -121t152 -86q188 -74 245 -111q123 -84 123 -227q0 -125 -93 -201t-247 -76z" glyph-name="s" horiz-adv-x="868" unicode="s"/><glyph d="M666 72q16 -25 -15 -41q-78 -55 -170 -56q-129 0 -200.5 76t-71.5 217v695h-156q-31 0 -30 28v8q0 29 30 29h156v332q0 25 24 29l19 6q29 8 29 -25v-342h307q31 0 30 -29v-8q0 -29 -30 -28h-307v-691q0 -229 204 -229q72 0 131 43q27 18 46 -6z" glyph-name="t" horiz-adv-x="661" unicode="t"/><glyph d="M1153 47q14 -25 -6 -41q-37 -31 -96 -31q-55 0 -89 37t-34 105v82q-49 -104 -145.5 -164t-229.5 -60q-172 0 -282.5 113t-110.5 297v610q0 33 28 33h17q29 0 28 -33v-610q0 -152 92.5 -247t235.5 -95q164 0 265.5 102.5t101.5 257.5v592q0 33 28 33h15q29 0 28 -33v-880 q0 -76 60 -76q23 0 51 18q25 16 41 -6z" glyph-name="u" horiz-adv-x="1200" unicode="u"/><glyph d="M1067 1030q33 0 20 -31l-436 -981q-12 -29 -33 -28h-4q-20 0 -32 28l-389 873q-20 49 -39 71.5t-50 22.5q-23 0 -49 -18q-25 -16 -41 6l-2 4q-16 23 6 41q35 31 95 31q53 0 83.5 -33t61.5 -103l356 -802l400 890q10 29 35 29h18z" glyph-name="v" horiz-adv-x="1140" unicode="v"/><glyph d="M1532 1028q33 0 20 -31l-342 -979q-8 -29 -30 -28h-2q-18 0 -31 28l-295 877l-297 -877q-12 -29 -31 -28h-2q-23 0 -30 28l-304 873q-16 49 -34.5 71.5t-49.5 22.5q-20 0 -53 -18q-23 -16 -41 6l-2 4q-14 25 6 41q35 31 95 31q104 0 147 -136l264 -784l299 883 q8 27 31 26h4q23 0 33 -26l295 -883l295 870q10 29 36 29h19z" glyph-name="w" horiz-adv-x="1611" unicode="w"/><glyph d="M1067 49q16 -25 -6 -43q-39 -31 -92 -31q-35 0 -66 20.5t-48 40t-58 75.5l-273 354l-344 -436q-18 -29 -41 -29h-26q-14 0 -19.5 10t4.5 21l385 487l-274 373q-29 41 -39 53t-28.5 26.5t-37.5 14.5q-25 0 -51 -18q-25 -16 -39 6l-4 4q-14 25 6 41q39 31 93 31 q49 0 83.5 -31t88.5 -105l251 -342l332 428q25 29 41 29h27q14 0 19 -10t-3 -21l-375 -481l295 -383q6 -8 15.5 -20.5t14.5 -18.5t13.5 -15t12.5 -14.5t11 -11.5t12 -8t12.5 -4t13.5 -2q23 0 51 20q25 16 39 -6z" glyph-name="x" horiz-adv-x="1071" unicode="x"/><glyph d="M1059 1028q14 0 19 -10t1 -21l-532 -1192q-80 -180 -228 -180q-70 0 -122 35q-29 16 -17 39l4 8q12 27 47 8q45 -27 88 -26q100 0 160 129l96 215l-376 858q-20 49 -39 71.5t-47 22.5q-25 0 -54 -20q-25 -16 -41 8l-2 2q-16 25 7 43q39 31 94 31t87 -34t62 -102l350 -792 l385 878q10 29 35 29h23z" glyph-name="y" horiz-adv-x="1128" unicode="y"/><glyph d="M78 0q-31 0 -31 29v12q0 12 21 41l673 883h-628q-31 0 -31 26v8q0 29 31 29h692q31 0 31 -29v-12q0 -12 -21 -41l-674 -883h703q31 0 30 -28v-8q0 -27 -30 -27h-766z" glyph-name="z" horiz-adv-x="911" unicode="z"/><glyph d="M449 -238q-143 0 -204 69t-61 257v332q0 76 -3 105.5t-22.5 52t-62.5 28.5q-31 6 -30 27v10q0 16 30 27q61 8 74.5 43t13.5 143v330q0 188 60.5 256.5t204.5 68.5h26q29 0 29 -26v-10q0 -27 -29 -27h-24q-111 0 -152 -59.5t-41 -206.5v-394q0 -139 -82 -149v-2 q82 -10 82 -152v-393q0 -147 41 -206.5t152 -59.5h24q29 0 29 -27v-10q0 -27 -29 -27h-26z" glyph-name="braceleft" horiz-adv-x="532" unicode="{"/><glyph d="M264 -268q0 -31 -26 -31h-11q-29 0 -28 31v1687q0 31 28 31h11q27 0 26 -31v-1687z" glyph-name="bar" horiz-adv-x="462" unicode="|"/><glyph d="M86 -238h-27q-31 0 -30 27v10q0 27 30 27h25q109 0 150.5 59.5t41.5 206.5v393q0 141 80 152v2q-80 10 -80 149v394q0 147 -41.5 206.5t-150.5 59.5h-25q-31 0 -30 27v10q0 27 30 26h27q141 0 201.5 -68.5t60.5 -256.5v-330q0 -76 3 -105.5t22.5 -52t62.5 -28.5 q31 -10 31 -27v-10q0 -20 -31 -27q-61 -10 -74.5 -44t-13.5 -142v-332q0 -188 -60.5 -257t-201.5 -69z" glyph-name="braceright" horiz-adv-x="532" unicode="}"/><glyph d="M803 578q-92 0 -235.5 51t-213.5 51q-66 0 -96.5 -20.5t-42.5 -65.5q-6 -29 -31 -29h-10q-27 0 -22 29q10 66 60 110t142 44q90 0 229.5 -51.5t219.5 -51.5q68 0 97.5 20.5t41.5 63.5q6 29 31 29h10q29 0 25 -29q-10 -63 -61.5 -107t-143.5 -44z" glyph-name="asciitilde" horiz-adv-x="1153" unicode="~"/><glyph d="M227 887q-35 0 -58.5 23.5t-23.5 58.5q0 33 25 56.5t57.5 23.5t56 -24t23.5 -56.5t-23.5 -57t-56.5 -24.5zM217 -307q-35 0 -35 37l13 1024q0 31 28 30h8q29 0 29 -30l12 -1024q0 -37 -36 -37h-19z" glyph-name="exclamdown" horiz-adv-x="452" unicode="¡"/><glyph d="M1042 379l11 -10q18 -18 0 -39q-152 -184 -387 -201v-123q0 -31 -31 -31h-8q-29 0 -29 31v123q-217 14 -357.5 165.5t-140.5 371t140.5 371t357.5 165.5v119q0 31 29 31h8q31 0 31 -31v-119q236 -12 387 -198q18 -23 0 -39l-11 -11q-20 -20 -41 2q-141 178 -366 179 q-201 0 -330 -134.5t-129 -335t129 -334.5t330 -134q225 0 369 182q18 20 38 0z" glyph-name="cent" horiz-adv-x="1153" unicode="¢"/><glyph d="M946 68q31 0 31 -29v-12q0 -27 -31 -27h-825q-29 0 -29 27v12q0 29 29 29h106v575h-104q-31 0 -31 29v8q0 31 31 31h104v264q0 180 112 280.5t282 100.5q205 0 352 -158q18 -23 -2 -43l-8 -8q-25 -20 -50 6q-119 133 -295 133q-137 0 -227 -82t-90 -225v-268h387 q31 0 31 -31v-8q0 -29 -31 -29h-387v-575h645z" glyph-name="sterling" horiz-adv-x="1054" unicode="£"/><glyph d="M1176 233q20 -20 0 -43l-9 -6q-23 -23 -43 0l-108 109q-145 -133 -346 -133q-199 0 -346 131l-107 -107q-18 -18 -41 0l-8 9q-23 23 0 43l106 106q-121 139 -120 328q0 186 118 331l-106 105q-20 20 0 43l8 8q23 23 43 0l107 -104q147 131 346 131q203 0 348 -135 l108 106q20 25 41 0l9 -8q20 -20 0 -43l-107 -105q117 -143 117 -327q0 -188 -119 -330zM670 229q188 0 314 128t126 314.5t-127 314.5t-313.5 128t-313.5 -128t-127 -314.5t127.5 -314.5t313.5 -128z" glyph-name="currency" horiz-adv-x="1339" unicode="¤"/><glyph d="M1118 1331q14 0 19.5 -9t-2.5 -19l-484 -768h244q31 0 31 -29v-2q0 -29 -31 -29h-258v-178h258q31 0 31 -29v-2q0 -27 -31 -26h-258v-209q0 -31 -31 -31h-16q-29 0 -29 31v209h-258q-31 0 -31 26v2q0 29 31 29h258v178h-258q-31 0 -31 29v2q0 29 31 29h240l-486 768 q-8 10 -2 19t21 9h28q23 0 41 -26l453 -723l453 723q14 27 39 26h28z" glyph-name="yen" horiz-adv-x="1193" unicode="¥"/><glyph d="M264 729q0 -31 -26 -31h-11q-29 0 -28 31v690q0 31 28 31h11q27 0 26 -31v-690zM264 -268q0 -31 -26 -31h-11q-29 0 -28 31v731q0 31 28 31h11q27 0 26 -31v-731z" glyph-name="brokenbar" horiz-adv-x="462" unicode="¦"/><glyph d="M551 -332q-137 0 -266 62.5t-203 167.5q-23 33 -2 47l18 12q23 16 43 -12q63 -94 174 -151.5t230 -57.5q160 0 254 67.5t94 173.5q0 45 -19.5 83t-45 65t-78 57.5t-90 48t-111.5 48.5q-96 41 -147.5 66.5t-116 69.5t-94 97t-29.5 121q0 141 127 219q-127 94 -127 217 q0 127 107.5 207t273.5 80q233 0 375 -168q18 -23 0 -43l-11 -8q-20 -25 -47 4q-131 150 -317 149q-127 0 -214 -60.5t-87 -156.5q0 -43 22.5 -83t47 -64.5t87 -58t91 -46t110.5 -49.5q92 -39 144.5 -65.5t113 -70.5t88 -98.5t27.5 -121.5q0 -143 -109 -223 q109 -88 109 -216q0 -139 -114.5 -224t-307.5 -85zM795 233q98 70 98 183q0 76 -56.5 136t-124 93t-179 82t-171.5 84q-121 -55 -120 -174q0 -74 59 -134.5t133 -95t187 -85t174 -89.5z" glyph-name="section" horiz-adv-x="1083" unicode="§"/><glyph d="M186.5 1264q-34.5 0 -57.5 23.5t-23 56t23 56t57.5 23.5t58 -23.5t23.5 -56t-23.5 -56t-58 -23.5zM479 1264q-33 0 -56.5 23.5t-23.5 56t23.5 56t56.5 23.5q35 0 58.5 -23.5t23.5 -56t-23.5 -56t-58.5 -23.5z" glyph-name="dieresis" horiz-adv-x="665" unicode="¨"/><glyph d="M795 -25q-297 0 -495 201t-198 489.5t198 489.5t495 201t494.5 -201t197.5 -489.5t-197.5 -489.5t-494.5 -201zM794.5 41q268.5 0 445.5 181t177 443.5t-177 443.5t-445.5 181t-445.5 -181t-177 -443.5t177 -443.5t445.5 -181zM805 260q-176 0 -292 116t-116 290 t116 289.5t292 115.5q211 0 321 -151q16 -20 -2 -39l-8 -7q-23 -18 -41 5q-92 127 -270 127q-152 0 -244 -95.5t-92 -245t92 -243.5t246 -94q180 0 268 127q18 23 41 4l8 -8q18 -16 2 -37q-49 -70 -135 -112t-186 -42z" glyph-name="copyright" horiz-adv-x="1589" unicode="©"/><glyph d="M393 1356q109 0 183.5 -60.5t74.5 -167.5v-393q0 -31 -28 -30h-5q-29 0 -28 30v78q-74 -117 -236 -117q-106 0 -174.5 56.5t-68.5 148.5q0 96 75.5 148.5t186.5 52.5q113 0 217 -45v57q0 84 -57.5 132t-141.5 48q-127 0 -213 -90q-23 -20 -37 -2l-6 8q-16 18 2 37 q98 109 256 109zM356 758q94 0 162 54t68 140v45q-98 47 -213 47q-86 0 -140.5 -38.5t-54.5 -106.5q0 -63 49 -102t129 -39z" glyph-name="ordfeminine" horiz-adv-x="794" unicode="ª"/><glyph d="M176 616l238 -276q23 -27 2 -43l-6 -4q-25 -20 -48 6l-256 293q-20 23 0 47l256 293q23 27 48 6l6 -4q18 -18 -2 -43zM502 616l237 -276q23 -27 2 -43l-6 -4q-25 -23 -45 6l-258 293q-20 23 0 47l258 293q20 29 45 6l6 -4q18 -18 -2 -43z" glyph-name="guillemotleft" horiz-adv-x="890" unicode="«"/><glyph d="M458.5 1358q151.5 0 252 -101.5t100.5 -249t-100.5 -249t-252 -101.5t-253 101.5t-101.5 249t101.5 249t253 101.5zM459 707q127 0 212 87t85 214q0 125 -85 212t-212 87t-213 -87t-86 -212q0 -127 85 -214t214 -87zM526 989l82 -155q10 -25 -14 -25h-16q-16 0 -29 25 l-78 149h-100v-149q0 -25 -23 -25h-8q-25 0 -25 25v362q0 23 25 23h127q68 0 104.5 -32t36.5 -87q0 -86 -82 -111zM371 1171v-145h102q37 0 59.5 20.5t22.5 53.5t-21.5 52t-60.5 19h-102z" glyph-name="registered" horiz-adv-x="915" unicode="®"/><glyph d="M199 1294q-31 0 -31 29v10q0 29 31 29h491q31 0 31 -29v-10q0 -29 -31 -29h-491z" glyph-name="macron" horiz-adv-x="886" unicode="¯"/><glyph d="M362 827q-109 0 -186.5 78t-77.5 187q0 111 78 187.5t186 76.5q111 0 188 -77t77 -187q0 -109 -77 -187t-188 -78zM362 891q82 0 140.5 58.5t58.5 142.5t-58.5 142t-140.5 58q-84 0 -142 -58t-58 -142t58 -142.5t142 -58.5z" glyph-name="degree" horiz-adv-x="724" unicode="°"/><glyph d="M1020 672q29 0 29 -29v-6q0 -27 -29 -27h-408v-391q0 -31 -26 -31h-15q-29 0 -28 31v391h-410q-31 0 -31 27v6q0 29 31 29h410v389q0 31 28 31h15q27 0 26 -31v-389h408zM1020 63q29 0 29 -28v-8q0 -27 -29 -27h-887q-31 0 -31 27v8q0 29 31 28h887z" glyph-name="plusminus" horiz-adv-x="1153" unicode="±"/><glyph d="M190 1206l-4 6q-16 20 13 43l276 222q33 29 53 4l7 -11q25 -29 -9 -51l-290 -207q-30 -22 -46 -6z" glyph-name="acute" horiz-adv-x="536" unicode="´"/><glyph d="M678 -332q-29 0 -29 31v768h-51q-248 0 -392.5 104.5t-144.5 331.5q0 428 537 428h545q31 0 31 -28v-7q0 -29 -31 -28h-426v-1569q0 -31 -31 -31h-8zM965 -332q-29 0 -29 31v1409q0 31 29 31h8q31 0 31 -31v-1409q0 -31 -31 -31h-8z" glyph-name="paragraph" horiz-adv-x="1230" unicode="¶"/><glyph d="M229 498q-37 0 -62.5 26.5t-25.5 61.5q0 37 26 63.5t62 26.5q35 0 61.5 -26.5t26.5 -63.5q0 -35 -26.5 -61.5t-61.5 -26.5z" glyph-name="periodcentered" horiz-adv-x="458" unicode="·"/><glyph d="M248 -115q205 10 205 -131q0 -68 -50.5 -107.5t-136.5 -39.5q-90 0 -168 47q-35 20 -18 45l4 6q16 25 43 6q72 -45 135 -45q55 0 87 22.5t32 63.5q0 51 -49 70.5t-125 5.5q-20 -4 -29.5 3t-3.5 26q6 25 17.5 76t17.5 75v21h67v-21z" glyph-name="cedilla" horiz-adv-x="595" unicode="¸"/><glyph d="M432.5 696q-145.5 0 -241 93.5t-95.5 236.5q0 141 96.5 235.5t239.5 94.5t239.5 -94.5t96.5 -235.5q0 -143 -95 -236.5t-240.5 -93.5zM432 760q115 0 190.5 75.5t75.5 190.5t-75.5 190.5t-190.5 75.5t-190.5 -75.5t-75.5 -190.5t75.5 -190.5t190.5 -75.5z" glyph-name="ordmasculine" horiz-adv-x="864" unicode="º"/><glyph d="M459 639q20 -25 0 -47l-256 -293q-23 -27 -47 -6l-6 4q-20 16 2 43l237 276l-237 275q-20 25 -2 43l6 4q25 20 47 -6zM782 639q23 -25 0 -47l-256 -293q-23 -27 -47 -6l-4 4q-23 16 0 43l238 276l-238 275q-20 25 0 43l4 4q25 20 47 -6z" glyph-name="guillemotright" horiz-adv-x="886" unicode="»"/><glyph d="M231 1266h-122q-31 0 -25 26l4 11q6 29 33 28h153q31 0 31 -28v-699q0 -31 -31 -31h-12q-31 0 -31 31v662zM1157 1331q14 0 20.5 -8t-1.5 -20l-986 -1274q-23 -29 -45 -29h-16q-14 0 -19.5 8t3.5 21l983 1274q23 29 45 28h16zM1128 250q31 0 31 -29v-6q0 -29 -31 -29h-61 v-155q0 -31 -29 -31h-12q-31 0 -31 31v155h-360q-31 0 -31 29v6q0 20 21 41l366 463q18 25 41 25h8q27 0 27 -31v-469h61zM692 250h303v379z" glyph-name="onequarter" horiz-adv-x="1273" unicode="¼"/><glyph d="M123 1266q-33 0 -25 26l2 11q6 29 33 28h154q31 0 30 -28v-699q0 -31 -30 -31h-13q-29 0 -28 31v662h-123zM1149 1331q14 0 19.5 -8t-3.5 -20l-983 -1274q-25 -29 -45 -29h-16q-14 0 -20.5 8t3.5 21l983 1274q18 29 46 28h16zM1290 66q31 0 31 -31v-6q0 -29 -31 -29h-438 q-27 0 -27 25v6q0 14 17 30q55 57 141 139.5t115 110.5q135 141 135 221q0 70 -44 112t-114 42q-102 0 -178 -72q-27 -23 -45 -4l-4 4q-18 18 4 43q98 92 223 93q100 0 162.5 -60.5t62.5 -157.5q0 -109 -153 -262q-29 -31 -100.5 -99.5t-108.5 -104.5h352z" glyph-name="onehalf" horiz-adv-x="1409" unicode="½"/><glyph d="M578 793q0 -98 -73 -161t-186 -63q-139 0 -237 103q-23 23 -2 41l6 6q18 16 41 -10q76 -80 192 -80q84 0 136.5 46t52.5 120q0 76 -56.5 122t-146.5 46h-29q-27 0 -26 22v8q0 23 26 23h35q68 0 117 42t49 105q0 61 -42 97t-113 36q-90 0 -158 -55q-27 -23 -41 -4l-4 4 q-20 16 8 41q82 74 195 74q100 0 161.5 -53.5t61.5 -137.5q0 -117 -121 -172q72 -23 113 -74.5t41 -125.5zM1346 1331q12 0 18 -8t-2 -20l-983 -1274q-25 -29 -45 -29h-19q-12 0 -18 8t2 21l985 1274q18 29 43 28h19zM1337 250q31 0 31 -29v-6q0 -29 -31 -29h-59v-155 q0 -31 -29 -31h-14q-29 0 -29 31v155h-360q-31 0 -31 29v6q0 14 19 41l368 463q16 25 41 25h6q29 0 29 -31v-469h59zM903 250h303v379z" glyph-name="threequarters" horiz-adv-x="1470" unicode="¾"/><glyph d="M483.5 887q-32.5 0 -57.5 23.5t-25 58.5q0 33 25 56.5t57.5 23.5t56 -24t23.5 -56.5t-23.5 -57t-56 -24.5zM502 -332q-188 0 -304 98.5t-116 260.5q0 43 12 85t25.5 70.5t45.5 66.5t47 54t57 56t53 51q47 47 68.5 72.5t38.5 74.5t17 113v80q0 31 29 30h14q29 0 29 -30 v-76q0 -111 -33.5 -172.5t-109.5 -134.5q-12 -12 -49 -48t-51.5 -51.5t-42 -49.5t-40 -58.5t-22.5 -60.5t-10 -72q0 -129 94 -209t248 -80q113 0 207 73.5t133 192.5q8 27 37 21l16 -7q25 -6 14 -36q-39 -139 -151.5 -226.5t-255.5 -87.5z" glyph-name="questiondown" horiz-adv-x="964" unicode="¿"/><glyph d="M516 1642q-31 16 -12 44l10 16q16 27 49 6l303 -195q29 -18 15 -40l-7 -11q-12 -16 -40 0zM1421 47q14 -23 -10 -41q-37 -31 -90 -31q-51 0 -90 31q-37 29 -74 111l-94 215h-791l-133 -303q-14 -29 -35 -29h-22q-16 0 -21.5 9t2.5 24l572 1286q10 23 31 22h6q23 0 33 -22 l526 -1186q39 -86 88 -88q31 0 57 18q27 14 39 -6zM303 399h729l-364 830z" glyph-name="Agrave" horiz-adv-x="1419" unicode="À"/><glyph d="M475 1462l-6 8q-16 23 16 41l301 195q33 20 50 -6l12 -17q16 -25 -14 -43l-318 -178q-29 -16 -41 0zM1421 47q14 -23 -10 -41q-37 -31 -90 -31q-51 0 -90 31q-37 29 -74 111l-94 215h-791l-133 -303q-14 -29 -35 -29h-22q-16 0 -21.5 9t2.5 24l572 1286q10 23 31 22h6 q23 0 33 -22l526 -1186q39 -86 88 -88q31 0 57 18q27 14 39 -6zM303 399h729l-364 830z" glyph-name="Aacute" horiz-adv-x="1419" unicode="Á"/><glyph d="M391 1460l-6 6q-16 20 16 43l244 177q23 14 47 0l244 -177q33 -23 16 -43l-6 -6q-14 -20 -45 0l-231 150l-234 -150q-31 -20 -45 0zM1421 47q14 -23 -10 -41q-37 -31 -90 -31q-51 0 -90 31q-37 29 -74 111l-94 215h-791l-133 -303q-14 -29 -35 -29h-22q-16 0 -21.5 9 t2.5 24l572 1286q10 23 31 22h6q23 0 33 -22l526 -1186q39 -86 88 -88q31 0 57 18q27 14 39 -6zM303 399h729l-364 830z" glyph-name="Acircumflex" horiz-adv-x="1419" unicode="Â"/><glyph d="M377 1450q-29 0 -29 29q0 78 43 123t113 45q63 0 169.5 -67t160.5 -67q41 0 66.5 27t25.5 78q0 31 28 31h9q29 0 28 -31q0 -78 -43 -123t-112 -45q-68 0 -175.5 67.5t-154.5 67.5q-41 0 -66.5 -27.5t-25.5 -78.5q0 -29 -29 -29h-8zM1421 47q14 -23 -10 -41 q-37 -31 -90 -31q-51 0 -90 31q-37 29 -74 111l-94 215h-791l-133 -303q-14 -29 -35 -29h-22q-16 0 -21.5 9t2.5 24l572 1286q10 23 31 22h6q23 0 33 -22l526 -1186q39 -86 88 -88q31 0 57 18q27 14 39 -6zM303 399h729l-364 830z" glyph-name="Atilde" horiz-adv-x="1419" unicode="Ã"/><glyph d="M508 1505q-33 0 -57.5 23.5t-24.5 58.5t24.5 58.5t57.5 23.5t57.5 -23.5t24.5 -58.5t-24.5 -58.5t-57.5 -23.5zM829 1505q-35 0 -58 23.5t-23 58.5t23.5 58.5t58 23.5t58 -23.5t23.5 -58.5q0 -33 -24.5 -57.5t-57.5 -24.5zM1421 47q14 -23 -10 -41q-37 -31 -90 -31 q-51 0 -90 31q-37 29 -74 111l-94 215h-791l-133 -303q-14 -29 -35 -29h-22q-16 0 -21.5 9t2.5 24l572 1286q10 23 31 22h6q23 0 33 -22l526 -1186q39 -86 88 -88q31 0 57 18q27 14 39 -6zM303 399h729l-364 830z" glyph-name="Adieresis" horiz-adv-x="1419" unicode="Ä"/><glyph d="M668 1425q-72 0 -123 50.5t-51 120t51 119.5t123 50q74 0 124 -49t50 -120.5t-50 -121t-124 -49.5zM668 1710q-49 0 -81 -35t-32 -80t31.5 -79.5t81.5 -34.5q51 0 82.5 34.5t31.5 79.5t-31.5 80t-82.5 35zM1421 47q14 -23 -10 -41q-37 -31 -90 -31q-51 0 -90 31 q-37 29 -74 111l-94 215h-791l-133 -303q-14 -29 -35 -29h-22q-16 0 -21.5 9t2.5 24l572 1286q10 23 31 22h6q23 0 33 -22l526 -1186q39 -86 88 -88q31 0 57 18q27 14 39 -6zM303 399h729l-364 830z" glyph-name="Aring" horiz-adv-x="1419" unicode="Å"/><glyph d="M1769 1264h-743v-557h584q31 0 30 -29v-10q0 -29 -30 -29h-584v-571h743q29 0 29 -29v-10q0 -29 -29 -29h-788q-31 0 -31 29v303h-663l-215 -303q-18 -29 -39 -29h-21q-16 0 -21 10t5 23l897 1270q18 29 53 28h823q29 0 29 -28v-11q0 -28 -29 -28zM334 399h616v869z" glyph-name="AE" horiz-adv-x="1880" unicode="Æ"/><glyph d="M1329 256q25 -16 0 -41q-88 -109 -221 -172t-285 -68l-22 -92q205 10 205 -131q0 -68 -50.5 -107.5t-138.5 -39.5q-90 0 -166 47q-35 20 -18 45l4 6q16 25 43 6q72 -45 135 -45q55 0 87 22.5t32 63.5q0 51 -49 70.5t-125 5.5q-20 -4 -29.5 3t-3.5 26q6 20 15.5 62 t13.5 60q-283 14 -468.5 211t-185.5 478q0 293 200 491.5t499 198.5q160 0 298 -63.5t230 -176.5q25 -25 0 -41l-14 -10q-23 -16 -43 8q-84 98 -208 155.5t-265 57.5q-262 0 -441.5 -179t-179.5 -441.5t179.5 -441.5t441.5 -179q141 0 265 57.5t208 155.5q20 25 43 8z" glyph-name="Ccedilla" horiz-adv-x="1417" unicode="Ç"/><glyph d="M821 1462q-12 -16 -41 0l-317 180q-31 16 -12 44l10 16q16 27 49 6l303 -195q29 -18 14 -40zM236 0q-29 0 -29 29v1274q0 29 29 28h788q31 0 31 -28v-11q0 -29 -31 -28h-741v-557h581q31 0 31 -29v-10q0 -29 -31 -29h-581v-571h741q31 0 31 -29v-10q0 -29 -31 -29h-788z " glyph-name="Egrave" horiz-adv-x="1134" unicode="È"/><glyph d="M446 1462l-6 8q-16 23 17 41l301 195q33 20 49 -6l12 -17q16 -25 -14 -43l-318 -178q-29 -16 -41 0zM236 0q-29 0 -29 29v1274q0 29 29 28h788q31 0 31 -28v-11q0 -29 -31 -28h-741v-557h581q31 0 31 -29v-10q0 -29 -31 -29h-581v-571h741q31 0 31 -29v-10q0 -29 -31 -29 h-788z" glyph-name="Eacute" horiz-adv-x="1134" unicode="É"/><glyph d="M352 1460l-6 6q-16 20 16 43l244 177q23 14 47 0l244 -177q33 -23 16 -43l-6 -6q-14 -20 -45 0l-231 150l-234 -150q-31 -20 -45 0zM1024 1264h-741v-557h581q31 0 31 -29v-10q0 -29 -31 -29h-581v-571h741q31 0 31 -29v-10q0 -29 -31 -29h-788q-29 0 -29 29v1274 q0 29 29 28h788q31 0 31 -28v-11q0 -28 -31 -28z" glyph-name="Ecircumflex" horiz-adv-x="1134" unicode="Ê"/><glyph d="M469 1505q-35 0 -58.5 23.5t-23.5 58.5t23.5 58.5t58.5 23.5t58.5 -23.5t23.5 -58.5t-23.5 -58.5t-58.5 -23.5zM790.5 1505q-32.5 0 -57 23.5t-24.5 58.5t24.5 58.5t57 23.5t57 -23.5t24.5 -58.5q0 -33 -24.5 -57.5t-57 -24.5zM236 0q-29 0 -29 29v1274q0 29 29 28h788 q31 0 31 -28v-11q0 -29 -31 -28h-741v-557h581q31 0 31 -29v-10q0 -29 -31 -29h-581v-571h741q31 0 31 -29v-10q0 -29 -31 -29h-788z" glyph-name="Edieresis" horiz-adv-x="1134" unicode="Ë"/><glyph d="M459 1462q-12 -16 -41 0l-318 180q-31 16 -12 44l10 16q16 27 49 6l304 -195q29 -18 14 -40zM236 0q-29 0 -29 33v1265q0 33 29 33h16q31 0 31 -33v-1265q0 -33 -31 -33h-16z" glyph-name="Igrave" horiz-adv-x="487" unicode="Ì"/><glyph d="M49 1462l-6 8q-16 23 16 41l301 195q33 20 50 -6l12 -17q16 -25 -14 -43l-318 -178q-29 -16 -41 0zM236 0q-29 0 -29 33v1265q0 33 29 33h16q31 0 31 -33v-1265q0 -33 -31 -33h-16z" glyph-name="Iacute" horiz-adv-x="487" unicode="Í"/><glyph d="M510 1509q33 -23 16 -43l-6 -6q-14 -20 -45 0l-231 150l-234 -150q-31 -20 -45 0l-6 6q-16 20 16 43l244 177q23 14 47 0zM252 1331q31 0 31 -33v-1265q0 -33 -31 -33h-16q-29 0 -29 33v1265q0 33 29 33h16z" glyph-name="Icircumflex" horiz-adv-x="487" unicode="Î"/><glyph d="M82 1505q-33 0 -57.5 23.5t-24.5 58.5t24.5 58.5t57.5 23.5t57.5 -23.5t24.5 -58.5t-24.5 -58.5t-57.5 -23.5zM403 1505q-35 0 -58 23.5t-23 58.5t23.5 58.5t58 23.5t58 -23.5t23.5 -58.5q0 -33 -24.5 -57.5t-57.5 -24.5zM236 0q-29 0 -29 33v1265q0 33 29 33h16 q31 0 31 -33v-1265q0 -33 -31 -33h-16z" glyph-name="Idieresis" horiz-adv-x="487" unicode="Ï"/><glyph d="M686 1331q315 0 498.5 -182t183.5 -483t-183.5 -483.5t-498.5 -182.5h-455q-23 0 -22 29v608h-115q-31 0 -31 31v8q0 29 31 29h115v598q0 29 29 28h448zM688 68q279 0 440.5 163.5t161.5 434t-161.5 434.5t-440.5 164h-403v-559h456q31 0 31 -29v-8q0 -31 -31 -31h-456 v-569h403z" glyph-name="Eth" horiz-adv-x="1474" unicode="Ð"/><glyph d="M440 1450q-29 0 -28 29q0 78 43 123t112 45q63 0 170 -67t160 -67q41 0 66.5 27t25.5 78q0 31 29 31h8q29 0 29 -31q0 -78 -43 -123t-113 -45q-68 0 -175.5 67.5t-154.5 67.5q-41 0 -66.5 -27.5t-25.5 -78.5q0 -29 -28 -29h-9zM1198 1331q31 0 31 -33v-1286 q0 -25 -27 -24h-4q-14 0 -41 30l-876 1174v-1159q0 -33 -31 -33h-14q-29 0 -29 33v1284q0 25 24 24h5q16 0 40 -28l877 -1174v1159q0 33 31 33h14z" glyph-name="Ntilde" horiz-adv-x="1433" unicode="Ñ"/><glyph d="M997 1462q-12 -16 -41 0l-317 180q-31 16 -12 44l10 16q16 27 49 6l303 -195q29 -18 15 -40zM805 -25q-301 0 -502 199t-201 491.5t201 491.5t502 199q303 0 502.5 -199t199.5 -491.5t-199.5 -491.5t-502.5 -199zM805 45q266 0 446.5 179t180.5 441.5t-180.5 441.5 t-446.5 179t-446.5 -179t-180.5 -441.5t180.5 -441.5t446.5 -179z" glyph-name="Ograve" horiz-adv-x="1609" unicode="Ò"/><glyph d="M623 1462l-7 8q-16 23 17 41l301 195q33 20 49 -6l12 -17q16 -25 -14 -43l-317 -178q-29 -16 -41 0zM805 -25q-301 0 -502 199t-201 491.5t201 491.5t502 199q303 0 502.5 -199t199.5 -491.5t-199.5 -491.5t-502.5 -199zM805 45q266 0 446.5 179t180.5 441.5 t-180.5 441.5t-446.5 179t-446.5 -179t-180.5 -441.5t180.5 -441.5t446.5 -179z" glyph-name="Oacute" horiz-adv-x="1609" unicode="Ó"/><glyph d="M528 1460l-6 6q-16 20 17 43l243 177q23 14 47 0l244 -177q33 -23 17 -43l-7 -6q-14 -20 -45 0l-231 150l-234 -150q-31 -20 -45 0zM805 1356q303 0 502.5 -199t199.5 -491.5t-199.5 -491.5t-502.5 -199q-301 0 -502 199t-201 491.5t201 491.5t502 199zM805 45 q266 0 446.5 179t180.5 441.5t-180.5 441.5t-446.5 179t-446.5 -179t-180.5 -441.5t180.5 -441.5t446.5 -179z" glyph-name="Ocircumflex" horiz-adv-x="1609" unicode="Ô"/><glyph d="M512 1450q-29 0 -29 29q0 78 43 123t113 45q63 0 169.5 -67t160.5 -67q41 0 66.5 27t25.5 78q0 31 29 31h8q29 0 28 -31q0 -78 -43 -123t-112 -45q-68 0 -175.5 67.5t-154.5 67.5q-41 0 -66.5 -27.5t-25.5 -78.5q0 -29 -29 -29h-8zM805 -25q-301 0 -502 199t-201 491.5 t201 491.5t502 199q303 0 502.5 -199t199.5 -491.5t-199.5 -491.5t-502.5 -199zM805 45q266 0 446.5 179t180.5 441.5t-180.5 441.5t-446.5 179t-446.5 -179t-180.5 -441.5t180.5 -441.5t446.5 -179z" glyph-name="Otilde" horiz-adv-x="1609" unicode="Õ"/><glyph d="M645 1505q-35 0 -58.5 23.5t-23.5 58.5t23.5 58.5t58.5 23.5t58.5 -23.5t23.5 -58.5t-23.5 -58.5t-58.5 -23.5zM966.5 1505q-32.5 0 -57 23.5t-24.5 58.5t24.5 58.5t57 23.5t57.5 -23.5t25 -58.5q0 -33 -25 -57.5t-57.5 -24.5zM805 -25q-301 0 -502 199t-201 491.5 t201 491.5t502 199q303 0 502.5 -199t199.5 -491.5t-199.5 -491.5t-502.5 -199zM805 45q266 0 446.5 179t180.5 441.5t-180.5 441.5t-446.5 179t-446.5 -179t-180.5 -441.5t180.5 -441.5t446.5 -179z" glyph-name="Odieresis" horiz-adv-x="1609" unicode="Ö"/><glyph d="M934 313q20 -23 2 -41l-10 -8q-18 -23 -41 0l-359 359l-356 -357q-20 -23 -41 -2l-6 6q-18 20 0 43l356 357l-356 358q-20 20 -2 41l10 8q18 20 41 -2l356 -356l359 356q23 23 41 0l6 -6q20 -20 -2 -41l-357 -356z" glyph-name="multiply" horiz-adv-x="1058" unicode="×"/><glyph d="M1219 1231q135 -94 211.5 -241.5t76.5 -323.5q0 -293 -199.5 -492t-502.5 -199q-199 0 -361 93l-92 -142q-14 -27 -43 -26h-16q-14 0 -21.5 9t0.5 19l115 174q-133 96 -209 243t-76 321q0 293 201 491.5t502 198.5q197 0 354 -88l103 155q18 27 45 27h16q14 0 20.5 -9 t-0.5 -20zM178 666q0 -154 66.5 -285t183.5 -217l690 1042q-141 80 -313 80q-266 0 -446.5 -179t-180.5 -441zM805 45q266 0 446.5 179t180.5 442q0 156 -68 287.5t-186 215.5l-693 -1042q148 -82 320 -82z" glyph-name="Oslash" horiz-adv-x="1609" unicode="Ø"/><glyph d="M913 1462q-12 -16 -41 0l-317 180q-31 16 -12 44l10 16q16 27 49 6l303 -195q29 -18 15 -40zM723 -25q-242 0 -389.5 149.5t-147.5 395.5v778q0 33 29 33h16q31 0 31 -33v-776q0 -213 127 -345t334 -132t334 132t127 345v776q0 33 30 33h15q31 0 31 -33v-778 q0 -246 -147.5 -395.5t-389.5 -149.5z" glyph-name="Ugrave" horiz-adv-x="1445" unicode="Ù"/><glyph d="M539 1462l-7 8q-16 23 17 41l301 195q33 20 49 -6l12 -17q16 -25 -14 -43l-317 -178q-29 -16 -41 0zM723 -25q-242 0 -389.5 149.5t-147.5 395.5v778q0 33 29 33h16q31 0 31 -33v-776q0 -213 127 -345t334 -132t334 132t127 345v776q0 33 30 33h15q31 0 31 -33v-778 q0 -246 -147.5 -395.5t-389.5 -149.5z" glyph-name="Uacute" horiz-adv-x="1445" unicode="Ú"/><glyph d="M444 1460l-6 6q-16 20 17 43l243 177q23 14 47 0l244 -177q33 -23 17 -43l-7 -6q-14 -20 -45 0l-231 150l-234 -150q-31 -20 -45 0zM1229 1331q31 0 31 -33v-778q0 -246 -147.5 -395.5t-389.5 -149.5t-389.5 149.5t-147.5 395.5v778q0 33 29 33h16q31 0 31 -33v-776 q0 -213 127 -345t334 -132t334 132t127 345v776q0 33 30 33h15z" glyph-name="Ucircumflex" horiz-adv-x="1445" unicode="Û"/><glyph d="M561 1505q-33 0 -57.5 23.5t-24.5 58.5t24.5 58.5t57.5 23.5t57.5 -23.5t24.5 -58.5t-24.5 -58.5t-57.5 -23.5zM883 1505q-35 0 -58.5 23.5t-23.5 58.5t23.5 58.5t58.5 23.5t58.5 -23.5t23.5 -58.5q0 -33 -24.5 -57.5t-57.5 -24.5zM723 -25q-242 0 -389.5 149.5 t-147.5 395.5v778q0 33 29 33h16q31 0 31 -33v-776q0 -213 127 -345t334 -132t334 132t127 345v776q0 33 30 33h15q31 0 31 -33v-778q0 -246 -147.5 -395.5t-389.5 -149.5z" glyph-name="Udieresis" horiz-adv-x="1445" unicode="Ü"/><glyph d="M502 1462l-6 8q-16 23 16 41l301 195q33 20 49 -6l12 -17q16 -25 -14 -43l-317 -178q-29 -16 -41 0zM1192 1331q14 0 19.5 -11t-1.5 -22l-487 -788v-477q0 -33 -31 -33h-14q-31 0 -31 33v477l-416 672q-57 96 -112 102q-35 6 -64 -16q-29 -16 -41 6l-6 10q-12 20 10 39 q39 33 97 33q59 0 102 -37t86 -109l383 -630l442 725q14 27 41 26h23z" glyph-name="Yacute" horiz-adv-x="1298" unicode="Ý"/><glyph d="M238 0q-31 0 -31 33v1265q0 33 31 33h14q31 0 31 -33v-239h376q201 0 314.5 -104.5t113.5 -284.5q0 -178 -114.5 -282.5t-313.5 -104.5h-376v-250q0 -33 -31 -33h-14zM283 348h393q154 0 245 87t91 235q0 145 -91.5 232t-244.5 87h-393v-641z" glyph-name="Thorn" horiz-adv-x="1179" unicode="Þ"/><glyph d="M647 -25q-152 0 -266 84q-31 20 -14 43l8 9q18 20 47 2q94 -72 221 -72q164 0 265.5 92t101.5 250q0 160 -109.5 248t-286.5 88h-30q-27 0 -27 24v13q0 25 27 24h28q137 0 224.5 78t87.5 205t-91.5 207t-234.5 80q-154 0 -251 -104.5t-97 -268.5v-946q0 -31 -29 -31h-16 q-29 0 -29 31v950q0 193 119 314.5t305 121.5q176 0 287.5 -98t111.5 -254q0 -109 -56 -190.5t-152 -118.5q139 -35 216.5 -131.5t77.5 -239.5q0 -186 -122.5 -298t-315.5 -112z" glyph-name="germandbls" horiz-adv-x="1179" unicode="ß"/><glyph d="M383 1417q-33 23 -8 51l8 11q20 23 53 -4l277 -222q29 -25 12 -43l-6 -6q-14 -18 -45 6zM1102 47q14 -25 -6 -41q-37 -31 -97 -31q-55 0 -88.5 37t-33.5 105v55q-59 -94 -164 -145.5t-228 -51.5q-174 0 -281.5 89.5t-107.5 232.5q0 147 115 236.5t301 89.5q197 0 365 -95 v146q0 135 -91.5 221t-240.5 86q-193 0 -355 -150q-23 -20 -43 5l-4 4q-20 25 7 47q180 162 397 162q184 0 292.5 -104.5t108.5 -280.5v-549q0 -76 60 -76q18 0 51 18q23 16 41 -6zM489 43q158 0 273 87t115 232v95q-168 100 -363 100q-154 0 -248 -71.5t-94 -190.5 q0 -113 87 -182.5t230 -69.5z" glyph-name="agrave" horiz-adv-x="1122" unicode="à"/><glyph d="M369 1204l-4 6q-16 20 12 43l276 222q33 29 54 4l6 -11q25 -29 -8 -51l-291 -207q-29 -22 -45 -6zM1102 47q14 -25 -6 -41q-37 -31 -97 -31q-55 0 -88.5 37t-33.5 105v55q-59 -94 -164 -145.5t-228 -51.5q-174 0 -281.5 89.5t-107.5 232.5q0 147 115 236.5t301 89.5 q197 0 365 -95v146q0 135 -91.5 221t-240.5 86q-193 0 -355 -150q-23 -20 -43 5l-4 4q-20 25 7 47q180 162 397 162q184 0 292.5 -104.5t108.5 -280.5v-549q0 -76 60 -76q18 0 51 18q23 16 41 -6zM489 43q158 0 273 87t115 232v95q-168 100 -363 100q-154 0 -248 -71.5 t-94 -190.5q0 -113 87 -182.5t230 -69.5z" glyph-name="aacute" horiz-adv-x="1122" unicode="á"/><glyph d="M276 1214l-6 7q-18 23 13 43l235 172q23 16 45 0l236 -172q35 -20 14 -43l-6 -7q-14 -18 -43 0l-223 150l-222 -150q-29 -18 -43 0zM1102 47q14 -25 -6 -41q-37 -31 -97 -31q-55 0 -88.5 37t-33.5 105v55q-59 -94 -164 -145.5t-228 -51.5q-174 0 -281.5 89.5 t-107.5 232.5q0 147 115 236.5t301 89.5q197 0 365 -95v146q0 135 -91.5 221t-240.5 86q-193 0 -355 -150q-23 -20 -43 5l-4 4q-20 25 7 47q180 162 397 162q184 0 292.5 -104.5t108.5 -280.5v-549q0 -76 60 -76q18 0 51 18q23 16 41 -6zM489 43q158 0 273 87t115 232v95 q-168 100 -363 100q-154 0 -248 -71.5t-94 -190.5q0 -113 87 -182.5t230 -69.5z" glyph-name="acircumflex" horiz-adv-x="1122" unicode="â"/><glyph d="M270 1219q-29 0 -28 28q0 78 37.5 122t103.5 44q63 0 161.5 -65.5t151.5 -65.5q80 0 80 102q0 29 29 29h6q29 0 29 -29q0 -78 -37 -121.5t-103 -43.5q-63 0 -165.5 65.5t-149.5 65.5q-80 0 -80 -103q0 -29 -29 -28h-6zM1102 47q14 -25 -6 -41q-37 -31 -97 -31 q-55 0 -88.5 37t-33.5 105v55q-59 -94 -164 -145.5t-228 -51.5q-174 0 -281.5 89.5t-107.5 232.5q0 147 115 236.5t301 89.5q197 0 365 -95v146q0 135 -91.5 221t-240.5 86q-193 0 -355 -150q-23 -20 -43 5l-4 4q-20 25 7 47q180 162 397 162q184 0 292.5 -104.5 t108.5 -280.5v-549q0 -76 60 -76q18 0 51 18q23 16 41 -6zM489 43q158 0 273 87t115 232v95q-168 100 -363 100q-154 0 -248 -71.5t-94 -190.5q0 -113 87 -182.5t230 -69.5z" glyph-name="atilde" horiz-adv-x="1122" unicode="ã"/><glyph d="M395 1264q-35 0 -57.5 23.5t-22.5 56t22.5 56t57.5 23.5t57.5 -23.5t22.5 -56t-22.5 -56t-57.5 -23.5zM688 1264q-33 0 -56.5 23.5t-23.5 56t23.5 56t56.5 23.5t56.5 -23.5t23.5 -56t-23.5 -56t-56.5 -23.5zM1102 47q14 -25 -6 -41q-37 -31 -97 -31q-55 0 -88.5 37 t-33.5 105v55q-59 -94 -164 -145.5t-228 -51.5q-174 0 -281.5 89.5t-107.5 232.5q0 147 115 236.5t301 89.5q197 0 365 -95v146q0 135 -91.5 221t-240.5 86q-193 0 -355 -150q-23 -20 -43 5l-4 4q-20 25 7 47q180 162 397 162q184 0 292.5 -104.5t108.5 -280.5v-549 q0 -76 60 -76q18 0 51 18q23 16 41 -6zM489 43q158 0 273 87t115 232v95q-168 100 -363 100q-154 0 -248 -71.5t-94 -190.5q0 -113 87 -182.5t230 -69.5z" glyph-name="adieresis" horiz-adv-x="1122" unicode="ä"/><glyph d="M541 1182q-74 0 -124 49t-50 120.5t50 121t124 49.5q76 0 126 -49.5t50 -121t-50 -120.5t-126 -49zM540.5 1462q-51.5 0 -81 -32.5t-29.5 -77.5t29.5 -79t81 -34t82 34t30.5 79t-30.5 77.5t-82 32.5zM1102 47q14 -25 -6 -41q-37 -31 -97 -31q-55 0 -88.5 37t-33.5 105v55 q-59 -94 -164 -145.5t-228 -51.5q-174 0 -281.5 89.5t-107.5 232.5q0 147 115 236.5t301 89.5q197 0 365 -95v146q0 135 -91.5 221t-240.5 86q-193 0 -355 -150q-23 -20 -43 5l-4 4q-20 25 7 47q180 162 397 162q184 0 292.5 -104.5t108.5 -280.5v-549q0 -76 60 -76 q18 0 51 18q23 16 41 -6zM489 43q158 0 273 87t115 232v95q-168 100 -363 100q-154 0 -248 -71.5t-94 -190.5q0 -113 87 -182.5t230 -69.5z" glyph-name="aring" horiz-adv-x="1122" unicode="å"/><glyph d="M485 -25q-174 0 -281.5 89.5t-107.5 232.5q0 147 115 236.5t301 89.5q195 0 365 -95v146q0 137 -92.5 222t-241.5 85q-193 0 -355 -150q-25 -18 -43 5l-4 4q-20 25 6 47q178 162 398 162q158 0 260 -77t129 -208q59 131 176 208t270 77q258 0 394 -205q96 -137 96 -309 q0 -47 -39 -48h-877q8 -199 134 -321.5t311 -122.5q106 0 209.5 49t173.5 133q20 23 43 4l10 -8q20 -20 0 -43q-78 -94 -195.5 -148.5t-240.5 -54.5q-158 0 -285 81t-188 225q-35 -133 -156 -219.5t-285 -86.5zM954 555h840q-10 141 -72 236q-109 190 -340 190 q-180 0 -299 -120t-129 -306zM489 43q164 0 276 98.5t112 233.5v82q-164 100 -363 100q-154 0 -248 -71.5t-94 -190.5q0 -113 88 -182.5t229 -69.5z" glyph-name="ae" horiz-adv-x="1957" unicode="æ"/><glyph d="M1040 221l7 -6q18 -18 -3 -43q-150 -184 -387 -197l-20 -90q205 10 205 -131q0 -68 -50.5 -107.5t-138.5 -39.5q-90 0 -166 47q-35 20 -18 45l4 6q16 25 43 6q72 -45 135 -45q55 0 87 22.5t32 63.5q0 51 -49 70.5t-125 5.5q-20 -4 -29.5 3t-3.5 26q10 39 27 120 q-215 12 -354.5 164t-139.5 371q0 229 150.5 383t380.5 154q258 0 417 -197q20 -25 3 -43l-7 -6q-23 -23 -45 0q-143 178 -364 178q-201 0 -330 -134t-129 -335t129 -335t330 -134q221 0 364 178q22 23 45 0z" glyph-name="ccedilla" horiz-adv-x="1128" unicode="ç"/><glyph d="M449 1417q-33 23 -9 51l9 11q20 23 53 -4l276 -222q29 -25 13 -43l-7 -6q-14 -18 -45 6zM172 487q8 -199 136 -321.5t310 -122.5q106 0 210 49t173 133q20 23 43 4l9 -8q23 -20 0 -43q-76 -94 -194 -148.5t-241 -54.5q-219 0 -370.5 148.5t-151.5 388.5q0 229 141.5 383 t362.5 154q258 0 393 -205q96 -137 97 -309q0 -47 -39 -48h-879zM602 981q-180 0 -300 -120t-130 -306h842q-6 133 -72 236q-113 190 -340 190z" glyph-name="egrave" horiz-adv-x="1177" unicode="è"/><glyph d="M434 1204l-4 6q-16 20 12 43l277 222q33 29 53 4l6 -11q25 -29 -8 -51l-291 -207q-29 -22 -45 -6zM172 487q8 -199 136 -321.5t310 -122.5q106 0 210 49t173 133q20 23 43 4l9 -8q23 -20 0 -43q-76 -94 -194 -148.5t-241 -54.5q-219 0 -370.5 148.5t-151.5 388.5 q0 229 141.5 383t362.5 154q258 0 393 -205q96 -137 97 -309q0 -47 -39 -48h-879zM602 981q-180 0 -300 -120t-130 -306h842q-6 133 -72 236q-113 190 -340 190z" glyph-name="eacute" horiz-adv-x="1177" unicode="é"/><glyph d="M342 1214l-6 7q-18 23 12 43l236 172q23 16 45 0l235 -172q35 -20 15 -43l-7 -7q-14 -18 -43 0l-223 150l-221 -150q-29 -18 -43 0zM172 487q8 -199 136 -321.5t310 -122.5q106 0 210 49t173 133q20 23 43 4l9 -8q23 -20 0 -43q-76 -94 -194 -148.5t-241 -54.5 q-219 0 -370.5 148.5t-151.5 388.5q0 229 141.5 383t362.5 154q258 0 393 -205q96 -137 97 -309q0 -47 -39 -48h-879zM602 981q-180 0 -300 -120t-130 -306h842q-6 133 -72 236q-113 190 -340 190z" glyph-name="ecircumflex" horiz-adv-x="1177" unicode="ê"/><glyph d="M461 1264q-35 0 -57.5 23.5t-22.5 56t22.5 56t57.5 23.5t57.5 -23.5t22.5 -56t-22.5 -56t-57.5 -23.5zM753.5 1264q-32.5 0 -56 23.5t-23.5 56t23.5 56t56 23.5t56.5 -23.5t24 -56t-24 -56t-56.5 -23.5zM172 487q8 -199 136 -321.5t310 -122.5q106 0 210 49t173 133 q20 23 43 4l9 -8q23 -20 0 -43q-76 -94 -194 -148.5t-241 -54.5q-219 0 -370.5 148.5t-151.5 388.5q0 229 141.5 383t362.5 154q258 0 393 -205q96 -137 97 -309q0 -47 -39 -48h-879zM602 981q-180 0 -300 -120t-130 -306h842q-6 133 -72 236q-113 190 -340 190z" glyph-name="edieresis" horiz-adv-x="1177" unicode="ë"/><glyph d="M395 1204q-14 -18 -45 6l-291 207q-33 23 -8 51l8 11q20 23 54 -4l276 -222q29 -25 12 -43zM211 0q-29 0 -29 31v964q0 33 29 33h14q29 0 29 -33v-964q0 -31 -29 -31h-14z" glyph-name="igrave" horiz-adv-x="436" unicode="ì"/><glyph d="M45 1204l-4 6q-16 20 12 43l277 222q33 29 53 4l6 -11q25 -29 -8 -51l-291 -207q-29 -22 -45 -6zM211 0q-29 0 -29 31v964q0 33 29 33h14q29 0 29 -33v-964q0 -31 -29 -31h-14z" glyph-name="iacute" horiz-adv-x="436" unicode="í"/><glyph d="M451 1264q29 -20 12 -43l-6 -7q-14 -18 -39 0l-199 150l-201 -150q-29 -18 -41 0l-4 7q-16 25 13 43l211 172q23 16 41 0zM225 1028q29 0 29 -33v-964q0 -31 -29 -31h-14q-29 0 -29 31v964q0 33 29 33h14z" glyph-name="icircumflex" horiz-adv-x="436" unicode="î"/><glyph d="M71.5 1264q-34.5 0 -57 23.5t-22.5 56t22.5 56t57 23.5t57.5 -23.5t23 -56t-23 -56t-57.5 -23.5zM364.5 1264q-32.5 0 -56 23.5t-23.5 56t23.5 56t56 23.5t56 -23.5t23.5 -56t-23.5 -56t-56 -23.5zM211 0q-29 0 -29 31v964q0 33 29 33h14q29 0 29 -33v-964q0 -31 -29 -31 h-14z" glyph-name="idieresis" horiz-adv-x="436" unicode="ï"/><glyph d="M1071 461v-2q0 -207 -137 -345.5t-348 -138.5t-349.5 138.5t-138.5 345.5q0 205 138.5 343t349.5 138q178 0 307 -100q-82 152 -209 307l-209 -78q-29 -10 -39 14l-2 9q-10 25 19 34l190 70q-66 74 -135 147q-23 25 -2 46l6 6q25 23 47 -4q82 -84 152 -170l223 82 q29 10 37 -13l4 -8q10 -27 -21 -37l-202 -74q319 -403 319 -710zM586 45q180 0 294.5 118t114.5 296t-114.5 294.5t-292.5 116.5q-180 0 -297 -117.5t-117 -293.5q0 -178 116 -296t296 -118z" glyph-name="eth" horiz-adv-x="1167" unicode="ð"/><glyph d="M342 1219q-29 0 -29 28q0 78 38 122t104 44q63 0 161.5 -65.5t151.5 -65.5q80 0 80 102q0 29 29 29h6q29 0 28 -29q0 -78 -36.5 -121.5t-102.5 -43.5q-63 0 -165.5 65.5t-149.5 65.5q-80 0 -80 -103q0 -29 -29 -28h-6zM653 1049q184 0 298 -113t114 -297v-608 q0 -31 -29 -31h-16q-29 0 -29 31v604q0 156 -95 251t-251 95q-164 0 -267.5 -101.5t-103.5 -256.5v-592q0 -31 -28 -31h-17q-29 0 -28 31v878q0 76 -60 76q-23 0 -49 -18q-25 -16 -41 6l-4 4q-14 25 8 41q37 31 97 31q55 0 87.5 -36t32.5 -106v-84q51 104 149.5 165 t231.5 61z" glyph-name="ntilde" horiz-adv-x="1224" unicode="ñ"/><glyph d="M815 1204q-14 -18 -45 6l-291 207q-33 23 -8 51l8 11q20 23 53 -4l277 -222q29 -25 12 -43zM636.5 -25q-233.5 0 -388 155t-154.5 382t154.5 382t388 155t388.5 -155t155 -382t-155 -382t-388.5 -155zM637 43q203 0 335 134t132 335t-132 335t-335 134q-201 0 -334 -134 t-133 -335t133 -335t334 -134z" glyph-name="ograve" horiz-adv-x="1273" unicode="ò"/><glyph d="M465 1204l-4 6q-16 20 12 43l277 222q33 29 53 4l6 -11q25 -29 -8 -51l-291 -207q-29 -22 -45 -6zM636.5 -25q-233.5 0 -388 155t-154.5 382t154.5 382t388 155t388.5 -155t155 -382t-155 -382t-388.5 -155zM637 43q203 0 335 134t132 335t-132 335t-335 134 q-201 0 -334 -134t-133 -335t133 -335t334 -134z" glyph-name="oacute" horiz-adv-x="1273" unicode="ó"/><glyph d="M373 1214l-6 7q-18 23 12 43l235 172q23 16 45 0l236 -172q35 -20 14 -43l-6 -7q-14 -18 -43 0l-223 150l-221 -150q-29 -18 -43 0zM636.5 1049q233.5 0 388.5 -155t155 -382t-155 -382t-388.5 -155t-388 155t-154.5 382t154.5 382t388 155zM637 43q203 0 335 134 t132 335t-132 335t-335 134q-201 0 -334 -134t-133 -335t133 -335t334 -134z" glyph-name="ocircumflex" horiz-adv-x="1273" unicode="ô"/><glyph d="M365 1219q-29 0 -29 28q0 78 38 122t103 44q63 0 161.5 -65.5t152.5 -65.5q80 0 79 102q0 29 29 29h6q29 0 29 -29q0 -78 -37 -121.5t-102 -43.5q-63 0 -166 65.5t-150 65.5q-80 0 -80 -103q0 -29 -28 -28h-6zM636.5 -25q-233.5 0 -388 155t-154.5 382t154.5 382t388 155 t388.5 -155t155 -382t-155 -382t-388.5 -155zM637 43q203 0 335 134t132 335t-132 335t-335 134q-201 0 -334 -134t-133 -335t133 -335t334 -134z" glyph-name="otilde" horiz-adv-x="1273" unicode="õ"/><glyph d="M491.5 1264q-32.5 0 -56 23.5t-23.5 56t23.5 56t56 23.5t56 -23.5t23.5 -56t-23.5 -56t-56 -23.5zM784.5 1264q-34.5 0 -57 23.5t-22.5 56t22.5 56t57 23.5t57 -23.5t22.5 -56t-22.5 -56t-57 -23.5zM636.5 -25q-233.5 0 -388 155t-154.5 382t154.5 382t388 155 t388.5 -155t155 -382t-155 -382t-388.5 -155zM637 43q203 0 335 134t132 335t-132 335t-335 134q-201 0 -334 -134t-133 -335t133 -335t334 -134z" glyph-name="odieresis" horiz-adv-x="1273" unicode="ö"/><glyph d="M567 860q-35 0 -58.5 24.5t-23.5 57.5t25 56.5t57.5 23.5t56 -23.5t23.5 -56.5t-23.5 -57.5t-56.5 -24.5zM176 586q-29 0 -29 26v6q0 29 29 29h768q31 0 31 -29v-6q0 -27 -31 -26h-768zM567 205q-35 0 -58.5 23.5t-23.5 56.5q0 35 23.5 58.5t58.5 23.5q33 0 56.5 -25 t23.5 -57.5t-23.5 -56t-56.5 -23.5z" glyph-name="divide" horiz-adv-x="1120" unicode="÷"/><glyph d="M975 938q205 -158 205 -426q0 -227 -155 -382t-388 -155q-154 0 -283 74l-80 -115q-18 -29 -45 -28h-22q-33 0 -14 28l106 152q-205 158 -205 426q0 227 154.5 382t388.5 155q154 0 283 -74l98 141q18 29 45 29h22q33 0 15 -29zM170 512q0 -233 170 -367l539 773 q-109 63 -242 63q-201 0 -334 -134t-133 -335zM637 43q203 0 335 134t132 335q0 231 -170 369l-539 -775q109 -63 242 -63z" glyph-name="oslash" horiz-adv-x="1273" unicode="ø"/><glyph d="M424 1417q-33 23 -8 51l8 11q20 23 53 -4l277 -222q29 -25 12 -43l-6 -6q-14 -18 -45 6zM1153 47q14 -25 -6 -41q-37 -31 -96 -31q-55 0 -89 37t-34 105v82q-49 -104 -145.5 -164t-229.5 -60q-172 0 -282.5 113t-110.5 297v610q0 33 28 33h17q29 0 28 -33v-610 q0 -152 92.5 -247t235.5 -95q164 0 265.5 102.5t101.5 257.5v592q0 33 28 33h15q29 0 28 -33v-880q0 -76 60 -76q23 0 51 18q25 16 41 -6z" glyph-name="ugrave" horiz-adv-x="1200" unicode="ù"/><glyph d="M410 1204l-4 6q-16 20 12 43l276 222q33 29 54 4l6 -11q25 -29 -9 -51l-290 -207q-29 -22 -45 -6zM1153 47q14 -25 -6 -41q-37 -31 -96 -31q-55 0 -89 37t-34 105v82q-49 -104 -145.5 -164t-229.5 -60q-172 0 -282.5 113t-110.5 297v610q0 33 28 33h17q29 0 28 -33v-610 q0 -152 92.5 -247t235.5 -95q164 0 265.5 102.5t101.5 257.5v592q0 33 28 33h15q29 0 28 -33v-880q0 -76 60 -76q23 0 51 18q25 16 41 -6z" glyph-name="uacute" horiz-adv-x="1200" unicode="ú"/><glyph d="M319 1214l-6 7q-18 23 13 43l235 172q23 16 45 0l236 -172q35 -20 14 -43l-6 -7q-14 -18 -43 0l-223 150l-222 -150q-29 -18 -43 0zM1153 47q14 -25 -6 -41q-37 -31 -96 -31q-55 0 -89 37t-34 105v82q-49 -104 -145.5 -164t-229.5 -60q-172 0 -282.5 113t-110.5 297v610 q0 33 28 33h17q29 0 28 -33v-610q0 -152 92.5 -247t235.5 -95q164 0 265.5 102.5t101.5 257.5v592q0 33 28 33h15q29 0 28 -33v-880q0 -76 60 -76q23 0 51 18q25 16 41 -6z" glyph-name="ucircumflex" horiz-adv-x="1200" unicode="û"/><glyph d="M436 1264q-35 0 -57.5 23.5t-22.5 56t22.5 56t57.5 23.5t57.5 -23.5t22.5 -56t-22.5 -56t-57.5 -23.5zM729 1264q-33 0 -56.5 23.5t-23.5 56t23.5 56t56.5 23.5t56.5 -23.5t23.5 -56t-23.5 -56t-56.5 -23.5zM1153 47q14 -25 -6 -41q-37 -31 -96 -31q-55 0 -89 37t-34 105 v82q-49 -104 -145.5 -164t-229.5 -60q-172 0 -282.5 113t-110.5 297v610q0 33 28 33h17q29 0 28 -33v-610q0 -152 92.5 -247t235.5 -95q164 0 265.5 102.5t101.5 257.5v592q0 33 28 33h15q29 0 28 -33v-880q0 -76 60 -76q23 0 51 18q25 16 41 -6z" glyph-name="udieresis" horiz-adv-x="1200" unicode="ü"/><glyph d="M442 1204l-4 6q-16 20 13 43l276 222q33 29 53 4l6 -11q25 -29 -8 -51l-291 -207q-29 -22 -45 -6zM1059 1028q14 0 19 -10t1 -21l-532 -1192q-80 -180 -228 -180q-70 0 -122 35q-29 16 -17 39l4 8q12 27 47 8q45 -27 88 -26q100 0 160 129l96 215l-376 858 q-20 49 -39 71.5t-47 22.5q-25 0 -54 -20q-25 -16 -41 8l-2 2q-16 25 7 43q39 31 94 31t87 -34t62 -102l350 -792l385 878q10 29 35 29h23z" glyph-name="yacute" horiz-adv-x="1128" unicode="ý"/><glyph d="M690 1049q225 0 369.5 -154t144.5 -383t-144.5 -383t-369.5 -154q-147 0 -261 70t-179 191v-584q0 -27 -27 -27h-18q-29 0 -29 27v1653q0 27 29 26h16q27 0 27 -26v-519q66 121 180.5 192t261.5 71zM686 43q195 0 318.5 134t123.5 335q0 199 -123.5 334t-318.5 135 q-190 0 -316 -131t-126 -338t124.5 -338t317.5 -131z" glyph-name="thorn" horiz-adv-x="1302" unicode="þ"/><glyph d="M469 1264q-35 0 -57.5 23.5t-22.5 56t22.5 56t57.5 23.5t57.5 -23.5t22.5 -56t-22.5 -56t-57.5 -23.5zM762 1264q-33 0 -56.5 23.5t-23.5 56t23.5 56t56.5 23.5t56.5 -23.5t23.5 -56t-23.5 -56t-56.5 -23.5zM1059 1028q14 0 19 -10t1 -21l-532 -1192q-80 -180 -228 -180 q-70 0 -122 35q-29 16 -17 39l4 8q12 27 47 8q45 -27 88 -26q100 0 160 129l96 215l-376 858q-20 49 -39 71.5t-47 22.5q-25 0 -54 -20q-25 -16 -41 8l-2 2q-16 25 7 43q39 31 94 31t87 -34t62 -102l350 -792l385 878q10 29 35 29h23z" glyph-name="ydieresis" horiz-adv-x="1128" unicode="ÿ"/><glyph d="M420 1540q-31 0 -31 29v8q0 27 31 27h500q31 0 30 -27v-8q0 -29 -30 -29h-500zM1421 47q14 -23 -10 -41q-37 -31 -90 -31q-51 0 -90 31q-37 29 -74 111l-94 215h-791l-133 -303q-14 -29 -35 -29h-22q-16 0 -21.5 9t2.5 24l572 1286q10 23 31 22h6q23 0 33 -22l526 -1186 q39 -86 88 -88q31 0 57 18q27 14 39 -6zM303 399h729l-364 830z" glyph-name="Amacron" horiz-adv-x="1419" unicode="Ā"/><glyph d="M297 1294q-31 0 -31 29v10q0 29 31 29h491q31 0 31 -29v-10q0 -29 -31 -29h-491zM1102 47q14 -25 -6 -41q-37 -31 -97 -31q-55 0 -88.5 37t-33.5 105v55q-59 -94 -164 -145.5t-228 -51.5q-174 0 -281.5 89.5t-107.5 232.5q0 147 115 236.5t301 89.5q197 0 365 -95v146 q0 135 -91.5 221t-240.5 86q-193 0 -355 -150q-23 -20 -43 5l-4 4q-20 25 7 47q180 162 397 162q184 0 292.5 -104.5t108.5 -280.5v-549q0 -76 60 -76q18 0 51 18q23 16 41 -6zM489 43q158 0 273 87t115 232v95q-168 100 -363 100q-154 0 -248 -71.5t-94 -190.5 q0 -113 87 -182.5t230 -69.5z" glyph-name="amacron" horiz-adv-x="1122" unicode="ā"/><glyph d="M670 1450q-106 0 -184 68.5t-78 175.5q0 31 30 30h8q29 0 29 -30q0 -82 57.5 -131.5t137.5 -49.5t136 49.5t56 131.5q0 31 31 30h8q31 0 31 -30q0 -106 -79 -175t-183 -69zM1421 47q14 -23 -10 -41q-37 -31 -90 -31q-51 0 -90 31q-37 29 -74 111l-94 215h-791l-133 -303 q-14 -29 -35 -29h-22q-16 0 -21.5 9t2.5 24l572 1286q10 23 31 22h6q23 0 33 -22l526 -1186q39 -86 88 -88q31 0 57 18q27 14 39 -6zM303 399h729l-364 830z" glyph-name="Abreve" horiz-adv-x="1419" unicode="Ă"/><glyph d="M542.5 1192q-102.5 0 -175 60.5t-86.5 166.5q-6 29 24 29h10q25 0 33 -29q31 -164 195 -164q74 0 126 42t66 122q6 29 33 29h10q33 0 25 -29q-14 -106 -86 -166.5t-174.5 -60.5zM1102 47q14 -25 -6 -41q-37 -31 -97 -31q-55 0 -88.5 37t-33.5 105v55q-59 -94 -164 -145.5 t-228 -51.5q-174 0 -281.5 89.5t-107.5 232.5q0 147 115 236.5t301 89.5q197 0 365 -95v146q0 135 -91.5 221t-240.5 86q-193 0 -355 -150q-23 -20 -43 5l-4 4q-20 25 7 47q180 162 397 162q184 0 292.5 -104.5t108.5 -280.5v-549q0 -76 60 -76q18 0 51 18q23 16 41 -6z M489 43q158 0 273 87t115 232v95q-168 100 -363 100q-154 0 -248 -71.5t-94 -190.5q0 -113 87 -182.5t230 -69.5z" glyph-name="abreve" horiz-adv-x="1122" unicode="ă"/><glyph d="M1421 47q14 -23 -10 -41q-37 -31 -90 -31h-12q-139 -70 -140 -180q0 -78 60.5 -106.5t132.5 -1.5q27 8 37 -13l2 -6q12 -25 -21 -37q-98 -39 -187 7.5t-89 148.5q0 123 149 205q-16 8 -22 14q-37 29 -74 111l-94 215h-791l-133 -303q-14 -29 -35 -29h-22q-16 0 -21.5 9 t2.5 24l572 1286q10 23 31 22h6q23 0 33 -22l526 -1186q39 -86 88 -88q31 0 57 18q27 14 39 -6zM303 399h729l-364 830z" glyph-name="Aogonek" horiz-adv-x="1419" unicode="Ą"/><glyph d="M1120 -322q12 -25 -20 -36q-98 -39 -187.5 7t-89.5 148q0 113 123 189q-70 33 -69 131v55q-59 -94 -164 -145.5t-228 -51.5q-174 0 -281.5 89.5t-107.5 232.5q0 147 115 236.5t301 89.5q197 0 365 -95v146q0 135 -91.5 221t-240.5 86q-193 0 -355 -150q-23 -20 -43 5 l-4 4q-20 25 7 47q180 162 397 162q184 0 292.5 -104.5t108.5 -280.5v-549q0 -76 60 -76q18 0 51 18q23 16 41 -6l2 -4q14 -25 -6 -41q-33 -27 -88 -31q-119 -66 -119 -170q0 -78 60.5 -106.5t131.5 -1.5q27 8 37 -12zM489 43q158 0 273 87t115 232v95q-168 100 -363 100 q-154 0 -248 -71.5t-94 -190.5q0 -113 87 -182.5t230 -69.5z" glyph-name="aogonek" horiz-adv-x="1122" unicode="ą"/><glyph d="M618 1462l-6 8q-16 23 17 41l301 195q33 20 49 -6l12 -17q16 -25 -14 -43l-318 -178q-29 -16 -41 0zM801 -25q-299 0 -499 199t-200 491.5t200 491.5t499 199q160 0 298 -63.5t230 -176.5q25 -25 0 -41l-14 -10q-23 -16 -43 8q-84 98 -208 155.5t-265 57.5 q-262 0 -441.5 -179t-179.5 -441.5t179.5 -441.5t441.5 -179q141 0 265 57.5t208 155.5q20 25 43 8l14 -10q25 -16 0 -41q-92 -113 -230 -176.5t-298 -63.5z" glyph-name="Cacute" horiz-adv-x="1417" unicode="Ć"/><glyph d="M444 1204l-4 6q-16 20 13 43l276 222q33 29 53 4l6 -11q25 -29 -8 -51l-291 -207q-29 -22 -45 -6zM627 -25q-229 0 -380 154t-151 383t150.5 383t380.5 154q258 0 417 -197q20 -25 3 -43l-7 -6q-23 -23 -45 0q-143 178 -364 178q-201 0 -330 -134t-129 -335t129 -335 t330 -134q221 0 364 178q23 23 45 0l7 -6q18 -18 -3 -43q-159 -197 -417 -197z" glyph-name="cacute" horiz-adv-x="1128" unicode="ć"/><glyph d="M801 1505q-35 0 -58.5 23.5t-23.5 58.5t23.5 58.5t58.5 23.5t58.5 -23.5t23.5 -58.5t-23.5 -58.5t-58.5 -23.5zM801 -25q-299 0 -499 199t-200 491.5t200 491.5t499 199q160 0 298 -63.5t230 -176.5q25 -25 0 -41l-14 -10q-23 -16 -43 8q-84 98 -208 155.5t-265 57.5 q-262 0 -441.5 -179t-179.5 -441.5t179.5 -441.5t441.5 -179q141 0 265 57.5t208 155.5q20 25 43 8l14 -10q25 -16 0 -41q-92 -113 -230 -176.5t-298 -63.5z" glyph-name="Cdotaccent" horiz-adv-x="1417" unicode="Ċ"/><glyph d="M616.5 1264q-34.5 0 -57 23.5t-22.5 56t22.5 56t57 23.5t58 -23.5t23.5 -56t-23.5 -56t-58 -23.5zM627 -25q-229 0 -380 154t-151 383t150.5 383t380.5 154q258 0 417 -197q20 -25 3 -43l-7 -6q-23 -23 -45 0q-143 178 -364 178q-201 0 -330 -134t-129 -335t129 -335 t330 -134q221 0 364 178q23 23 45 0l7 -6q18 -18 -3 -43q-159 -197 -417 -197z" glyph-name="cdotaccent" horiz-adv-x="1128" unicode="ċ"/><glyph d="M532 1634q-33 23 -16 43l6 9q14 16 45 0l234 -152l231 152q31 16 45 0l6 -9q16 -20 -16 -43l-244 -176q-25 -14 -47 0zM1329 256q25 -16 0 -41q-92 -113 -230 -176.5t-298 -63.5q-299 0 -499 199t-200 491.5t200 491.5t499 199q160 0 298 -63.5t230 -176.5q25 -25 0 -41 l-14 -10q-23 -16 -43 8q-84 98 -208 155.5t-265 57.5q-262 0 -441.5 -179t-179.5 -441.5t179.5 -441.5t441.5 -179q141 0 265 57.5t208 155.5q20 25 43 8z" glyph-name="Ccaron" horiz-adv-x="1417" unicode="Č"/><glyph d="M356 1372q-31 25 -12 45l6 6q14 18 43 0l221 -149l224 149q27 18 43 0l6 -6q18 -23 -15 -45l-235 -170q-23 -16 -45 0zM1040 221l7 -6q18 -18 -3 -43q-160 -197 -417 -197q-229 0 -380 154t-151 383t150.5 383t380.5 154q258 0 417 -197q20 -25 3 -43l-7 -6 q-23 -23 -45 0q-143 178 -364 178q-201 0 -330 -134t-129 -335t129 -335t330 -134q221 0 364 178q22 23 45 0z" glyph-name="ccaron" horiz-adv-x="1128" unicode="č"/><glyph d="M399 1634q-33 23 -16 43l6 9q14 16 45 0l234 -152l231 152q31 16 45 0l6 -9q16 -20 -16 -43l-244 -176q-25 -14 -47 0zM682 1331q315 0 498.5 -182t183.5 -483t-183.5 -483.5t-498.5 -182.5h-446q-29 0 -29 29v1274q0 29 29 28h446zM684 68q281 0 442.5 162.5t161.5 435 t-161.5 435.5t-442.5 163h-401v-1196h401z" glyph-name="Dcaron" horiz-adv-x="1470" unicode="Ď"/><glyph d="M1276 51l2 -4q14 -25 -6 -41q-37 -31 -94.5 -31t-91 37t-33.5 105v121q-63 -121 -178 -192t-265 -71q-223 0 -368.5 155t-145.5 382t145.5 382t368.5 155q145 0 261 -69t182 -187v628q0 20 24 29l19 6q29 8 28 -24v-1317q0 -76 60 -76q18 0 51 18q23 17 41 -6zM1350 1456 q35 0 24 -31l-78 -288q-8 -29 -28 -29h-6q-29 0 -21 29l55 288q2 31 35 31h19zM614 43q193 0 318 131t125 338t-125 338t-316 131q-195 0 -319.5 -135t-124.5 -334t123.5 -334t318.5 -135z" glyph-name="dcaron" horiz-adv-x="1339" unicode="ď"/><glyph d="M686 1331q315 0 498.5 -182t183.5 -483t-183.5 -483.5t-498.5 -182.5h-455q-23 0 -22 29v608h-115q-31 0 -31 31v8q0 29 31 29h115v598q0 29 29 28h448zM688 68q279 0 440.5 163.5t161.5 434t-161.5 434.5t-440.5 164h-403v-559h456q31 0 31 -29v-8q0 -31 -31 -31h-456 v-569h403z" glyph-name="Dcroat" horiz-adv-x="1474" unicode="Đ"/><glyph d="M1278 47q14 -25 -6 -41q-37 -31 -94.5 -31t-91 37t-33.5 105v121q-63 -121 -178 -192t-265 -71q-223 0 -368.5 155t-145.5 382t145.5 382t368.5 155q145 0 261 -69t182 -187v387h-340q-33 0 -33 24v4q0 27 33 27h340v186q0 20 24 29l19 6q29 8 28 -24v-197h99 q33 0 32 -25v-6q0 -25 -32 -24h-99v-1065q0 -76 60 -76q18 0 51 18q23 16 41 -6zM614 43q193 0 318 131t125 338t-125 338t-316 131q-195 0 -319.5 -135t-124.5 -334t123.5 -334t318.5 -135z" glyph-name="dcroat" horiz-adv-x="1320" unicode="đ"/><glyph d="M381 1540q-31 0 -31 29v8q0 27 31 27h500q31 0 30 -27v-8q0 -29 -30 -29h-500zM236 0q-29 0 -29 29v1274q0 29 29 28h788q31 0 31 -28v-11q0 -29 -31 -28h-741v-557h581q31 0 31 -29v-10q0 -29 -31 -29h-581v-571h741q31 0 31 -29v-10q0 -29 -31 -29h-788z" glyph-name="Emacron" horiz-adv-x="1134" unicode="Ē"/><glyph d="M362 1294q-31 0 -30 29v10q0 29 30 29h492q31 0 31 -29v-10q0 -29 -31 -29h-492zM172 487q8 -199 136 -321.5t310 -122.5q106 0 210 49t173 133q20 23 43 4l9 -8q23 -20 0 -43q-76 -94 -194 -148.5t-241 -54.5q-219 0 -370.5 148.5t-151.5 388.5q0 229 141.5 383 t362.5 154q258 0 393 -205q96 -137 97 -309q0 -47 -39 -48h-879zM602 981q-180 0 -300 -120t-130 -306h842q-6 133 -72 236q-113 190 -340 190z" glyph-name="emacron" horiz-adv-x="1177" unicode="ē"/><glyph d="M631 1505q-33 0 -57.5 23.5t-24.5 58.5t24.5 58.5t57.5 23.5t57.5 -23.5t24.5 -58.5t-24.5 -58.5t-57.5 -23.5zM236 0q-29 0 -29 29v1274q0 29 29 28h788q31 0 31 -28v-11q0 -29 -31 -28h-741v-557h581q31 0 31 -29v-10q0 -29 -31 -29h-581v-571h741q31 0 31 -29v-10 q0 -29 -31 -29h-788z" glyph-name="Edotaccent" horiz-adv-x="1134" unicode="Ė"/><glyph d="M608 1264q-35 0 -57.5 23.5t-22.5 56t22.5 56t57.5 23.5t58.5 -23.5t23.5 -56t-23.5 -56t-58.5 -23.5zM172 487q8 -199 136 -321.5t310 -122.5q106 0 210 49t173 133q20 23 43 4l9 -8q23 -20 0 -43q-76 -94 -194 -148.5t-241 -54.5q-219 0 -370.5 148.5t-151.5 388.5 q0 229 141.5 383t362.5 154q258 0 393 -205q96 -137 97 -309q0 -47 -39 -48h-879zM602 981q-180 0 -300 -120t-130 -306h842q-6 133 -72 236q-113 190 -340 190z" glyph-name="edotaccent" horiz-adv-x="1177" unicode="ė"/><glyph d="M1067 -315q12 -25 -20 -37q-98 -39 -187.5 7t-89.5 148q0 115 135 197h-669q-29 0 -29 29v1274q0 29 29 28h788q31 0 31 -28v-11q0 -29 -31 -28h-741v-557h581q31 0 31 -29v-10q0 -29 -31 -29h-581v-571h741q31 0 31 -29v-10q0 -29 -31 -29h-33q-156 -68 -155 -188 q0 -78 60 -107t132 -2q27 8 37 -12z" glyph-name="Eogonek" horiz-adv-x="1134" unicode="Ę"/><glyph d="M172 487q8 -199 136 -321.5t310 -122.5q106 0 210 49t173 133q20 23 43 4l9 -8q23 -20 0 -43q-106 -131 -283 -180q-94 -66 -94 -156q0 -78 60.5 -106.5t131.5 -1.5q27 8 37 -13l2 -6q12 -25 -20 -37q-98 -39 -187.5 7.5t-89.5 148.5q0 80 66 146q-37 -4 -58 -5 q-219 0 -370.5 148.5t-151.5 388.5q0 229 141.5 383t362.5 154q258 0 393 -205q96 -137 97 -309q0 -47 -39 -48h-879zM602 981q-180 0 -300 -120t-130 -306h842q-6 133 -72 236q-113 190 -340 190z" glyph-name="eogonek" horiz-adv-x="1177" unicode="ę"/><glyph d="M362 1634q-33 23 -16 43l6 9q14 16 45 0l234 -152l231 152q31 16 45 0l6 -9q16 -20 -16 -43l-244 -176q-25 -14 -47 0zM1024 1264h-741v-557h581q31 0 31 -29v-10q0 -29 -31 -29h-581v-571h741q31 0 31 -29v-10q0 -29 -31 -29h-788q-29 0 -29 29v1274q0 29 29 28h788 q31 0 31 -28v-11q0 -28 -31 -28z" glyph-name="Ecaron" horiz-adv-x="1134" unicode="Ě"/><glyph d="M348 1372q-31 25 -12 45l6 6q14 18 43 0l221 -149l223 149q27 18 43 0l7 -6q18 -23 -15 -45l-235 -170q-23 -16 -45 0zM172 487q8 -199 136 -321.5t310 -122.5q106 0 210 49t173 133q20 23 43 4l9 -8q23 -20 0 -43q-76 -94 -194 -148.5t-241 -54.5q-219 0 -370.5 148.5 t-151.5 388.5q0 229 141.5 383t362.5 154q258 0 393 -205q96 -137 97 -309q0 -47 -39 -48h-879zM602 981q-180 0 -300 -120t-130 -306h842q-6 133 -72 236q-113 190 -340 190z" glyph-name="ecaron" horiz-adv-x="1177" unicode="ě"/><glyph d="M780 1450q-106 0 -184 68.5t-78 175.5q0 31 31 30h8q29 0 29 -30q0 -82 57 -131.5t137 -49.5t136.5 49.5t56.5 131.5q0 31 31 30h8q31 0 30 -30q0 -106 -79 -175t-183 -69zM780 -25q-287 0 -482.5 199t-195.5 491.5t198 491.5t486 199q160 0 299.5 -62.5t231.5 -175.5 q20 -25 -4 -43l-15 -10q-25 -16 -43 8q-82 98 -205.5 155.5t-265.5 57.5q-254 0 -430 -179t-176 -441.5t176 -441.5t428 -179q262 0 441 188q154 164 153 383h-551q-31 0 -30 29v12q0 27 30 27h598q31 0 31 -29v-20q0 -266 -180 -453q-201 -207 -494 -207z" glyph-name="Gbreve" horiz-adv-x="1540" unicode="Ğ"/><glyph d="M596 1192q-102 0 -175 60.5t-87 166.5q-6 29 24 29h11q25 0 32 -29q31 -164 195 -164q74 0 126 42t66 122q6 29 33 29h10q33 0 25 -29q-14 -106 -86 -166.5t-174 -60.5zM1202 1018q23 -18 6 -41l-2 -4q-16 -23 -41 -6q-27 18 -51 18q-57 0 -57 -76v-823q0 -221 -130 -341 t-345 -120q-293 0 -451 223q-18 25 6 46l8 4q25 18 43 -7q133 -199 396 -198q184 0 291.5 104.5t107.5 290.5v240q-61 -104 -166.5 -164t-238.5 -60q-207 0 -343.5 135.5t-136.5 338.5q0 199 137.5 335t342.5 136q133 0 238.5 -60.5t166.5 -165.5v84q0 68 34 105t89 37 q59 0 96 -31zM580 172q178 0 291.5 114.5t113.5 289t-113.5 290t-293.5 115.5q-176 0 -290 -115.5t-114 -287.5q0 -176 113 -291t293 -115z" glyph-name="gbreve" horiz-adv-x="1253" unicode="ğ"/><glyph d="M778 1505q-33 0 -57.5 23.5t-24.5 58.5t24.5 58.5t57.5 23.5t57.5 -23.5t24.5 -58.5t-24.5 -58.5t-57.5 -23.5zM780 -25q-287 0 -482.5 199t-195.5 491.5t198 491.5t486 199q160 0 299.5 -62.5t231.5 -175.5q20 -25 -4 -43l-15 -10q-25 -16 -43 8q-82 98 -205.5 155.5 t-265.5 57.5q-254 0 -430 -179t-176 -441.5t176 -441.5t428 -179q262 0 441 188q154 164 153 383h-551q-31 0 -30 29v12q0 27 30 27h598q31 0 31 -29v-20q0 -266 -180 -453q-201 -207 -494 -207z" glyph-name="Gdotaccent" horiz-adv-x="1540" unicode="Ġ"/><glyph d="M596 1264q-35 0 -57.5 23.5t-22.5 56t22.5 56t57.5 23.5t58.5 -23.5t23.5 -56t-23.5 -56t-58.5 -23.5zM1202 1018q23 -18 6 -41l-2 -4q-16 -23 -41 -6q-27 18 -51 18q-57 0 -57 -76v-823q0 -221 -130 -341t-345 -120q-293 0 -451 223q-18 25 6 46l8 4q25 18 43 -7 q133 -199 396 -198q184 0 291.5 104.5t107.5 290.5v240q-61 -104 -166.5 -164t-238.5 -60q-207 0 -343.5 135.5t-136.5 338.5q0 199 137.5 335t342.5 136q133 0 238.5 -60.5t166.5 -165.5v84q0 68 34 105t89 37q59 0 96 -31zM580 172q178 0 291.5 114.5t113.5 289 t-113.5 290t-293.5 115.5q-176 0 -290 -115.5t-114 -287.5q0 -176 113 -291t293 -115z" glyph-name="gdotaccent" horiz-adv-x="1253" unicode="ġ"/><glyph d="M780 -25q-287 0 -482.5 199t-195.5 491.5t198 491.5t486 199q160 0 299.5 -62.5t231.5 -175.5q20 -25 -4 -43l-15 -10q-25 -16 -43 8q-82 98 -205.5 155.5t-265.5 57.5q-254 0 -430 -179t-176 -441.5t176 -441.5t428 -179q262 0 441 188q154 164 153 383h-551 q-31 0 -30 29v12q0 27 30 27h598q31 0 31 -29v-20q0 -266 -180 -453q-201 -207 -494 -207zM725 -412q-25 0 -20 29l45 240q6 31 36 30h19q35 0 24 -30l-67 -240q-8 -29 -29 -29h-8z" glyph-name="Gcommaaccent" horiz-adv-x="1540" unicode="Ģ"/><glyph d="M590 1196q-33 0 -23 33l76 278q8 29 29 29h6q27 0 20 -29l-53 -280q-6 -31 -35 -31h-20zM1202 1018q23 -18 6 -41l-2 -4q-16 -23 -41 -6q-27 18 -51 18q-57 0 -57 -76v-823q0 -221 -130 -341t-345 -120q-293 0 -451 223q-18 25 6 46l8 4q25 18 43 -7q133 -199 396 -198 q184 0 291.5 104.5t107.5 290.5v240q-61 -104 -166.5 -164t-238.5 -60q-207 0 -343.5 135.5t-136.5 338.5q0 199 137.5 335t342.5 136q133 0 238.5 -60.5t166.5 -165.5v84q0 68 34 105t89 37q59 0 96 -31zM580 172q178 0 291.5 114.5t113.5 289t-113.5 290t-293.5 115.5 q-176 0 -290 -115.5t-114 -287.5q0 -176 113 -291t293 -115z" glyph-name="gcommaaccent" horiz-adv-x="1253" unicode="ģ"/><glyph d="M1329 1047q31 0 31 -27v-8q0 -27 -31 -27h-92v-952q0 -33 -31 -33h-16q-29 0 -29 33v606h-874v-606q0 -33 -31 -33h-14q-31 0 -31 33v952h-94q-31 0 -31 27v8q0 27 31 27h94v251q0 33 31 33h14q31 0 31 -33v-251h874v251q0 33 29 33h16q31 0 31 -33v-251h92zM1161 707 v278h-874v-278h874z" glyph-name="Hbar" horiz-adv-x="1435" unicode="Ħ"/><glyph d="M627 1049q184 0 296.5 -113t112.5 -297v-608q0 -31 -28 -31h-15q-29 0 -28 31v604q0 156 -95.5 251t-253.5 95q-164 0 -267 -101.5t-103 -256.5v-592q0 -31 -29 -31h-14q-29 0 -29 31v1149h-119q-33 0 -32 24v4q0 27 32 27h119v186q0 20 25 29l18 6q29 8 29 -24v-197h317 q33 0 33 -25v-6q0 -25 -33 -24h-317v-344q53 98 152.5 155.5t228.5 57.5z" glyph-name="hbar" horiz-adv-x="1198" unicode="ħ"/><glyph d="M-20 1450q-27 0 -27 29q0 78 39 123t100 45q57 0 153.5 -67t145.5 -67q37 0 59.5 27t22.5 78q0 31 27 31h6q27 0 26 -31q0 -78 -38.5 -123t-100 -45t-159 67.5t-140.5 67.5q-37 0 -59.5 -27.5t-22.5 -78.5q0 -29 -26 -29h-6zM236 0q-29 0 -29 33v1265q0 33 29 33h16 q31 0 31 -33v-1265q0 -33 -31 -33h-16z" glyph-name="Itilde" horiz-adv-x="487" unicode="Ĩ"/><glyph d="M-29 1219q-25 0 -24 28q0 78 32.5 122t94.5 44q57 0 145 -65.5t137 -65.5q74 0 74 102q0 29 25 29h6q25 0 24 -29q0 -78 -32.5 -121.5t-92.5 -43.5q-57 0 -149 65.5t-135 65.5q-74 0 -74 -103q0 -29 -25 -28h-6zM211 0q-29 0 -29 31v964q0 33 29 33h14q29 0 29 -33v-964 q0 -31 -29 -31h-14z" glyph-name="itilde" horiz-adv-x="436" unicode="ĩ"/><glyph d="M-6 1540q-31 0 -31 29v8q0 27 31 27h500q31 0 30 -27v-8q0 -29 -30 -29h-500zM236 0q-29 0 -29 33v1265q0 33 29 33h16q31 0 31 -33v-1265q0 -33 -31 -33h-16z" glyph-name="Imacron" horiz-adv-x="487" unicode="Ī"/><glyph d="M-4 1294q-29 0 -29 29v10q0 29 29 29h446q27 0 27 -29v-10q0 -29 -27 -29h-446zM211 0q-29 0 -29 31v964q0 33 29 33h14q29 0 29 -33v-964q0 -31 -29 -31h-14z" glyph-name="imacron" horiz-adv-x="436" unicode="ī"/><glyph d="M315 -315q12 -25 -20 -37q-98 -39 -187.5 7t-89.5 148q0 84 61.5 140.5t127.5 83.5v6v1265q0 33 29 33h16q31 0 31 -33v-1265q0 -33 -31 -33h-12q-156 -68 -156 -188q0 -78 60.5 -107t131.5 -2q27 8 37 -12z" glyph-name="Iogonek" horiz-adv-x="487" unicode="Į"/><glyph d="M217 1264q-33 0 -56.5 23.5t-23.5 56t23.5 56t56.5 23.5q35 0 58.5 -23.5t23.5 -56t-23.5 -56t-58.5 -23.5zM297 -313q12 -25 -21 -37q-98 -39 -187 7t-89 148q0 80 57.5 136.5t124.5 85.5v4v964q0 33 29 33h14q29 0 29 -33v-964q0 -31 -29 -31h-8q-57 -25 -104 -72 t-47 -114q0 -78 60 -107t132 -2q27 8 37 -12z" glyph-name="iogonek" horiz-adv-x="436" unicode="į"/><glyph d="M244 1505q-35 0 -58.5 23.5t-23.5 58.5t23.5 58.5t58.5 23.5t58.5 -23.5t23.5 -58.5t-23.5 -58.5t-58.5 -23.5zM236 0q-29 0 -29 33v1265q0 33 29 33h16q31 0 31 -33v-1265q0 -33 -31 -33h-16z" glyph-name="Idotaccent" horiz-adv-x="487" unicode="İ"/><glyph d="M211 0q-29 0 -29 31v964q0 33 29 33h14q29 0 29 -33v-964q0 -31 -29 -31h-14z" glyph-name="dotlessi" horiz-adv-x="436" unicode="ı"/><glyph d="M236 0q-29 0 -29 33v1265q0 33 29 33h16q31 0 31 -33v-1265q0 -33 -31 -33h-16zM750 -25q-221 0 -365 189q-23 29 0 45l14 10q23 16 45 -8q125 -166 304 -166q133 0 219 85t86 226v942q0 33 28 33h17q31 0 30 -33v-942q0 -174 -108 -277.5t-270 -103.5z" glyph-name="IJ" horiz-adv-x="1316" unicode="Ĳ"/><glyph d="M219 1264q-35 0 -57.5 23.5t-22.5 56t22.5 56t57.5 23.5t58.5 -23.5t23.5 -56t-23.5 -56t-58.5 -23.5zM606 1264q-35 0 -58.5 23.5t-23.5 56t23.5 56t58.5 23.5q33 0 56.5 -23.5t23.5 -56t-23.5 -56t-56.5 -23.5zM213 0q-29 0 -29 31v964q0 33 29 33h14q29 0 29 -33v-964 q0 -31 -29 -31h-14zM496 -367q-25 -14 -41 9l-6 10q-16 25 12 41q74 47 107.5 104.5t33.5 165.5v1000h-121q-27 0 -26 28v8q0 29 26 29h168q27 0 27 -29v-1032q0 -131 -44 -203t-136 -131z" glyph-name="ij" horiz-adv-x="851" unicode="ĳ"/><glyph d="M1243 47q14 -20 -10 -41q-37 -31 -90 -31q-41 0 -80 29q-49 29 -119 113l-463 569l-198 -192v-461q0 -33 -31 -33h-16q-29 0 -29 33v1265q0 33 29 33h16q31 0 31 -33v-718l741 727q25 25 47 24h29q14 0 19 -11t-5 -22l-577 -563l479 -588q82 -98 125 -102q31 0 57 18 q29 16 39 -6zM647 -113q35 0 25 -30l-68 -240q-8 -29 -29 -29h-8q-25 0 -20 29l45 240q6 31 37 30h18z" glyph-name="Kcommaaccent" horiz-adv-x="1239" unicode="Ķ"/><glyph d="M1051 47q14 -25 -9 -41q-37 -31 -94 -31q-47 0 -83 30t-83 91l-323 432l-209 -209v-288q0 -31 -29 -31h-16q-29 0 -29 31v1390q0 20 25 29l20 6q29 10 29 -24v-1022l590 591q27 27 45 27h30q14 0 18.5 -10t-5.5 -21l-420 -419l340 -453q61 -86 108 -86q23 0 50 18 q27 16 41 -6zM549 -113q35 0 24 -30l-67 -240q-8 -29 -29 -29h-8q-25 0 -20 29l45 240q6 31 36 30h19z" glyph-name="kcommaaccent" horiz-adv-x="1044" unicode="ķ"/><glyph d="M944 33q10 -14 5 -23.5t-19 -9.5h-25q-27 0 -45 25l-407 495l-203 -203v-286q0 -31 -29 -31h-16q-29 0 -29 31v964q0 33 29 33h16q29 0 29 -33v-585l590 591q27 27 45 27h26q14 0 19.5 -11t-4.5 -22l-424 -424z" glyph-name="kgreenlandic" horiz-adv-x="974" unicode="ĸ"/><glyph d="M55 1462l-6 8q-16 23 17 41l301 195q33 20 49 -6l12 -17q16 -25 -14 -43l-318 -178q-29 -16 -41 0zM236 0q-29 0 -29 31v1267q0 33 29 33h16q31 0 31 -33v-1230h665q31 0 31 -29v-10q0 -29 -31 -29h-712z" glyph-name="Lacute" horiz-adv-x="1021" unicode="Ĺ"/><glyph d="M18 1499l-6 8q-16 23 17 41l301 195q33 20 49 -6l12 -17q16 -25 -14 -43l-318 -178q-29 -16 -41 0zM305 -25q-57 0 -90 36t-33 106v1304q0 20 25 29l18 6q29 8 29 -24v-1317q0 -76 59 -76q18 0 52 18q23 16 41 -6l2 -4q14 -25 -7 -41q-37 -31 -96 -31z" glyph-name="lacute" horiz-adv-x="456" unicode="ĺ"/><glyph d="M236 0q-29 0 -29 31v1267q0 33 29 33h16q31 0 31 -33v-1230h665q31 0 31 -29v-10q0 -29 -31 -29h-712zM522 -412q-25 0 -20 29l45 240q6 31 37 30h18q35 0 25 -30l-68 -240q-8 -29 -29 -29h-8z" glyph-name="Lcommaaccent" horiz-adv-x="1021" unicode="Ļ"/><glyph d="M305 -25q-57 0 -90 36t-33 106v1304q0 20 25 29l18 6q29 8 29 -24v-1317q0 -76 59 -76q18 0 52 18q23 16 41 -6l2 -4q14 -25 -7 -41q-37 -31 -96 -31zM236 -412q-25 0 -21 29l45 240q6 31 37 30h18q35 0 25 -30l-68 -240q-8 -29 -28 -29h-8z" glyph-name="lcommaaccent" horiz-adv-x="456" unicode="ļ"/><glyph d="M236 0q-29 0 -29 31v1267q0 33 29 33h16q31 0 31 -33v-1230h665q31 0 31 -29v-10q0 -29 -31 -29h-712zM541 983q-29 0 -21 29l53 288q6 31 37 31h19q35 0 24 -33l-78 -286q-8 -29 -30 -29h-4z" glyph-name="Lcaron" horiz-adv-x="1021" unicode="Ľ"/><glyph d="M305 -25q-57 0 -90 36t-33 106v1304q0 20 25 29l18 6q29 8 29 -24v-1317q0 -76 59 -76q18 0 52 18q23 16 41 -6l2 -4q14 -25 -7 -41q-37 -31 -96 -31zM385 1110q-27 0 -23 29l56 288q6 31 37 31h18q35 0 25 -33l-78 -286q-10 -29 -31 -29h-4z" glyph-name="lcaron" horiz-adv-x="466" unicode="ľ"/><glyph d="M236 0q-29 0 -29 31v1267q0 33 29 33h16q31 0 31 -33v-1230h665q31 0 31 -29v-10q0 -29 -31 -29h-712zM700.5 594q-32.5 0 -56 22.5t-23.5 57.5t23.5 57.5t56 22.5t56 -22.5t23.5 -57.5t-23.5 -57.5t-56 -22.5z" glyph-name="Ldot" horiz-adv-x="1021" unicode="Ŀ"/><glyph d="M305 -25q-57 0 -90 36t-33 106v1304q0 20 25 29l18 6q29 8 29 -24v-1317q0 -76 59 -76q18 0 52 18q23 16 41 -6l2 -4q14 -25 -7 -41q-37 -31 -96 -31zM409.5 643q-32.5 0 -56 23.5t-23.5 56.5t23.5 56.5t56 23.5t56 -23.5t23.5 -56.5t-23.5 -56.5t-56 -23.5z" glyph-name="ldot" horiz-adv-x="483" unicode="ŀ"/><glyph d="M946 68q33 0 33 -29v-10q0 -29 -33 -29h-710q-31 0 -31 31v469l-148 -72q-14 -6 -22 -1t-8 17v11q0 25 26 37l152 73v733q0 33 31 33h14q31 0 31 -33v-694l297 146q31 16 30 -19v-8q0 -27 -26 -37l-301 -147v-471h665z" glyph-name="Lslash" horiz-adv-x="1021" unicode="Ł"/><glyph d="M442 842q16 8 26.5 2t10.5 -23v-6q0 -20 -26 -35l-174 -90v-575q0 -76 59 -76q23 0 51 18q25 16 41 -6l2 -4q14 -25 -6 -41q-37 -31 -96 -31q-55 0 -89 37t-34 105v536l-148 -78q-14 -8 -25 -1.5t-11 22.5v6q0 23 28 35l156 82v702q0 20 24 29l19 6q29 8 29 -24v-676z " glyph-name="lslash" horiz-adv-x="503" unicode="ł"/><glyph d="M551 1462l-6 8q-16 23 16 41l301 195q33 20 49 -6l13 -17q16 -25 -15 -43l-317 -178q-29 -16 -41 0zM1198 1331q31 0 31 -33v-1286q0 -25 -27 -24h-4q-14 0 -41 30l-876 1174v-1159q0 -33 -31 -33h-14q-29 0 -29 33v1284q0 25 24 24h5q16 0 40 -28l877 -1174v1159 q0 33 31 33h14z" glyph-name="Nacute" horiz-adv-x="1433" unicode="Ń"/><glyph d="M440 1204l-4 6q-16 20 13 43l276 222q33 29 53 4l6 -11q25 -29 -8 -51l-291 -207q-29 -22 -45 -6zM653 1049q184 0 298 -113t114 -297v-608q0 -31 -29 -31h-16q-29 0 -29 31v604q0 156 -95 251t-251 95q-164 0 -267.5 -101.5t-103.5 -256.5v-592q0 -31 -28 -31h-17 q-29 0 -28 31v878q0 76 -60 76q-23 0 -49 -18q-25 -16 -41 6l-4 4q-14 25 8 41q37 31 97 31q55 0 87.5 -36t32.5 -106v-84q51 104 149.5 165t231.5 61z" glyph-name="nacute" horiz-adv-x="1224" unicode="ń"/><glyph d="M1198 1331q31 0 31 -33v-1286q0 -25 -27 -24h-4q-14 0 -41 30l-876 1174v-1159q0 -33 -31 -33h-14q-29 0 -29 33v1284q0 25 24 24h5q16 0 40 -28l877 -1174v1159q0 33 31 33h14zM729 -113q35 0 25 -30l-68 -240q-8 -29 -29 -29h-8q-25 0 -20 29l45 240q6 31 37 30h18z " glyph-name="Ncommaaccent" horiz-adv-x="1433" unicode="Ņ"/><glyph d="M653 1049q184 0 298 -113t114 -297v-608q0 -31 -29 -31h-16q-29 0 -29 31v604q0 156 -95 251t-251 95q-164 0 -267.5 -101.5t-103.5 -256.5v-592q0 -31 -28 -31h-17q-29 0 -28 31v878q0 76 -60 76q-23 0 -49 -18q-25 -16 -41 6l-4 4q-14 25 8 41q37 31 97 31 q55 0 87.5 -36t32.5 -106v-84q51 104 149.5 165t231.5 61zM647 -113q35 0 25 -30l-68 -240q-8 -29 -29 -29h-8q-25 0 -20 29l45 240q6 31 37 30h18z" glyph-name="ncommaaccent" horiz-adv-x="1224" unicode="ņ"/><glyph d="M465 1634q-33 23 -16 43l6 9q14 16 45 0l233 -152l232 152q31 16 45 0l6 -9q16 -20 -17 -43l-243 -176q-25 -14 -47 0zM1198 1331q31 0 31 -33v-1286q0 -25 -27 -24h-4q-14 0 -41 30l-876 1174v-1159q0 -33 -31 -33h-14q-29 0 -29 33v1284q0 25 24 24h5q16 0 40 -28 l877 -1174v1159q0 33 31 33h14z" glyph-name="Ncaron" horiz-adv-x="1433" unicode="Ň"/><glyph d="M354 1372q-31 25 -12 45l6 6q16 18 43 0l221 -149l224 149q29 18 43 0l6 -6q18 -23 -15 -45l-235 -170q-23 -16 -45 0zM653 1049q184 0 298 -113t114 -297v-608q0 -31 -29 -31h-16q-29 0 -29 31v604q0 156 -95 251t-251 95q-164 0 -267.5 -101.5t-103.5 -256.5v-592 q0 -31 -28 -31h-17q-29 0 -28 31v878q0 76 -60 76q-23 0 -49 -18q-25 -16 -41 6l-4 4q-14 25 8 41q37 31 97 31q55 0 87.5 -36t32.5 -106v-84q51 104 149.5 165t231.5 61z" glyph-name="ncaron" horiz-adv-x="1224" unicode="ň"/><glyph d="M897 -395q-102 0 -187 43t-130 116q-16 27 6 46l10 6q25 18 43 -11q82 -133 260 -133q115 0 185.5 74t70.5 195v71l-874 1180v-1159q0 -33 -31 -33h-14q-29 0 -29 33v1278q0 25 24 24h5q18 0 40 -30l877 -1184v1177q0 33 31 33h14q31 0 31 -33v-1364q0 -150 -93.5 -239.5 t-238.5 -89.5z" glyph-name="Eng" horiz-adv-x="1433" unicode="Ŋ"/><glyph d="M653 1049q184 0 298 -113t114 -297v-612q0 -131 -46 -206t-140 -132q-23 -12 -35 12l-8 12q-10 20 12 37q74 47 108.5 106.5t34.5 166.5v612q0 156 -95 251t-251 95q-164 0 -267.5 -102.5t-103.5 -257.5v-594q0 -27 -28 -27h-19q-27 0 -26 27v882q0 76 -60 76 q-23 0 -49 -18q-25 -16 -41 6l-4 4q-14 25 8 41q37 31 97 31q55 0 87.5 -36t32.5 -106v-69q53 98 153.5 154.5t227.5 56.5z" glyph-name="eng" horiz-adv-x="1224" unicode="ŋ"/><glyph d="M555 1540q-31 0 -31 29v8q0 27 31 27h500q31 0 30 -27v-8q0 -29 -30 -29h-500zM805 -25q-301 0 -502 199t-201 491.5t201 491.5t502 199q303 0 502.5 -199t199.5 -491.5t-199.5 -491.5t-502.5 -199zM805 45q266 0 446.5 179t180.5 441.5t-180.5 441.5t-446.5 179 t-446.5 -179t-180.5 -441.5t180.5 -441.5t446.5 -179z" glyph-name="Omacron" horiz-adv-x="1609" unicode="Ō"/><glyph d="M391 1294q-31 0 -31 29v10q0 29 31 29h492q31 0 30 -29v-10q0 -29 -30 -29h-492zM636.5 -25q-233.5 0 -388 155t-154.5 382t154.5 382t388 155t388.5 -155t155 -382t-155 -382t-388.5 -155zM637 43q203 0 335 134t132 335t-132 335t-335 134q-201 0 -334 -134t-133 -335 t133 -335t334 -134z" glyph-name="omacron" horiz-adv-x="1273" unicode="ō"/><glyph d="M637 1450q-31 0 -16 25l141 247q18 27 37 27h35q35 0 16 -25l-162 -247q-18 -27 -37 -27h-14zM901 1450q-29 0 -14 25l141 247q14 27 35 27h35q33 0 18 -25l-162 -247q-18 -27 -36 -27h-17zM805 -25q-301 0 -502 199t-201 491.5t201 491.5t502 199q303 0 502.5 -199 t199.5 -491.5t-199.5 -491.5t-502.5 -199zM805 45q266 0 446.5 179t180.5 441.5t-180.5 441.5t-446.5 179t-446.5 -179t-180.5 -441.5t180.5 -441.5t446.5 -179z" glyph-name="Ohungarumlaut" horiz-adv-x="1609" unicode="Ő"/><glyph d="M475 1190q-31 0 -16 27l114 251q16 31 43 31h19q16 0 23.5 -10t-1.5 -25l-137 -245q-16 -29 -39 -29h-6zM745 1190q-29 0 -16 27l115 251q16 31 43 31h18q16 0 23.5 -10t-0.5 -25l-137 -245q-14 -29 -39 -29h-7zM636.5 -25q-233.5 0 -388 155t-154.5 382t154.5 382 t388 155t388.5 -155t155 -382t-155 -382t-388.5 -155zM637 43q203 0 335 134t132 335t-132 335t-335 134q-201 0 -334 -134t-133 -335t133 -335t334 -134z" glyph-name="ohungarumlaut" horiz-adv-x="1273" unicode="ő"/><glyph d="M805 -25q-301 0 -502 199t-201 491.5t201 491.5t502 199q215 0 381 -105.5t246 -283.5v336q0 29 28 28h789q31 0 30 -28v-11q0 -29 -30 -28h-742v-557h582q31 0 31 -29v-10q0 -29 -31 -29h-582v-571h742q31 0 30 -29v-10q0 -29 -30 -29h-789q-29 0 -28 29v336 q-80 -178 -246 -284t-381 -106zM805 47q266 0 446.5 178t180.5 440.5t-180.5 440.5t-446.5 178t-446.5 -178t-180.5 -440.5t180.5 -440.5t446.5 -178z" glyph-name="OE" horiz-adv-x="2359" unicode="Œ"/><glyph d="M637 -25q-233 0 -388 155t-155 382t154.5 382t388.5 155q178 0 313 -92.5t191 -245.5q51 154 175 246t294 92q256 0 391 -205q96 -137 96 -312q0 -45 -37 -45h-878q8 -199 134 -321.5t310 -122.5q106 0 211 50t174 136q20 16 39 2l12 -12q18 -18 0 -39 q-78 -94 -194.5 -149.5t-239.5 -55.5q-168 0 -300 91.5t-187 248.5q-55 -154 -191.5 -247t-312.5 -93zM637 43q203 0 335 134t132 335t-132 335t-335 134q-201 0 -334 -134t-133 -335t133 -335t334 -134zM1182 555h841q-12 141 -71 236q-113 190 -342 190q-180 0 -299 -120 t-129 -306z" glyph-name="oe" horiz-adv-x="2187" unicode="œ"/><glyph d="M432 1462l-6 8q-16 23 16 41l301 195q33 20 50 -6l12 -17q16 -25 -14 -43l-318 -178q-29 -16 -41 0zM1239 45q12 -20 -10 -39q-37 -31 -92 -31q-76 0 -121 52.5t-94 158.5l-117 260q-43 98 -73 122t-75 24h-374v-559q0 -33 -31 -33h-16q-29 0 -29 33v1270q0 29 29 28h458 q199 0 313.5 -99t114.5 -269q0 -147 -89 -244.5t-245 -120.5q10 -2 18.5 -9t14.5 -13.5t13.5 -20.5t11.5 -22.5t13 -29t13 -28.5l117 -262q37 -84 70 -126t80 -42q29 0 55 18q29 14 39 -8zM283 657h424q154 0 247 85t93 220.5t-93.5 218.5t-246.5 83h-424v-607z" glyph-name="Racute" horiz-adv-x="1273" unicode="Ŕ"/><glyph d="M186 1204l-4 6q-16 20 13 43l276 222q33 29 53 4l6 -11q25 -29 -8 -51l-291 -207q-29 -22 -45 -6zM680 1030q27 -10 16 -41l-2 -8q-12 -27 -41 -14q-43 14 -84 14q-119 0 -207 -110.5t-88 -278.5v-561q0 -31 -28 -31h-17q-29 0 -28 31v878q0 76 -60 76q-23 0 -49 -18 q-25 -16 -41 6l-4 4q-14 25 8 41q37 31 97 31q55 0 87.5 -36t32.5 -106v-84q45 104 125 165t178 61q60 -1 105 -19z" glyph-name="racute" horiz-adv-x="706" unicode="ŕ"/><glyph d="M1239 45q12 -20 -10 -39q-37 -31 -92 -31q-76 0 -121 52.5t-94 158.5l-117 260q-43 98 -73 122t-75 24h-374v-559q0 -33 -31 -33h-16q-29 0 -29 33v1270q0 29 29 28h458q199 0 313.5 -99t114.5 -269q0 -147 -89 -244.5t-245 -120.5q10 -2 18.5 -9t14.5 -13.5t13.5 -20.5 t11.5 -22.5t13 -29t13 -28.5l117 -262q37 -84 70 -126t80 -42q29 0 55 18q29 14 39 -8zM283 657h424q154 0 247 85t93 220.5t-93.5 218.5t-246.5 83h-424v-607zM664 -113q35 0 24 -30l-67 -240q-8 -29 -29 -29h-8q-25 0 -21 29l45 240q6 31 37 30h19z" glyph-name="Rcommaaccent" horiz-adv-x="1273" unicode="Ŗ"/><glyph d="M680 1030q27 -10 16 -41l-2 -8q-12 -27 -41 -14q-43 14 -84 14q-119 0 -207 -110.5t-88 -278.5v-561q0 -31 -28 -31h-17q-29 0 -28 31v878q0 76 -60 76q-23 0 -49 -18q-25 -16 -41 6l-4 4q-14 25 8 41q37 31 97 31q55 0 87.5 -36t32.5 -106v-84q45 104 125 165t178 61 q60 -1 105 -19zM246 -113q35 0 24 -30l-67 -240q-8 -29 -29 -29h-8q-25 0 -21 29l45 240q6 31 37 30h19z" glyph-name="rcommaaccent" horiz-adv-x="706" unicode="ŗ"/><glyph d="M348 1634q-33 23 -16 43l6 9q14 16 45 0l233 -152l232 152q31 16 45 0l6 -9q16 -20 -16 -43l-244 -176q-25 -14 -47 0zM1239 45q12 -20 -10 -39q-37 -31 -92 -31q-76 0 -121 52.5t-94 158.5l-117 260q-43 98 -73 122t-75 24h-374v-559q0 -33 -31 -33h-16q-29 0 -29 33 v1270q0 29 29 28h458q199 0 313.5 -99t114.5 -269q0 -147 -89 -244.5t-245 -120.5q10 -2 18.5 -9t14.5 -13.5t13.5 -20.5t11.5 -22.5t13 -29t13 -28.5l117 -262q37 -84 70 -126t80 -42q29 0 55 18q29 14 39 -8zM283 657h424q154 0 247 85t93 220.5t-93.5 218.5t-246.5 83 h-424v-607z" glyph-name="Rcaron" horiz-adv-x="1273" unicode="Ř"/><glyph d="M98 1372q-31 25 -12 45l6 6q14 18 43 0l221 -149l224 149q27 18 43 0l6 -6q18 -23 -15 -45l-235 -170q-23 -16 -45 0zM680 1030q27 -10 16 -41l-2 -8q-12 -27 -41 -14q-43 14 -84 14q-119 0 -207 -110.5t-88 -278.5v-561q0 -31 -28 -31h-17q-29 0 -28 31v878q0 76 -60 76 q-23 0 -49 -18q-25 -16 -41 6l-4 4q-14 25 8 41q37 31 97 31q55 0 87.5 -36t32.5 -106v-84q45 104 125 165t178 61q60 -1 105 -19z" glyph-name="rcaron" horiz-adv-x="706" unicode="ř"/><glyph d="M360 1462l-6 8q-16 23 17 41l301 195q33 20 49 -6l12 -17q16 -25 -14 -43l-318 -178q-29 -16 -41 0zM549 -25q-145 0 -271 57.5t-198 168.5q-20 35 2 51l8 6q27 20 49 -8q59 -96 170 -150.5t234 -54.5q154 0 252 81t98 204q0 51 -19.5 93t-42 68.5t-76 57.5t-82 43 t-103 41t-97.5 39q-76 31 -123 56.5t-101 66.5t-81 98t-27 129q0 145 110.5 239.5t289.5 94.5q233 0 368 -160q27 -35 2 -53l-6 -4q-31 -18 -53 8q-125 139 -311 139q-143 0 -232.5 -73.5t-89.5 -186.5q0 -102 73 -163.5t218 -121.5q25 -10 80 -31.5t82.5 -32.5t75 -35 t73 -41t58 -47t49 -59.5t29 -70.5t12.5 -88q0 -160 -118 -260.5t-302 -100.5z" glyph-name="Sacute" horiz-adv-x="1060" unicode="Ś"/><glyph d="M279 1204l-5 6q-16 20 13 43l276 222q33 29 53 4l7 -11q25 -29 -9 -51l-290 -207q-29 -22 -45 -6zM438 -25q-252 0 -364 187q-16 27 6 43l8 6q27 16 43 -8q98 -160 303 -160q123 0 197 56.5t74 152.5q0 27 -5.5 50.5t-19.5 44t-25.5 35.5t-37 32.5t-41 28t-48 24.5 t-49 21.5t-54.5 21.5t-52 20q-115 49 -178.5 105.5t-63.5 155.5q0 117 88 187.5t221 70.5q199 0 305 -152q20 -25 0 -43l-8 -6q-25 -20 -43 4q-96 129 -256 129q-102 0 -167.5 -51t-65.5 -133q0 -76 53 -121t152 -86q188 -74 245 -111q123 -84 123 -227q0 -125 -93 -201 t-247 -76z" glyph-name="sacute" horiz-adv-x="868" unicode="ś"/><glyph d="M969 336q0 -158 -113 -257t-293 -104l-20 -90q205 10 205 -131q0 -68 -50.5 -107.5t-138.5 -39.5q-90 0 -166 47q-35 20 -18 45l4 6q16 25 43 6q72 -45 135 -45q55 0 87 22.5t32 63.5q0 51 -49 70.5t-125 5.5q-20 -4 -29.5 3t-3.5 26q10 39 27 120q-129 10 -241 66.5 t-175 157.5q-20 35 2 51l8 6q27 20 49 -8q59 -96 170 -150.5t234 -54.5q154 0 252 81t98 204q0 51 -19.5 93t-42 68.5t-76 57.5t-82 43t-103 41t-97.5 39q-76 31 -123 56.5t-101 66.5t-81 98t-27 129q0 145 110.5 239.5t289.5 94.5q233 0 368 -160q27 -35 2 -53l-6 -4 q-31 -18 -53 8q-125 139 -311 139q-143 0 -232.5 -73.5t-89.5 -186.5q0 -102 73 -163.5t218 -121.5q25 -10 80 -31.5t82.5 -32.5t75 -35t73 -41t58 -47t49 -59.5t29 -70.5t12.5 -88z" glyph-name="Scedilla" horiz-adv-x="1060" unicode="Ş"/><glyph d="M778 252q0 -121 -88 -196.5t-233 -80.5l-21 -90q205 10 205 -131q0 -68 -50 -107.5t-138 -39.5q-90 0 -166 47q-35 20 -19 45l4 6q16 25 43 6q72 -45 136 -45q55 0 86.5 22.5t31.5 63.5q0 51 -49 70.5t-125 5.5q-20 -4 -29.5 3t-3.5 26q10 39 27 120q-217 20 -315 185 q-16 27 6 43l8 6q27 16 43 -8q98 -160 303 -160q123 0 197 56.5t74 152.5q0 27 -5.5 50.5t-19.5 44t-25.5 35.5t-37 32.5t-41 28t-48 24.5t-49 21.5t-54.5 21.5t-52 20q-115 49 -178.5 105.5t-63.5 155.5q0 117 88 187.5t221 70.5q199 0 305 -152q20 -25 0 -43l-8 -6 q-25 -20 -43 4q-96 129 -256 129q-102 0 -167.5 -51t-65.5 -133q0 -76 53 -121t152 -86q188 -74 245 -111q123 -84 123 -227z" glyph-name="scedilla" horiz-adv-x="868" unicode="ş"/><glyph d="M276 1634q-33 23 -16 43l6 9q14 16 45 0l234 -152l231 152q31 16 45 0l6 -9q16 -20 -16 -43l-244 -176q-25 -14 -47 0zM510 741q25 -10 80 -31.5t82.5 -32.5t75 -35t73 -41t58 -47t49 -59.5t29 -70.5t12.5 -88q0 -160 -118 -260.5t-302 -100.5q-145 0 -271 57.5 t-198 168.5q-20 35 2 51l8 6q27 20 49 -8q59 -96 170 -150.5t234 -54.5q154 0 252 81t98 204q0 51 -19.5 93t-42 68.5t-76 57.5t-82 43t-103 41t-97.5 39q-76 31 -123 56.5t-101 66.5t-81 98t-27 129q0 145 110.5 239.5t289.5 94.5q233 0 368 -160q27 -35 2 -53l-6 -4 q-31 -18 -53 8q-125 139 -311 139q-143 0 -232.5 -73.5t-89.5 -186.5q0 -102 73 -164t218 -121z" glyph-name="Scaron" horiz-adv-x="1060" unicode="Š"/><glyph d="M193 1372q-31 25 -13 45l6 6q14 18 43 0l222 -149l223 149q27 18 43 0l6 -6q18 -23 -14 -45l-236 -170q-23 -16 -45 0zM410 590q188 -74 245 -111q123 -84 123 -227q0 -125 -93 -201t-247 -76q-252 0 -364 187q-16 27 6 43l8 6q27 16 43 -8q98 -160 303 -160 q123 0 197 56.5t74 152.5q0 27 -5.5 50.5t-19.5 44t-25.5 35.5t-37 32.5t-41 28t-48 24.5t-49 21.5t-54.5 21.5t-52 20q-115 49 -178.5 105.5t-63.5 155.5q0 117 88 187.5t221 70.5q199 0 305 -152q20 -25 0 -43l-8 -6q-25 -20 -43 4q-96 129 -256 129q-102 0 -167.5 -51 t-65.5 -133q0 -76 53.5 -121t151.5 -86z" glyph-name="scaron" horiz-adv-x="868" unicode="š"/><glyph d="M1010 1331q33 0 32 -28v-11q0 -29 -32 -28h-437v-1231q0 -10 -4 -19l-28 -120q205 10 204 -132q0 -68 -50 -107.5t-138 -39.5q-90 0 -166 47q-35 20 -18 45l4 6q16 25 43 6q72 -45 135 -45q55 0 87 22.5t32 63.5q0 51 -49.5 70.5t-124.5 5.5q-20 -4 -29.5 3t-3.5 26 q6 25 17.5 75t17.5 74q-4 12 -4 19v1231h-432q-33 0 -33 28v11q0 29 33 28h944z" glyph-name="Tcommaaccent" horiz-adv-x="1075" unicode="Ţ"/><glyph d="M666 72q16 -25 -15 -41q-78 -55 -170 -56h-26l-21 -90q205 10 205 -131q0 -68 -50 -107.5t-138 -39.5q-90 0 -166 47q-35 20 -19 45l4 6q16 25 43 6q72 -45 136 -45q55 0 86.5 22.5t31.5 63.5q0 51 -49 70.5t-125 5.5q-20 -4 -29.5 3t-3.5 26q18 78 29 131 q-180 49 -180 280v695h-156q-31 0 -30 28v8q0 29 30 29h156v332q0 25 24 29l19 6q29 8 29 -25v-342h307q31 0 30 -29v-8q0 -29 -30 -28h-307v-691q0 -229 204 -229q72 0 131 43q27 18 46 -6z" glyph-name="tcommaaccent" horiz-adv-x="661" unicode="ţ"/><glyph d="M268 1634q-33 23 -16 43l6 9q14 16 45 0l234 -152l231 152q31 16 45 0l6 -9q16 -20 -16 -43l-244 -176q-25 -14 -47 0zM1010 1331q33 0 32 -28v-11q0 -29 -32 -28h-437v-1231q0 -33 -30 -33h-17q-29 0 -28 33v1231h-432q-33 0 -33 28v11q0 29 33 28h944z" glyph-name="Tcaron" horiz-adv-x="1075" unicode="Ť"/><glyph d="M440 1126q-27 0 -20 31l55 289q4 31 37 31h18q33 0 23 -33l-78 -287q-8 -31 -29 -31h-6zM666 72q16 -25 -15 -41q-78 -55 -170 -56q-129 0 -200.5 76t-71.5 217v695h-156q-31 0 -30 28v8q0 29 30 29h156v332q0 25 24 29l19 6q29 8 29 -25v-342h307q31 0 30 -29v-8 q0 -29 -30 -28h-307v-691q0 -229 204 -229q72 0 131 43q27 18 46 -6z" glyph-name="tcaron" horiz-adv-x="661" unicode="ť"/><glyph d="M1010 1331q33 0 32 -28v-11q0 -29 -32 -28h-437v-613h279q31 0 31 -28v-9q0 -29 -31 -28h-279v-553q0 -33 -30 -33h-17q-29 0 -28 33v553h-279q-31 0 -31 28v9q0 29 31 28h279v613h-432q-33 0 -33 28v11q0 29 33 28h944z" glyph-name="Tbar" horiz-adv-x="1075" unicode="Ŧ"/><glyph d="M666 72q16 -25 -15 -41q-78 -55 -170 -56q-129 0 -200.5 76t-71.5 217v250h-156q-31 0 -30 27v8q0 27 30 27h156v383h-156q-31 0 -30 28v8q0 29 30 29h156v332q0 25 24 29l19 6q29 8 29 -25v-342h307q31 0 30 -29v-8q0 -29 -30 -28h-307v-383h235q29 0 29 -27v-8 q0 -27 -29 -27h-235v-246q0 -229 204 -229q72 0 131 43q27 18 46 -6z" glyph-name="tbar" horiz-adv-x="661" unicode="ŧ"/><glyph d="M430 1450q-29 0 -29 29q0 78 43 123t113 45q63 0 170 -67t160 -67q41 0 66.5 27t25.5 78q0 31 29 31h8q29 0 28 -31q0 -78 -43 -123t-112 -45q-68 0 -175.5 67.5t-154.5 67.5q-41 0 -66.5 -27.5t-25.5 -78.5q0 -29 -29 -29h-8zM723 -25q-242 0 -389.5 149.5t-147.5 395.5 v778q0 33 29 33h16q31 0 31 -33v-776q0 -213 127 -345t334 -132t334 132t127 345v776q0 33 30 33h15q31 0 31 -33v-778q0 -246 -147.5 -395.5t-389.5 -149.5z" glyph-name="Utilde" horiz-adv-x="1445" unicode="Ũ"/><glyph d="M311 1219q-29 0 -28 28q0 78 37.5 122t103.5 44q63 0 161.5 -65.5t151.5 -65.5q80 0 80 102q0 29 29 29h6q29 0 29 -29q0 -78 -37 -121.5t-103 -43.5q-63 0 -165.5 65.5t-149.5 65.5q-80 0 -80 -103q0 -29 -29 -28h-6zM1153 47q14 -25 -6 -41q-37 -31 -96 -31 q-55 0 -89 37t-34 105v82q-49 -104 -145.5 -164t-229.5 -60q-172 0 -282.5 113t-110.5 297v610q0 33 28 33h17q29 0 28 -33v-610q0 -152 92.5 -247t235.5 -95q164 0 265.5 102.5t101.5 257.5v592q0 33 28 33h15q29 0 28 -33v-880q0 -76 60 -76q23 0 51 18q25 16 41 -6z" glyph-name="utilde" horiz-adv-x="1200" unicode="ũ"/><glyph d="M473 1540q-31 0 -31 29v8q0 27 31 27h500q31 0 31 -27v-8q0 -29 -31 -29h-500zM723 -25q-242 0 -389.5 149.5t-147.5 395.5v778q0 33 29 33h16q31 0 31 -33v-776q0 -213 127 -345t334 -132t334 132t127 345v776q0 33 30 33h15q31 0 31 -33v-778q0 -246 -147.5 -395.5 t-389.5 -149.5z" glyph-name="Umacron" horiz-adv-x="1445" unicode="Ū"/><glyph d="M338 1294q-31 0 -31 29v10q0 29 31 29h491q31 0 31 -29v-10q0 -29 -31 -29h-491zM1153 47q14 -25 -6 -41q-37 -31 -96 -31q-55 0 -89 37t-34 105v82q-49 -104 -145.5 -164t-229.5 -60q-172 0 -282.5 113t-110.5 297v610q0 33 28 33h17q29 0 28 -33v-610q0 -152 92.5 -247 t235.5 -95q164 0 265.5 102.5t101.5 257.5v592q0 33 28 33h15q29 0 28 -33v-880q0 -76 60 -76q23 0 51 18q25 16 41 -6z" glyph-name="umacron" horiz-adv-x="1200" unicode="ū"/><glyph d="M721 1425q-72 0 -123 50.5t-51 120t51 119.5t123 50q74 0 124 -49t50 -120.5t-50 -121t-124 -49.5zM721 1481q51 0 83 34.5t32 79.5t-32 80t-83 35q-49 0 -81 -35t-32 -80t32 -79.5t81 -34.5zM723 -25q-242 0 -389.5 149.5t-147.5 395.5v778q0 33 29 33h16q31 0 31 -33 v-776q0 -213 127 -345t334 -132t334 132t127 345v776q0 33 30 33h15q31 0 31 -33v-778q0 -246 -147.5 -395.5t-389.5 -149.5z" glyph-name="Uring" horiz-adv-x="1445" unicode="Ů"/><glyph d="M584 1182q-74 0 -124 49t-50 120.5t50 121t124 49.5q76 0 126 -49.5t50 -121t-50 -120.5t-126 -49zM583.5 1462q-51.5 0 -81 -32.5t-29.5 -77.5t29.5 -79t81 -34t82 34t30.5 79t-30.5 77.5t-82 32.5zM1153 47q14 -25 -6 -41q-37 -31 -96 -31q-55 0 -89 37t-34 105v82 q-49 -104 -145.5 -164t-229.5 -60q-172 0 -282.5 113t-110.5 297v610q0 33 28 33h17q29 0 28 -33v-610q0 -152 92.5 -247t235.5 -95q164 0 265.5 102.5t101.5 257.5v592q0 33 28 33h15q29 0 28 -33v-880q0 -76 60 -76q23 0 51 18q25 16 41 -6z" glyph-name="uring" horiz-adv-x="1200" unicode="ů"/><glyph d="M555 1450q-31 0 -16 25l141 247q18 27 37 27h35q35 0 16 -25l-162 -247q-18 -27 -37 -27h-14zM819 1450q-29 0 -14 25l141 247q14 27 35 27h35q33 0 18 -25l-162 -247q-18 -27 -36 -27h-17zM723 -25q-242 0 -389.5 149.5t-147.5 395.5v778q0 33 29 33h16q31 0 31 -33 v-776q0 -213 127 -345t334 -132t334 132t127 345v776q0 33 30 33h15q31 0 31 -33v-778q0 -246 -147.5 -395.5t-389.5 -149.5z" glyph-name="Uhungarumlaut" horiz-adv-x="1445" unicode="Ű"/><glyph d="M422 1190q-31 0 -16 27l114 251q16 31 43 31h19q16 0 23 -10t-1 -25l-137 -245q-16 -29 -39 -29h-6zM692 1190q-29 0 -16 27l115 251q16 31 43 31h18q16 0 23.5 -10t-1.5 -25l-137 -245q-14 -29 -39 -29h-6zM1153 47q14 -25 -6 -41q-37 -31 -96 -31q-55 0 -89 37t-34 105 v82q-49 -104 -145.5 -164t-229.5 -60q-172 0 -282.5 113t-110.5 297v610q0 33 28 33h17q29 0 28 -33v-610q0 -152 92.5 -247t235.5 -95q164 0 265.5 102.5t101.5 257.5v592q0 33 28 33h15q29 0 28 -33v-880q0 -76 60 -76q23 0 51 18q25 16 41 -6z" glyph-name="uhungarumlaut" horiz-adv-x="1200" unicode="ű"/><glyph d="M1229 1331q31 0 31 -33v-778q0 -199 -99.5 -337t-269.5 -185q-98 -66 -98 -158q0 -78 60 -106.5t132 -1.5q27 8 37 -13l2 -6q12 -25 -20 -37q-98 -39 -187.5 7.5t-89.5 148.5q0 82 70 148q-49 -4 -74 -5q-242 0 -389.5 149.5t-147.5 395.5v778q0 33 29 33h16q31 0 31 -33 v-776q0 -213 127 -345t334 -132t334 132t127 345v776q0 33 30 33h15z" glyph-name="Uogonek" horiz-adv-x="1445" unicode="Ų"/><glyph d="M1176 -322q12 -25 -21 -36q-98 -39 -187 7t-89 148q0 106 120 189q-72 31 -71 131v82q-49 -104 -145.5 -164t-229.5 -60q-172 0 -282.5 113t-110.5 297v610q0 33 28 33h17q29 0 28 -33v-610q0 -152 92.5 -247t235.5 -95q164 0 265.5 102.5t101.5 257.5v592q0 33 28 33h15 q29 0 28 -33v-880q0 -76 60 -76q23 0 51 18q25 16 41 -6l2 -4q14 -25 -6 -41q-31 -27 -82 -31q-121 -68 -121 -170q0 -78 60.5 -106.5t132.5 -1.5q27 8 37 -12z" glyph-name="uogonek" horiz-adv-x="1200" unicode="ų"/><glyph d="M764 1460l-6 6q-16 20 16 43l244 177q23 14 47 0l244 -177q33 -23 16 -43l-6 -6q-14 -20 -45 0l-232 150l-233 -150q-31 -20 -45 0zM1917 1331q14 0 19.5 -10t0.5 -23l-462 -1280q-10 -29 -33 -28h-4q-25 0 -33 28l-365 1172l-364 -1172q-8 -29 -33 -28h-4q-23 0 -33 28 l-428 1180q-35 86 -88 88q-27 0 -55.5 -16.5t-40.5 4.5l-4 10q-14 23 8 41q41 31 92 31q55 0 92 -31q45 -35 72 -111l387 -1077l367 1176q8 29 30 28h4q23 0 31 -28l369 -1182l420 1172q12 29 41 28h14z" glyph-name="Wcircumflex" horiz-adv-x="2009" unicode="Ŵ"/><glyph d="M586 1214l-6 7q-18 23 12 43l235 172q23 16 45 0l236 -172q35 -20 14 -43l-6 -7q-14 -18 -43 0l-223 150l-221 -150q-29 -18 -43 0zM1532 1028q33 0 20 -31l-342 -979q-8 -29 -30 -28h-2q-18 0 -31 28l-295 877l-297 -877q-12 -29 -31 -28h-2q-23 0 -30 28l-304 873 q-16 49 -34.5 71.5t-49.5 22.5q-20 0 -53 -18q-23 -16 -41 6l-2 4q-14 25 6 41q35 31 95 31q104 0 147 -136l264 -784l299 883q8 27 31 26h4q23 0 33 -26l295 -883l295 870q10 29 36 29h19z" glyph-name="wcircumflex" horiz-adv-x="1611" unicode="ŵ"/><glyph d="M408 1460l-7 6q-16 20 17 43l244 177q23 14 47 0l243 -177q33 -23 17 -43l-6 -6q-14 -20 -45 0l-232 150l-233 -150q-31 -20 -45 0zM1192 1331q14 0 19.5 -11t-1.5 -22l-487 -788v-477q0 -33 -31 -33h-14q-31 0 -31 33v477l-416 672q-57 96 -112 102q-35 6 -64 -16 q-29 -16 -41 6l-6 10q-12 20 10 39q39 33 97 33q59 0 102 -37t86 -109l383 -630l442 725q14 27 41 26h23z" glyph-name="Ycircumflex" horiz-adv-x="1298" unicode="Ŷ"/><glyph d="M350 1214l-6 7q-18 23 12 43l236 172q23 16 45 0l235 -172q35 -20 15 -43l-6 -7q-14 -18 -43 0l-224 150l-221 -150q-29 -18 -43 0zM1059 1028q14 0 19 -10t1 -21l-532 -1192q-80 -180 -228 -180q-70 0 -122 35q-29 16 -17 39l4 8q12 27 47 8q45 -27 88 -26 q100 0 160 129l96 215l-376 858q-20 49 -39 71.5t-47 22.5q-25 0 -54 -20q-25 -16 -41 8l-2 2q-16 25 7 43q39 31 94 31t87 -34t62 -102l350 -792l385 878q10 29 35 29h23z" glyph-name="ycircumflex" horiz-adv-x="1128" unicode="ŷ"/><glyph d="M524.5 1505q-32.5 0 -57.5 23.5t-25 58.5t25 58.5t57.5 23.5t57 -23.5t24.5 -58.5t-24.5 -58.5t-57 -23.5zM846 1505q-35 0 -58.5 23.5t-23.5 58.5t23.5 58.5t58.5 23.5t58.5 -23.5t23.5 -58.5q0 -33 -24.5 -57.5t-57.5 -24.5zM1192 1331q14 0 19.5 -11t-1.5 -22 l-487 -788v-477q0 -33 -31 -33h-14q-31 0 -31 33v477l-416 672q-57 96 -112 102q-35 6 -64 -16q-29 -16 -41 6l-6 10q-12 20 10 39q39 33 97 33q59 0 102 -37t86 -109l383 -630l442 725q14 27 41 26h23z" glyph-name="Ydieresis" horiz-adv-x="1298" unicode="Ÿ"/><glyph d="M367 1462l-7 8q-16 23 17 41l301 195q33 20 49 -6l12 -17q16 -25 -14 -43l-317 -178q-29 -16 -41 0zM1012 66q33 0 32 -27v-10q0 -29 -32 -29h-936q-29 0 -29 23v12q0 12 16 39l840 1192h-780q-33 0 -33 26v11q0 29 33 28h850q29 0 28 -22v-11q0 -14 -16 -41l-838 -1191 h865z" glyph-name="Zacute" horiz-adv-x="1079" unicode="Ź"/><glyph d="M289 1204l-4 6q-16 20 12 43l276 222q33 29 54 4l6 -11q25 -29 -8 -51l-291 -207q-29 -22 -45 -6zM78 0q-31 0 -31 29v12q0 12 21 41l673 883h-628q-31 0 -31 26v8q0 29 31 29h692q31 0 31 -29v-12q0 -12 -21 -41l-674 -883h703q31 0 30 -28v-8q0 -27 -30 -27h-766z" glyph-name="zacute" horiz-adv-x="911" unicode="ź"/><glyph d="M551 1505q-35 0 -58.5 23.5t-23.5 58.5t23.5 58.5t58.5 23.5t58.5 -23.5t23.5 -58.5t-23.5 -58.5t-58.5 -23.5zM1012 66q33 0 32 -27v-10q0 -29 -32 -29h-936q-29 0 -29 23v12q0 12 16 39l840 1192h-780q-33 0 -33 26v11q0 29 33 28h850q29 0 28 -22v-11q0 -14 -16 -41 l-838 -1191h865z" glyph-name="Zdotaccent" horiz-adv-x="1079" unicode="Ż"/><glyph d="M461 1264q-35 0 -57.5 23.5t-22.5 56t22.5 56t57.5 23.5t58.5 -23.5t23.5 -56t-23.5 -56t-58.5 -23.5zM78 0q-31 0 -31 29v12q0 12 21 41l673 883h-628q-31 0 -31 26v8q0 29 31 29h692q31 0 31 -29v-12q0 -12 -21 -41l-674 -883h703q31 0 30 -28v-8q0 -27 -30 -27h-766z " glyph-name="zdotaccent" horiz-adv-x="911" unicode="ż"/><glyph d="M283 1634q-33 23 -17 43l6 9q14 16 45 0l234 -152l231 152q31 16 45 0l7 -9q16 -20 -17 -43l-244 -176q-25 -14 -47 0zM1012 66q33 0 32 -27v-10q0 -29 -32 -29h-936q-29 0 -29 23v12q0 12 16 39l840 1192h-780q-33 0 -33 26v11q0 29 33 28h850q29 0 28 -22v-11 q0 -14 -16 -41l-838 -1191h865z" glyph-name="Zcaron" horiz-adv-x="1079" unicode="Ž"/><glyph d="M201 1372q-31 25 -13 45l7 6q14 18 43 0l221 -149l223 149q27 18 43 0l6 -6q18 -23 -14 -45l-236 -170q-23 -16 -45 0zM844 63q31 0 30 -28v-8q0 -27 -30 -27h-766q-31 0 -31 29v12q0 12 21 41l673 883h-628q-31 0 -31 26v8q0 29 31 29h692q31 0 31 -29v-12 q0 -12 -21 -41l-674 -883h703z" glyph-name="zcaron" horiz-adv-x="911" unicode="ž"/><glyph d="M1028 8q-96 -63 -96 -155q0 -78 60.5 -107t131.5 -2q27 8 37 -12l2 -6q12 -25 -20 -37q-98 -39 -187.5 7t-89.5 148q0 76 62 142q-66 -10 -123 -11q-301 0 -502 199t-201 491.5t201 491.5t502 199q303 0 502.5 -199t199.5 -491q0 -233 -131 -412.5t-348 -245.5z M178 665.5q0 -262.5 180.5 -441.5t446.5 -179t446.5 179t180.5 441.5t-180.5 441.5t-446.5 179t-446.5 -179t-180.5 -441.5z" glyph-name="uni01EA" horiz-adv-x="1609" unicode="Ǫ"/><glyph d="M688 -23q-139 -68 -139 -180q0 -78 60.5 -106.5t131.5 -1.5q27 8 37 -13l2 -6q12 -25 -20 -37q-98 -39 -187.5 7.5t-89.5 148.5q0 111 119 186q-219 12 -363.5 165t-144.5 372q0 227 154.5 382t388 155t388.5 -155t155 -382q0 -215 -139.5 -366t-352.5 -169zM170 512 q0 -201 133 -335t334 -134q203 0 335 134t132 335t-132 335t-335 134q-201 0 -334 -134t-133 -335z" glyph-name="uni01EB" horiz-adv-x="1273" unicode="ǫ"/><glyph d="M1176 1462l-7 8q-16 23 17 41l301 195q33 20 49 -6l12 -17q16 -25 -14 -43l-317 -178q-29 -16 -41 0zM1769 1264h-743v-557h584q31 0 30 -29v-10q0 -29 -30 -29h-584v-571h743q29 0 29 -29v-10q0 -29 -29 -29h-788q-31 0 -31 29v303h-663l-215 -303q-18 -29 -39 -29h-21 q-16 0 -21 10t5 23l897 1270q18 29 53 28h823q29 0 29 -28v-11q0 -28 -29 -28zM334 399h616v869z" glyph-name="AEacute" horiz-adv-x="1880" unicode="Ǽ"/><glyph d="M784 1204l-4 6q-16 20 13 43l276 222q33 29 53 4l6 -11q25 -29 -8 -51l-291 -207q-29 -22 -45 -6zM485 -25q-174 0 -281.5 89.5t-107.5 232.5q0 147 115 236.5t301 89.5q195 0 365 -95v146q0 137 -92.5 222t-241.5 85q-193 0 -355 -150q-25 -18 -43 5l-4 4q-20 25 6 47 q178 162 398 162q158 0 260 -77t129 -208q59 131 176 208t270 77q258 0 394 -205q96 -137 96 -309q0 -47 -39 -48h-877q8 -199 134 -321.5t311 -122.5q106 0 209.5 49t173.5 133q20 23 43 4l10 -8q20 -20 0 -43q-78 -94 -195.5 -148.5t-240.5 -54.5q-158 0 -285 81t-188 225 q-35 -133 -156 -219.5t-285 -86.5zM954 555h840q-10 141 -72 236q-109 190 -340 190q-180 0 -299 -120t-129 -306zM489 43q164 0 276 98.5t112 233.5v82q-164 100 -363 100q-154 0 -248 -71.5t-94 -190.5q0 -113 88 -182.5t229 -69.5z" glyph-name="aeacute" horiz-adv-x="1957" unicode="ǽ"/><glyph d="M670 1462l-6 8q-16 23 16 41l301 195q33 20 49 -6l12 -17q16 -25 -14 -43l-317 -178q-29 -16 -41 0zM1219 1231q135 -94 211.5 -241.5t76.5 -323.5q0 -293 -199.5 -492t-502.5 -199q-199 0 -361 93l-92 -142q-14 -27 -43 -26h-16q-14 0 -21.5 9t0.5 19l115 174 q-133 96 -209 243t-76 321q0 293 201 491.5t502 198.5q197 0 354 -88l103 155q18 27 45 27h16q14 0 20.5 -9t-0.5 -20zM178 666q0 -154 66.5 -285t183.5 -217l690 1042q-141 80 -313 80q-266 0 -446.5 -179t-180.5 -441zM805 45q266 0 446.5 179t180.5 442q0 156 -68 287.5 t-186 215.5l-693 -1042q148 -82 320 -82z" glyph-name="Oslashacute" horiz-adv-x="1609" unicode="Ǿ"/><glyph d="M465 1204l-4 6q-16 20 12 43l277 222q33 29 53 4l6 -11q25 -29 -8 -51l-291 -207q-29 -22 -45 -6zM975 938q205 -158 205 -426q0 -227 -155 -382t-388 -155q-154 0 -283 74l-80 -115q-18 -29 -45 -28h-22q-33 0 -14 28l106 152q-205 158 -205 426q0 227 154.5 382 t388.5 155q154 0 283 -74l98 141q18 29 45 29h22q33 0 15 -29zM170 512q0 -233 170 -367l539 773q-109 63 -242 63q-201 0 -334 -134t-133 -335zM637 43q203 0 335 134t132 335q0 231 -170 369l-539 -775q109 -63 242 -63z" glyph-name="oslashacute" horiz-adv-x="1273" unicode="ǿ"/><glyph d="M549 -25q-145 0 -271 57.5t-198 168.5q-20 35 2 51l8 6q27 20 49 -8q59 -96 170 -150.5t234 -54.5q154 0 252 81t98 204q0 51 -19.5 93t-42 68.5t-76 57.5t-82 43t-103 41t-97.5 39q-76 31 -123 56.5t-101 66.5t-81 98t-27 129q0 145 110.5 239.5t289.5 94.5 q233 0 368 -160q27 -35 2 -53l-6 -4q-31 -18 -53 8q-125 139 -311 139q-143 0 -232.5 -73.5t-89.5 -186.5q0 -102 73 -163.5t218 -121.5q25 -10 80 -31.5t82.5 -32.5t75 -35t73 -41t58 -47t49 -59.5t29 -70.5t12.5 -88q0 -160 -118 -260.5t-302 -100.5zM465 -412 q-25 0 -21 29l45 240q6 31 37 30h19q35 0 24 -30l-67 -240q-8 -29 -29 -29h-8z" glyph-name="Scommaaccent" horiz-adv-x="1060" unicode="Ș"/><glyph d="M438 -25q-252 0 -364 187q-16 27 6 43l8 6q27 16 43 -8q98 -160 303 -160q123 0 197 56.5t74 152.5q0 27 -5.5 50.5t-19.5 44t-25.5 35.5t-37 32.5t-41 28t-48 24.5t-49 21.5t-54.5 21.5t-52 20q-115 49 -178.5 105.5t-63.5 155.5q0 117 88 187.5t221 70.5 q199 0 305 -152q20 -25 0 -43l-8 -6q-25 -20 -43 4q-96 129 -256 129q-102 0 -167.5 -51t-65.5 -133q0 -76 53 -121t152 -86q188 -74 245 -111q123 -84 123 -227q0 -125 -93 -201t-247 -76zM358 -412q-25 0 -20 29l45 240q6 31 37 30h18q35 0 25 -30l-68 -240 q-8 -29 -28 -29h-9z" glyph-name="scommaaccent" horiz-adv-x="868" unicode="ș"/><glyph d="M526 0q-29 0 -28 33v1231h-432q-33 0 -33 28v11q0 29 33 28h944q33 0 32 -28v-11q0 -29 -32 -28h-437v-1231q0 -33 -30 -33h-17zM463 -403q-25 0 -21 28l45 240q6 31 37 31h19q35 0 24 -31l-67 -240q-8 -29 -29 -28h-8z" glyph-name="uni021A" horiz-adv-x="1075" unicode="Ț"/><glyph d="M666 72q16 -25 -15 -41q-78 -55 -170 -56q-129 0 -200.5 76t-71.5 217v695h-156q-31 0 -30 28v8q0 29 30 29h156v332q0 25 24 29l19 6q29 8 29 -25v-342h307q31 0 30 -29v-8q0 -29 -30 -28h-307v-691q0 -229 204 -229q72 0 131 43q27 18 46 -6zM436 -113q35 0 25 -30 l-68 -240q-8 -29 -28 -29h-9q-25 0 -20 29l45 240q6 31 37 30h18z" glyph-name="uni021B" horiz-adv-x="661" unicode="ț"/><glyph d="M102 -369q-29 -18 -45 9l-4 4q-18 29 17 45q74 47 106.5 105.5t32.5 164.5v1004h-135q-31 0 -31 28v8q0 29 31 29h180q27 0 27 -29v-1036q0 -131 -43.5 -202t-135.5 -130z" glyph-name="uni0237" horiz-adv-x="456" unicode="ȷ"/><glyph d="M627 1264q35 -20 14 -43l-6 -7q-14 -18 -45 0l-221 150l-222 -150q-29 -18 -45 0l-4 7q-18 23 13 43l235 172q23 16 45 0z" glyph-name="circumflex" horiz-adv-x="733" unicode="ˆ"/><glyph d="M641 1317q20 -23 -14 -43l-236 -170q-23 -16 -45 0l-235 170q-33 23 -13 43l6 8q14 18 43 0l222 -151l223 151q27 18 43 0z" glyph-name="caron" horiz-adv-x="731" unicode="ˇ"/><glyph d="M374.5 1192q-102.5 0 -175 60.5t-86.5 166.5q-6 29 24 29h10q25 0 33 -29q31 -164 195 -164q74 0 126 42t66 122q6 29 33 29h10q33 0 25 -29q-14 -106 -86 -166.5t-174.5 -60.5z" glyph-name="breve" horiz-adv-x="749" unicode="˘"/><glyph d="M125 1264q-35 0 -58.5 23.5t-23.5 56t23.5 56t58.5 23.5q33 0 56.5 -23.5t23.5 -56t-23.5 -56t-56.5 -23.5z" glyph-name="dotaccent" horiz-adv-x="229" unicode="˙"/><glyph d="M256 1182q-74 0 -124 49t-50 120.5t50 121t124 49.5q76 0 126 -49.5t50 -121t-50 -120.5t-126 -49zM256 1239q51 0 82 34t31 79t-31 77.5t-82 32.5t-81 -32.5t-30 -77.5t30 -79t81 -34z" glyph-name="ring" horiz-adv-x="514" unicode="˚"/><glyph d="M369 -352q-96 -39 -186.5 7t-90.5 148q0 86 65.5 144.5t131.5 83.5l49 -23q-35 -12 -70 -31.5t-71.5 -65.5t-36.5 -99q0 -78 59.5 -107t130.5 -2q27 8 37 -12l2 -6q17 -25 -20 -37z" glyph-name="ogonek" horiz-adv-x="514" unicode="˛"/><glyph d="M109 1221q-27 0 -27 28q0 76 37 121t102 45q63 0 161.5 -65.5t152.5 -65.5q82 0 81 100q0 31 27 31h8q27 0 27 -31q0 -76 -37 -119.5t-102 -43.5q-63 0 -166 65.5t-150 65.5q-80 0 -80 -103q0 -29 -28 -28h-6z" glyph-name="tilde" horiz-adv-x="749" unicode="˜"/><glyph d="M117 1190q-31 0 -17 27l115 251q14 31 43 31h18q16 0 23.5 -10t-0.5 -25l-137 -245q-16 -29 -39 -29h-6zM387 1190q-29 0 -16 27l114 251q14 31 43 31h19q16 0 23.5 -10t-1.5 -25l-137 -245q-14 -29 -39 -29h-6z" glyph-name="hungarumlaut" horiz-adv-x="675" unicode="˝"/><glyph d="M-59 1204q-14 -18 -45 6l-291 207q-33 23 -8 51l8 11q20 23 53 -4l276 -222q29 -25 13 -43z" glyph-name="gravecomb" unicode="̀"/><glyph d="M-436 1204l-4 6q-16 20 12 43l276 222q33 29 54 4l6 -11q25 -29 -8 -51l-291 -207q-29 -22 -45 -6z" glyph-name="acutecomb" unicode="́"/><glyph d="M-113 1264q35 -20 15 -43l-6 -7q-14 -18 -43 0l-224 150l-221 -150q-29 -18 -43 0l-6 7q-18 23 12 43l236 172q23 16 45 0z" glyph-name="uni0302" unicode="̂"/><glyph d="M-651 1219q-29 0 -29 28q0 78 38 122t103 44q63 0 161.5 -65.5t152.5 -65.5q80 0 80 102q0 29 28 29h6q29 0 29 -29q0 -78 -37 -121.5t-102 -43.5q-63 0 -165.5 65.5t-150.5 65.5q-80 0 -79 -103q0 -29 -29 -28h-6z" glyph-name="tildecomb" unicode="̃"/><glyph d="M-633 1294q-31 0 -31 29v10q0 29 31 29h492q31 0 30 -29v-10q0 -29 -30 -29h-492z" glyph-name="uni0304" unicode="̄"/><glyph d="M-372.5 1192q-102.5 0 -175.5 60.5t-87 166.5q-8 29 25 29h10q27 0 33 -29q31 -164 194 -164q74 0 126 42t67 122q8 29 33 29h10q31 0 24 -29q-14 -106 -85.5 -166.5t-174 -60.5z" glyph-name="uni0306" unicode="̆"/><glyph d="M-160 1264q-33 0 -56.5 23.5t-23.5 56t23.5 56t56.5 23.5q35 0 58.5 -23.5t23.5 -56t-23.5 -56t-58.5 -23.5z" glyph-name="uni0307" unicode="̇"/><glyph d="M-491.5 1264q-32.5 0 -56 23.5t-23.5 56t23.5 56t56 23.5t56 -23.5t23.5 -56t-23.5 -56t-56 -23.5zM-198.5 1264q-34.5 0 -57.5 23.5t-23 56t23 56t57.5 23.5t57 -23.5t22.5 -56t-22.5 -56t-57 -23.5z" glyph-name="uni0308" unicode="̈"/><glyph d="M-258 1182q-74 0 -124 49t-50 120.5t50 121t124 49.5q76 0 126 -49.5t50 -121t-50 -120.5t-126 -49zM-258 1239q51 0 82 34t31 79t-31 77.5t-82 32.5t-81 -32.5t-30 -77.5t30 -79t81 -34z" glyph-name="uni030A" unicode="̊"/><glyph d="M-563 1190q-31 0 -17 27l115 251q14 31 43 31h19q16 0 23 -10t-1 -25l-137 -245q-16 -29 -39 -29h-6zM-293 1190q-29 0 -16 27l114 251q14 31 43 31h19q16 0 23.5 -10t-1.5 -25l-137 -245q-14 -29 -39 -29h-6z" glyph-name="uni030B" unicode="̋"/><glyph d="M-98 1417q18 -23 -15 -45l-235 -170q-23 -16 -45 0l-236 170q-31 25 -12 45l6 6q16 18 43 0l221 -149l224 149q29 18 43 0z" glyph-name="uni030C" unicode="̌"/><glyph d="M-88 1536q27 0 20 -29l-53 -280q-6 -31 -35 -31h-20q-33 0 -23 33l76 278q8 29 29 29h6z" glyph-name="uni0312" unicode="̒"/><glyph d="M-262 -401q-25 0 -21 28l45 240q6 31 37 31h19q35 0 24 -31l-67 -240q-8 -29 -29 -28h-8z" glyph-name="uni0326" unicode="̦"/><glyph d="M-348 -115q205 10 205 -131q0 -68 -50.5 -107.5t-138.5 -39.5q-90 0 -166 47q-35 20 -18 45l4 6q16 25 43 6q72 -45 135 -45q55 0 87 22.5t32 63.5q0 51 -49 70.5t-125 5.5q-20 -4 -29.5 3t-3.5 26q6 25 17.5 76t17.5 75v21h68v-21z" glyph-name="uni0327" unicode="̧"/><glyph d="M-162 -352q-98 -39 -187 7t-89 148q0 86 65.5 144.5t130.5 83.5l47 -23q-35 -12 -69.5 -31.5t-71.5 -65.5t-37 -99q0 -78 60.5 -107t132.5 -2q27 8 37 -12l2 -6q12 -25 -21 -37z" glyph-name="uni0328" unicode="̨"/><glyph d="M-684 639q-31 0 -31 29v8q0 29 31 29h633q31 0 31 -29v-8q0 -29 -31 -29h-633z" glyph-name="uni0335" unicode="̵"/><glyph d="M-1323 956q-31 0 -31 27v6q0 27 31 27h1212q31 0 31 -27v-6q0 -27 -31 -27h-1212z" glyph-name="uni0336" unicode="̶"/><glyph d="M-449 584q-14 -8 -26 -2t-12 22v4q0 20 28 35l357 184q16 8 27.5 2t11.5 -22v-6q0 -20 -29 -35z" glyph-name="uni0337" unicode="̷"/><glyph d="M-1118 59q-33 0 -15 29l826 1182q18 29 45 28h22q31 0 15 -28l-828 -1182q-16 -29 -45 -29h-20z" glyph-name="uni0338" unicode="̸"/><glyph d="M891 1642q-31 16 -12 44l10 16q16 27 49 6l303 -195q29 -18 14 -40l-6 -11q-12 -16 -41 0zM1917 1331q14 0 19.5 -10t0.5 -23l-462 -1280q-10 -29 -33 -28h-4q-25 0 -33 28l-365 1172l-364 -1172q-8 -29 -33 -28h-4q-23 0 -33 28l-428 1180q-35 86 -88 88 q-27 0 -55.5 -16.5t-40.5 4.5l-4 10q-14 23 8 41q41 31 92 31q55 0 92 -31q45 -35 72 -111l387 -1077l367 1176q8 29 30 28h4q23 0 31 -28l369 -1182l420 1172q12 29 41 28h14z" glyph-name="Wgrave" horiz-adv-x="2009" unicode="Ẁ"/><glyph d="M692 1417q-33 23 -8 51l8 11q20 23 53 -4l277 -222q29 -25 12 -43l-6 -6q-14 -18 -45 6zM1532 1028q33 0 20 -31l-342 -979q-8 -29 -30 -28h-2q-18 0 -31 28l-295 877l-297 -877q-12 -29 -31 -28h-2q-23 0 -30 28l-304 873q-16 49 -34.5 71.5t-49.5 22.5q-20 0 -53 -18 q-23 -16 -41 6l-2 4q-14 25 6 41q35 31 95 31q104 0 147 -136l264 -784l299 883q8 27 31 26h4q23 0 33 -26l295 -883l295 870q10 29 36 29h19z" glyph-name="wgrave" horiz-adv-x="1611" unicode="ẁ"/><glyph d="M868 1462l-6 8q-16 23 17 41l301 195q33 20 49 -6l12 -17q16 -25 -14 -43l-318 -178q-29 -16 -41 0zM1917 1331q14 0 19.5 -10t0.5 -23l-462 -1280q-10 -29 -33 -28h-4q-25 0 -33 28l-365 1172l-364 -1172q-8 -29 -33 -28h-4q-23 0 -33 28l-428 1180q-35 86 -88 88 q-27 0 -55.5 -16.5t-40.5 4.5l-4 10q-14 23 8 41q41 31 92 31q55 0 92 -31q45 -35 72 -111l387 -1077l367 1176q8 29 30 28h4q23 0 31 -28l369 -1182l420 1172q12 29 41 28h14z" glyph-name="Wacute" horiz-adv-x="2009" unicode="Ẃ"/><glyph d="M678 1204l-4 6q-16 20 12 43l277 222q33 29 53 4l6 -11q25 -29 -8 -51l-291 -207q-29 -22 -45 -6zM1532 1028q33 0 20 -31l-342 -979q-8 -29 -30 -28h-2q-18 0 -31 28l-295 877l-297 -877q-12 -29 -31 -28h-2q-23 0 -30 28l-304 873q-16 49 -34.5 71.5t-49.5 22.5 q-20 0 -53 -18q-23 -16 -41 6l-2 4q-14 25 6 41q35 31 95 31q104 0 147 -136l264 -784l299 883q8 27 31 26h4q23 0 33 -26l295 -883l295 870q10 29 36 29h19z" glyph-name="wacute" horiz-adv-x="1611" unicode="ẃ"/><glyph d="M880.5 1505q-32.5 0 -57 23.5t-24.5 58.5t24.5 58.5t57 23.5t57.5 -23.5t25 -58.5t-25 -58.5t-57.5 -23.5zM1202 1505q-35 0 -58.5 23.5t-23.5 58.5t23.5 58.5t58.5 23.5t58.5 -23.5t23.5 -58.5q0 -33 -24.5 -57.5t-57.5 -24.5zM1917 1331q14 0 19.5 -10t0.5 -23 l-462 -1280q-10 -29 -33 -28h-4q-25 0 -33 28l-365 1172l-364 -1172q-8 -29 -33 -28h-4q-23 0 -33 28l-428 1180q-35 86 -88 88q-27 0 -55.5 -16.5t-40.5 4.5l-4 10q-14 23 8 41q41 31 92 31q55 0 92 -31q45 -35 72 -111l387 -1077l367 1176q8 29 30 28h4q23 0 31 -28 l369 -1182l420 1172q12 29 41 28h14z" glyph-name="Wdieresis" horiz-adv-x="2009" unicode="Ẅ"/><glyph d="M704.5 1264q-32.5 0 -56 23.5t-23.5 56t23.5 56t56 23.5t56 -23.5t23.5 -56t-23.5 -56t-56 -23.5zM997.5 1264q-34.5 0 -57 23.5t-22.5 56t22.5 56t57 23.5t57 -23.5t22.5 -56t-22.5 -56t-57 -23.5zM1532 1028q33 0 20 -31l-342 -979q-8 -29 -30 -28h-2q-18 0 -31 28 l-295 877l-297 -877q-12 -29 -31 -28h-2q-23 0 -30 28l-304 873q-16 49 -34.5 71.5t-49.5 22.5q-20 0 -53 -18q-23 -16 -41 6l-2 4q-14 25 6 41q35 31 95 31q104 0 147 -136l264 -784l299 883q8 27 31 26h4q23 0 33 -26l295 -883l295 870q10 29 36 29h19z" glyph-name="wdieresis" horiz-adv-x="1611" unicode="ẅ"/><glyph d="M756 -25q-172 0 -303 91q-29 18 -11 45l7 10q16 27 49 2q111 -76 252 -76q162 0 262 92t100 234q0 139 -100.5 230t-263.5 91h-60q-31 0 -31 31v16q0 23 23 50l311 358q-113 135 -317 135q-182 0 -297 -121t-115 -313v-817q0 -33 -31 -33h-16q-29 0 -29 33v817 q0 223 136.5 364.5t353.5 141.5q244 0 393 -176q20 -23 0 -47l-317 -371h36q178 -6 289 -116.5t111 -272.5q0 -170 -119.5 -284t-312.5 -114z" glyph-name="uni1E9E" horiz-adv-x="1282" unicode="ẞ"/><glyph d="M520 1642q-31 16 -12 44l10 16q16 27 49 6l303 -195q29 -18 15 -40l-6 -11q-12 -16 -41 0zM1192 1331q14 0 19.5 -11t-1.5 -22l-487 -788v-477q0 -33 -31 -33h-14q-31 0 -31 33v477l-416 672q-57 96 -112 102q-35 6 -64 -16q-29 -16 -41 6l-6 10q-12 20 10 39 q39 33 97 33q59 0 102 -37t86 -109l383 -630l442 725q14 27 41 26h23z" glyph-name="Ygrave" horiz-adv-x="1298" unicode="Ỳ"/><glyph d="M457 1417q-33 23 -8 51l8 11q20 23 53 -4l276 -222q29 -25 13 -43l-6 -6q-14 -18 -45 6zM1059 1028q14 0 19 -10t1 -21l-532 -1192q-80 -180 -228 -180q-70 0 -122 35q-29 16 -17 39l4 8q12 27 47 8q45 -27 88 -26q100 0 160 129l96 215l-376 858q-20 49 -39 71.5 t-47 22.5q-25 0 -54 -20q-25 -16 -41 8l-2 2q-16 25 7 43q39 31 94 31t87 -34t62 -102l350 -792l385 878q10 29 35 29h23z" glyph-name="ygrave" horiz-adv-x="1128" unicode="ỳ"/><glyph d="M393 1450q-29 0 -28 29q0 78 43 123t112 45q63 0 170 -67t160 -67q41 0 66.5 27t25.5 78q0 31 29 31h8q29 0 29 -31q0 -78 -43 -123t-113 -45q-68 0 -175.5 67.5t-154.5 67.5q-41 0 -66.5 -27.5t-25.5 -78.5q0 -29 -29 -29h-8zM1192 1331q14 0 19.5 -11t-1.5 -22 l-487 -788v-477q0 -33 -31 -33h-14q-31 0 -31 33v477l-416 672q-57 96 -112 102q-35 6 -64 -16q-29 -16 -41 6l-6 10q-12 20 10 39q39 33 97 33q59 0 102 -37t86 -109l383 -630l442 725q14 27 41 26h23z" glyph-name="uni1EF8" horiz-adv-x="1298" unicode="Ỹ"/><glyph d="M342 1219q-29 0 -29 28q0 78 38 122t104 44q63 0 161.5 -65.5t151.5 -65.5q80 0 80 102q0 29 29 29h6q29 0 28 -29q0 -78 -36.5 -121.5t-102.5 -43.5q-63 0 -165.5 65.5t-149.5 65.5q-80 0 -80 -103q0 -29 -29 -28h-6zM1059 1028q14 0 19 -10t1 -21l-532 -1192 q-80 -180 -228 -180q-70 0 -122 35q-29 16 -17 39l4 8q12 27 47 8q45 -27 88 -26q100 0 160 129l96 215l-376 858q-20 49 -39 71.5t-47 22.5q-25 0 -54 -20q-25 -16 -41 8l-2 2q-16 25 7 43q39 31 94 31t87 -34t62 -102l350 -792l385 878q10 29 35 29h23z" glyph-name="uni1EF9" horiz-adv-x="1128" unicode="ỹ"/><glyph d="M174 584q-31 0 -31 26v6q0 29 31 29h803q31 0 31 -29v-6q0 -27 -31 -26h-803z" glyph-name="endash" horiz-adv-x="1150" unicode="–"/><glyph d="M174 584q-31 0 -31 26v6q0 29 31 29h1106q29 0 29 -29v-6q0 -27 -29 -26h-1106z" glyph-name="emdash" horiz-adv-x="1452" unicode="—"/><glyph d="M281 1401q14 -14 0 -35q-74 -94 -80 -178q33 -4 54 -25.5t21 -54.5t-24.5 -56.5t-59 -23.5t-58 24.5t-23.5 63.5q-2 113 129 277q23 25 36 10z" glyph-name="quoteleft" horiz-adv-x="401" unicode="‘"/><glyph d="M217 1405q35 0 58.5 -24.5t25.5 -63.5q0 -113 -131 -277q-20 -25 -37 -10l-4 2q-14 14 0 35q74 94 80 178q-33 4 -54.5 25.5t-21.5 54.5t24.5 56.5t59.5 23.5z" glyph-name="quoteright" horiz-adv-x="393" unicode="’"/><glyph d="M197 137q35 0 59.5 -25.5t24.5 -64.5q0 -113 -131 -276q-20 -25 -37 -11l-4 4q-14 14 0 33q72 96 81 178q-33 2 -54 26t-21 54q0 35 24.5 58.5t57.5 23.5z" glyph-name="quotesinglbase" horiz-adv-x="387" unicode="‚"/><glyph d="M276 1403l5 -2q14 -14 0 -35q-74 -94 -80 -178q33 -4 54 -25.5t21 -54.5t-24.5 -56.5t-59 -23.5t-58 24.5t-23.5 63.5q-2 113 129 277q22 24 36 10zM512 1401q14 -14 0 -35q-72 -92 -82 -178q35 -4 56.5 -25.5t21.5 -54.5t-24.5 -56.5t-59.5 -23.5t-58.5 24.5t-25.5 63.5 q0 113 131 277q20 25 37 10z" glyph-name="quotedblleft" horiz-adv-x="632" unicode="“"/><glyph d="M217 1405q35 0 58.5 -24.5t25.5 -63.5q0 -113 -131 -277q-20 -25 -37 -10l-4 2q-14 14 0 35q74 94 80 178q-33 4 -54.5 25.5t-21.5 54.5t24.5 56.5t59.5 23.5zM530 1317q2 -113 -129 -277q-23 -25 -36 -10l-5 2q-14 14 0 35q74 94 80 178q-33 4 -54 25.5t-21 54.5 t24.5 56.5t59 23.5t58 -24.5t23.5 -63.5z" glyph-name="quotedblright" horiz-adv-x="624" unicode="”"/><glyph d="M197 137q35 0 59.5 -25.5t24.5 -64.5q0 -113 -131 -276q-20 -25 -37 -11l-4 4q-14 14 0 33q72 96 81 178q-33 2 -54 26t-21 54q0 35 24.5 58.5t57.5 23.5zM510 47q2 -113 -129 -276q-23 -25 -37 -11l-4 4q-14 14 0 33q74 98 80 178q-33 2 -54.5 26t-21.5 54 q0 35 24.5 58.5t59.5 23.5t58.5 -25.5t23.5 -64.5z" glyph-name="quotedblbase" horiz-adv-x="618" unicode="„"/><glyph d="M762 897q29 0 29 -27v-10q0 -27 -29 -26h-295v-1123q0 -31 -29 -30h-16q-29 0 -29 30v1123h-295q-29 0 -28 26v10q0 27 28 27h295v403q0 31 29 31h16q29 0 29 -31v-403h295z" glyph-name="dagger" horiz-adv-x="860" unicode="†"/><glyph d="M803 834h-297v-635h297q29 0 28 -27v-10q0 -27 -28 -27h-297v-424q0 -31 -29 -30h-14q-29 0 -29 30v424h-297q-29 0 -28 27v10q0 27 28 27h297v635h-297q-29 0 -28 26v10q0 27 28 27h297v403q0 31 29 31h14q29 0 29 -31v-403h297q29 0 28 -27v-10q1 -26 -28 -26z" glyph-name="daggerdbl" horiz-adv-x="940" unicode="‡"/><glyph d="M344.5 457q-65.5 0 -112 46t-46.5 111.5t46.5 111.5t112 46t111.5 -46t46 -111.5t-46 -111.5t-111.5 -46z" glyph-name="bullet" horiz-adv-x="686" unicode="•"/><glyph d="M205 -25q-33 0 -56.5 24t-23.5 56.5t23.5 57t56.5 24.5t57.5 -23.5t24.5 -58.5q0 -33 -24.5 -56.5t-57.5 -23.5zM493.5 -25q-32.5 0 -56 24t-23.5 56.5t23.5 57t56.5 24.5q35 0 58 -23.5t23 -58.5q0 -33 -24.5 -56.5t-57 -23.5zM780.5 -25q-32.5 0 -56.5 24t-24 56.5 t24 57t56 24.5q35 0 58.5 -23.5t23.5 -58.5q0 -33 -24.5 -56.5t-57 -23.5z" glyph-name="ellipsis" horiz-adv-x="987" unicode="…"/><glyph d="M369 588q-121 0 -199 106.5t-78 276.5q0 174 78 279.5t199 105.5q123 0 199.5 -105.5t76.5 -279.5q0 -172 -76.5 -277.5t-199.5 -105.5zM240 0q-14 0 -19.5 8t2.5 21l983 1274q23 29 45 28h17q14 0 20 -8t-2 -20l-985 -1274q-23 -29 -45 -29h-16zM368.5 653 q94.5 0 152 87t57.5 230.5t-57.5 231.5t-152 88t-150.5 -88t-56 -231.5t56 -230.5t150.5 -87zM1143 -25q-121 0 -199 105.5t-78 277.5t78 278.5t199 106.5t198.5 -106.5t77.5 -278.5t-77.5 -277.5t-198.5 -105.5zM1821 -25q-121 0 -199 105.5t-78 277.5t78 278.5t199 106.5 q123 0 199.5 -106.5t76.5 -278.5t-76.5 -277.5t-199.5 -105.5zM1143 41q94 0 151.5 87t57.5 230.5t-57.5 231.5t-151.5 88t-151.5 -88t-57.5 -231.5t57.5 -230.5t151.5 -87zM1820.5 41q94.5 0 152 87t57.5 230.5t-57.5 231.5t-152 88t-150.5 -88t-56 -231.5t56 -230.5 t150.5 -87z" glyph-name="perthousand" horiz-adv-x="2168" unicode="‰"/><glyph d="M176 616l238 -276q23 -27 2 -43l-6 -4q-25 -20 -48 6l-256 293q-20 23 0 47l256 293q23 27 48 6l6 -4q18 -18 -2 -43z" glyph-name="guilsinglleft" horiz-adv-x="565" unicode="‹"/><glyph d="M459 639q20 -25 0 -47l-256 -293q-23 -27 -47 -6l-6 4q-20 16 2 43l237 276l-237 275q-20 25 -2 43l6 4q25 20 47 -6z" glyph-name="guilsinglright" horiz-adv-x="563" unicode="›"/><glyph d="M-6 0q-14 0 -19.5 8t2.5 21l984 1274q23 29 45 28h16q14 0 20.5 -8t-2.5 -20l-985 -1274q-23 -29 -45 -29h-16z" glyph-name="fraction" horiz-adv-x="1017" unicode="⁄"/><glyph d="M1389 256q23 -16 0 -41q-86 -113 -215.5 -176.5t-278.5 -63.5q-229 0 -400 138.5t-227 361.5h-172q-35 0 -26 29l2 8q8 27 37 27h147q-10 68 -10 127q0 51 6 96h-141q-35 0 -27 29l2 8q8 27 35 26h141q49 233 222 382t411 149q150 0 279 -63.5t215 -176.5q23 -25 0 -41 l-13 -10q-20 -16 -45 8q-76 98 -191.5 155.5t-248.5 57.5q-201 0 -354.5 -129t-200.5 -332h614q16 0 23.5 -6t5.5 -20l-2 -11q-8 -27 -37 -26h-616q-6 -45 -7 -96q0 -66 13 -127h608q35 0 27 -27l-2 -10q-8 -27 -35 -27h-584q55 -190 204.5 -310t342.5 -120 q133 0 248.5 57.5t191.5 155.5q25 25 45 8z" glyph-name="Euro" horiz-adv-x="1495" unicode="€"/><glyph d="M532 1331q27 0 27 -24v-9q0 -25 -27 -24h-188v-580q0 -29 -29 -28h-12q-27 0 -27 28v580h-184q-29 0 -29 24v9q0 25 29 24h440zM1272 694q2 -29 -29 -28h-8q-27 0 -29 28l-53 488l-197 -488q-10 -29 -34 -28h-7q-23 0 -32 28l-197 492l-51 -492q-2 -29 -29 -28h-8 q-31 0 -29 28l66 611q2 27 27 26h10q23 0 33 -26l215 -553l217 553q10 27 30 26h11q25 0 26 -26z" glyph-name="trademark" horiz-adv-x="1421" unicode="™"/><glyph d="M178 635q-31 0 -31 27v6q0 29 31 28h881q31 0 31 -28v-6q0 -27 -31 -27h-881z" glyph-name="minus" horiz-adv-x="1236" unicode="−"/><glyph d="M807 721q-92 0 -235.5 51t-213.5 51q-68 0 -97.5 -20.5t-41.5 -63.5q-8 -29 -33 -28h-10q-25 0 -22 28q10 63 61 107.5t143 44.5q90 0 229.5 -51.5t219.5 -51.5q68 0 97.5 20.5t41.5 63.5q6 31 29 31h10q27 0 25 -31q-10 -63 -60.5 -107t-142.5 -44zM807 420 q-92 0 -235.5 51t-213.5 51q-68 0 -97.5 -20.5t-41.5 -63.5q-8 -29 -33 -28h-10q-27 0 -22 28q10 63 61 107.5t143 44.5q90 0 229.5 -51.5t219.5 -51.5q117 0 139 86q6 29 29 29h10q29 0 25 -29q-10 -66 -60.5 -109.5t-142.5 -43.5z" glyph-name="approxequal" horiz-adv-x="1157" unicode="≈"/><glyph d="M1073 801h-319l-160 -269h479q31 0 31 -28v-6q0 -27 -31 -27h-516l-162 -270q-16 -31 -43 -31h-18q-12 0 -17.5 9t2.5 24l160 268h-289q-29 0 -28 27v6q0 29 28 28h326l160 269h-486q-29 0 -28 26v7q0 29 28 28h521l161 271q16 31 43 30h19q14 0 19 -8t-3 -25l-159 -268 h282q31 0 31 -28v-7q0 -26 -31 -26z" glyph-name="notequal" horiz-adv-x="1234" unicode="≠"/><glyph d="M1435.5 1174q-53.5 0 -87 35.5t-33.5 88.5q0 51 33.5 86t87 35t87 -34.5t33.5 -86.5q0 -53 -33.5 -88.5t-87 -35.5zM127 670q0 303 10 446l13 182h194q2 -47 10 -184q10 -190 11 -444h-238zM1141 657q-160 0 -160 131q0 31 2 103t2 74h-47v170l238 73l8 -61h352 q8 -104 8 -109q8 -100 8 -368h-233q0 248 4 295h-117l4 -129q0 -2 4 -2q2 -2 19 -3q10 0 27 5l8 4v-148q-2 -8 -21 -18q-36 -17 -106 -17zM586 657q-182 0 -183 230q0 133 63.5 200.5t207.5 67.5q238 0 237 -229v-256h-155l-19 118q-24 -131 -151 -131zM1599 670 q0 244 11 370q6 66 12 107h156l6 -51q6 -92 6 -101l4 21q6 18 16.5 39.5t27.5 45t48 39t70 15.5q82 0 115.5 -48t35.5 -159l4 -278h-229q0 51 2 110.5t2 81.5q0 51 -31 51q-35 0 -34 -51q0 -23 5 -82t5 -110h-232zM2388 657q-123 0 -184.5 65.5t-61.5 178.5q0 254 246 254 q141 0 194.5 -67.5t53.5 -186.5q0 -113 -61.5 -178.5t-186.5 -65.5zM664 817q49 0 49 62q0 55 -49 55q-43 0 -43 -55q0 -62 43 -62zM2388 817q49 0 49 62q0 55 -49 55q-47 0 -47 -55q0 -62 47 -62zM694 12q-88 0 -149 21q-29 8 -41 22v170q12 -10 37 -20q45 -18 110 -19 q80 0 125 37q20 16 23 37q-8 -6 -23 -16q-33 -14 -94 -15q-190 0 -190 152v16h-93l4 -125q27 0 43 7l15 6v-152q-10 -10 -31 -18q-45 -16 -106 -17q-150 0 -150 131q0 23 1 63t2 70.5t1 34.5h-55v170l248 82l8 -59h338q-2 -39 -2 -107q-2 -55 -2 -110q0 -53 32 -54 q31 0 31 54q0 2 -1 18.5t-1 42v49.5q-2 31 -2 107h217l6 -82q6 -78 6 -215q0 -147 -73.5 -214t-233.5 -67zM1040 12q0 295 11 420l12 158h160l6 -60q8 -43 8 -94q29 170 160 170q74 0 116.5 -60.5t42.5 -168.5q0 -135 -67.5 -207t-192.5 -72q0 -14 2 -22q0 -6 1 -27.5 t1 -36.5h-260zM1864 98q-137 0 -205 66.5t-68 181.5q0 260 252 260q106 0 168 -61.5t62 -171.5q0 -10 -7 -54l-4 -20h-245q2 -16 12 -25q25 -25 78 -24.5t80 14.5q20 12 24 17v-150q-4 -4 -35 -16q-49 -17 -112 -17zM2195.5 442q-30.5 0 -53 22.5t-22.5 53.5t22.5 53.5 t53 22.5t53 -22.5t22.5 -53.5t-22.5 -53.5t-53 -22.5zM2195.5 457q24.5 0 43 18.5t18.5 43t-18.5 43t-43 18.5t-43 -18.5t-18.5 -43t18.5 -43t43 -18.5zM2167 481v76h33q31 0 30 -25q0 -18 -16 -24l16 -27h-18l-14 23h-15v-23h-16zM2183 518h17q14 0 14 12.5t-14 12.5h-17 v-25zM1804 350h80v4v4q2 4 2 9q0 39 -37 39q-45 -1 -45 -56zM1266 264q27 4 39 10q39 23 38 64q0 43 -38 43q-47 0 -48 -62q0 -18 5 -38z" glyph-name="uniF8FF" horiz-adv-x="2758" unicode=""/><glyph d="M377 1462l-6 8q-16 23 16 41l301 195q33 20 49 -6l13 -17q16 -25 -15 -43l-317 -178q-29 -16 -41 0zM430 -25q-225 0 -362 187q-20 29 0 47l12 8q27 20 47 -8q127 -164 303 -164q133 0 218 85t85 226v908h-399q-33 0 -33 28v11q0 29 33 28h442q33 0 33 -33v-942 q0 -174 -107.5 -277.5t-271.5 -103.5z" glyph-name="J.aalt" horiz-adv-x="999"/><glyph d="M784 -25q-287 0 -484.5 200t-197.5 490.5t197 490.5t487 200q270 0 461 -166q25 -23 2 -45l-6 -4q-20 -25 -53 0q-168 145 -406 145q-254 0 -430 -180t-176 -440t178.5 -440.5t431.5 -180.5q260 0 441 145v428h-418q-31 0 -31 29v12q0 27 31 27h463q31 0 31 -29v-469 q0 -29 -27 -53q-201 -160 -494 -160z" glyph-name="G.aalt" horiz-adv-x="1427"/><glyph d="M778 1450q-106 0 -184 68.5t-78 175.5q0 31 31 30h8q29 0 29 -30q0 -82 57 -131.5t137 -49.5t136.5 49.5t56.5 131.5q0 31 30 30h9q31 0 30 -30q0 -106 -79 -175t-183 -69zM784 -25q-287 0 -484.5 200t-197.5 490.5t197 490.5t487 200q270 0 461 -166q25 -23 2 -45l-6 -4 q-20 -25 -53 0q-168 145 -406 145q-254 0 -430 -180t-176 -440t178.5 -440.5t431.5 -180.5q260 0 441 145v428h-418q-31 0 -31 29v12q0 27 31 27h463q31 0 31 -29v-469q0 -29 -27 -53q-201 -160 -494 -160z" glyph-name="Gbreve.aalt" horiz-adv-x="1427"/><glyph d="M784 -25q-287 0 -484.5 200t-197.5 490.5t197 490.5t487 200q270 0 461 -166q25 -23 2 -45l-6 -4q-20 -25 -53 0q-168 145 -406 145q-254 0 -430 -180t-176 -440t178.5 -440.5t431.5 -180.5q260 0 441 145v428h-418q-31 0 -31 29v12q0 27 31 27h463q31 0 31 -29v-469 q0 -29 -27 -53q-201 -160 -494 -160zM731 -412q-25 0 -20 29l45 240q6 31 37 30h18q35 0 25 -30l-68 -240q-8 -29 -29 -29h-8z" glyph-name="Gcommaaccent.aalt" horiz-adv-x="1427"/><glyph d="M778 1505q-33 0 -57.5 23.5t-24.5 58.5t24.5 58.5t57.5 23.5t57.5 -23.5t24.5 -58.5t-24.5 -58.5t-57.5 -23.5zM784 -25q-287 0 -484.5 200t-197.5 490.5t197 490.5t487 200q270 0 461 -166q25 -23 2 -45l-6 -4q-20 -25 -53 0q-168 145 -406 145q-254 0 -430 -180 t-176 -440t178.5 -440.5t431.5 -180.5q260 0 441 145v428h-418q-31 0 -31 29v12q0 27 31 27h463q31 0 31 -29v-469q0 -29 -27 -53q-201 -160 -494 -160z" glyph-name="Gdotaccent.aalt" horiz-adv-x="1427"/><glyph d="M94 0q-33 0 -33 29v10q0 27 33 27h199v1200h-199q-33 0 -33 26v11q0 29 33 28h471q31 0 31 -28v-9q0 -29 -31 -28h-198v-1200h198q31 0 31 -29v-8q0 -29 -31 -29h-471z" glyph-name="I.aalt" horiz-adv-x="657"/><glyph d="M94 0q-33 0 -33 29v10q0 27 33 27h199v1200h-199q-33 0 -33 26v11q0 29 33 28h471q31 0 31 -28v-9q0 -29 -31 -28h-198v-1200h198q31 0 31 -29v-8q0 -29 -31 -29h-471zM981 -25q-225 0 -363 187q-20 29 0 47l13 8q27 20 47 -8q127 -164 301 -164q133 0 219 85t86 226v908 h-393q-31 0 -31 28v11q0 29 31 28h436q33 0 33 -33v-942q0 -174 -107.5 -277.5t-271.5 -103.5z" glyph-name="IJ.aalt" horiz-adv-x="1550"/><glyph d="M145 1462l-6 8q-16 23 17 41l301 195q33 20 49 -6l12 -17q16 -25 -14 -43l-318 -178q-29 -16 -41 0zM94 0q-33 0 -33 29v10q0 27 33 27h199v1200h-199q-33 0 -33 26v11q0 29 33 28h471q31 0 31 -28v-9q0 -29 -31 -28h-198v-1200h198q31 0 31 -29v-8q0 -29 -31 -29h-471z " glyph-name="Iacute.aalt" horiz-adv-x="657"/><glyph d="M596 1509q33 -23 16 -43l-6 -6q-14 -20 -45 0l-231 150l-234 -150q-31 -20 -45 0l-6 6q-16 20 16 43l244 177q23 14 47 0zM565 1331q31 0 31 -28v-9q0 -29 -31 -28h-198v-1200h198q31 0 31 -29v-8q0 -29 -31 -29h-471q-33 0 -33 29v10q0 27 33 27h199v1200h-199 q-33 0 -33 26v11q0 29 33 28h471z" glyph-name="Icircumflex.aalt" horiz-adv-x="657"/><glyph d="M168 1505q-33 0 -57.5 23.5t-24.5 58.5t24.5 58.5t57.5 23.5t57.5 -23.5t24.5 -58.5t-24.5 -58.5t-57.5 -23.5zM489 1505q-35 0 -58 23.5t-23 58.5t23.5 58.5t58 23.5t58 -23.5t23.5 -58.5q0 -33 -24.5 -57.5t-57.5 -24.5zM94 0q-33 0 -33 29v10q0 27 33 27h199v1200 h-199q-33 0 -33 26v11q0 29 33 28h471q31 0 31 -28v-9q0 -29 -31 -28h-198v-1200h198q31 0 31 -29v-8q0 -29 -31 -29h-471z" glyph-name="Idieresis.aalt" horiz-adv-x="657"/><glyph d="M330 1505q-35 0 -58.5 23.5t-23.5 58.5t23.5 58.5t58.5 23.5t58.5 -23.5t23.5 -58.5t-23.5 -58.5t-58.5 -23.5zM94 0q-33 0 -33 29v10q0 27 33 27h199v1200h-199q-33 0 -33 26v11q0 29 33 28h471q31 0 31 -28v-9q0 -29 -31 -28h-198v-1200h198q31 0 31 -29v-8 q0 -29 -31 -29h-471z" glyph-name="Idotaccent.aalt" horiz-adv-x="657"/><glyph d="M520 1462q-12 -16 -41 0l-317 180q-31 16 -12 44l10 16q16 27 49 6l303 -195q29 -18 14 -40zM94 0q-33 0 -33 29v10q0 27 33 27h199v1200h-199q-33 0 -33 26v11q0 29 33 28h471q31 0 31 -28v-9q0 -29 -31 -28h-198v-1200h198q31 0 31 -29v-8q0 -29 -31 -29h-471z" glyph-name="Igrave.aalt" horiz-adv-x="657"/><glyph d="M98 1540q-29 0 -28 29v8q0 27 28 27h463q29 0 29 -27v-8q0 -29 -29 -29h-463zM94 0q-33 0 -33 29v10q0 27 33 27h199v1200h-199q-33 0 -33 26v11q0 29 33 28h471q31 0 31 -28v-9q0 -29 -31 -28h-198v-1200h198q31 0 31 -29v-8q0 -29 -31 -29h-471z" glyph-name="Imacron.aalt" horiz-adv-x="657"/><glyph d="M621 -315q12 -25 -21 -37q-98 -39 -187 7t-89 148q0 115 135 197h-365q-33 0 -33 29v10q0 27 33 27h199v1200h-199q-33 0 -33 26v11q0 29 33 28h471q31 0 31 -28v-9q0 -29 -31 -28h-198v-1200h198q31 0 31 -29v-8q0 -29 -31 -29h-20q-156 -68 -156 -188q0 -78 60.5 -107 t132.5 -2q27 8 36 -12z" glyph-name="Iogonek.aalt" horiz-adv-x="657"/><glyph d="M66 1450q-27 0 -27 29q0 78 39 123t100 45q57 0 153.5 -67t145.5 -67q37 0 59.5 27t22.5 78q0 31 27 31h6q27 0 26 -31q0 -78 -38.5 -123t-100 -45t-159 67.5t-140.5 67.5q-37 0 -59.5 -27.5t-22.5 -78.5q0 -29 -26 -29h-6zM94 0q-33 0 -33 29v10q0 27 33 27h199v1200 h-199q-33 0 -33 26v11q0 29 33 28h471q31 0 31 -28v-9q0 -29 -31 -28h-198v-1200h198q31 0 31 -29v-8q0 -29 -31 -29h-471z" glyph-name="Itilde.aalt" horiz-adv-x="657"/><glyph d="M217 1264q-33 0 -56.5 23.5t-23.5 56t23.5 56t56.5 23.5q35 0 58.5 -23.5t23.5 -56t-23.5 -56t-58.5 -23.5zM211 0q-29 0 -29 31v964q0 33 29 33h14q29 0 29 -33v-964q0 -31 -29 -31h-14z" glyph-name="i.locl" horiz-adv-x="436"/><glyph d="M0 1204l-4 6q-18 18 12 43l277 222q33 29 53 4l6 -11q25 -29 -8 -51l-291 -207q-29 -22 -45 -6zM102 -369q-29 -18 -45 9l-4 4q-18 29 17 45q74 47 106.5 105.5t32.5 164.5v1004h-135q-31 0 -31 28v8q0 29 31 29h180q27 0 27 -29v-1036q0 -131 -43.5 -202t-135.5 -130z " glyph-name="glyph384" horiz-adv-x="456"/><glyph d="M1278 47q14 -25 -6 -41q-37 -31 -94.5 -31t-91 37t-33.5 105v121q-63 -121 -178 -192t-265 -71q-223 0 -368.5 155t-145.5 382t145.5 382t368.5 155q145 0 261 -69t182 -187v202q0 33 28 33h15q29 0 28 -33v-880q0 -76 60 -76q18 0 51 18q23 16 41 -6zM614 43 q193 0 318 131t125 338t-125 338t-316 131q-195 0 -319.5 -135t-124.5 -334t123.5 -334t318.5 -135z" glyph-name="a.salt" horiz-adv-x="1325"/><glyph d="M459 1204l-4 6q-16 20 12 43l276 222q33 29 54 4l6 -11q25 -29 -8 -51l-291 -207q-29 -22 -45 -6zM1278 47q14 -25 -6 -41q-37 -31 -94.5 -31t-91 37t-33.5 105v121q-63 -121 -178 -192t-265 -71q-223 0 -368.5 155t-145.5 382t145.5 382t368.5 155q145 0 261 -69 t182 -187v202q0 33 28 33h15q29 0 28 -33v-880q0 -76 60 -76q18 0 51 18q23 16 41 -6zM614 43q193 0 318 131t125 338t-125 338t-316 131q-195 0 -319.5 -135t-124.5 -334t123.5 -334t318.5 -135z" glyph-name="aacute.aalt" horiz-adv-x="1325"/><glyph d="M632.5 1192q-102.5 0 -175 60.5t-86.5 166.5q-6 29 24 29h11q25 0 32 -29q31 -164 195 -164q74 0 126 42t66 122q6 29 33 29h10q33 0 25 -29q-14 -106 -86 -166.5t-174.5 -60.5zM1278 47q14 -25 -6 -41q-37 -31 -94.5 -31t-91 37t-33.5 105v121q-63 -121 -178 -192 t-265 -71q-223 0 -368.5 155t-145.5 382t145.5 382t368.5 155q145 0 261 -69t182 -187v202q0 33 28 33h15q29 0 28 -33v-880q0 -76 60 -76q18 0 51 18q23 16 41 -6zM614 43q193 0 318 131t125 338t-125 338t-316 131q-195 0 -319.5 -135t-124.5 -334t123.5 -334t318.5 -135z " glyph-name="abreve.aalt" horiz-adv-x="1325"/><glyph d="M367 1214l-7 7q-18 23 13 43l235 172q23 16 45 0l236 -172q35 -20 14 -43l-6 -7q-14 -18 -43 0l-223 150l-221 -150q-29 -18 -43 0zM1278 47q14 -25 -6 -41q-37 -31 -94.5 -31t-91 37t-33.5 105v121q-63 -121 -178 -192t-265 -71q-223 0 -368.5 155t-145.5 382t145.5 382 t368.5 155q145 0 261 -69t182 -187v202q0 33 28 33h15q29 0 28 -33v-880q0 -76 60 -76q18 0 51 18q23 16 41 -6zM614 43q193 0 318 131t125 338t-125 338t-316 131q-195 0 -319.5 -135t-124.5 -334t123.5 -334t318.5 -135z" glyph-name="acircumflex.aalt" horiz-adv-x="1325"/><glyph d="M485.5 1264q-34.5 0 -57 23.5t-22.5 56t22.5 56t57 23.5t57 -23.5t22.5 -56t-22.5 -56t-57 -23.5zM778 1264q-33 0 -56.5 23.5t-23.5 56t23.5 56t56.5 23.5t56.5 -23.5t23.5 -56t-23.5 -56t-56.5 -23.5zM1278 47q14 -25 -6 -41q-37 -31 -94.5 -31t-91 37t-33.5 105v121 q-63 -121 -178 -192t-265 -71q-223 0 -368.5 155t-145.5 382t145.5 382t368.5 155q145 0 261 -69t182 -187v202q0 33 28 33h15q29 0 28 -33v-880q0 -76 60 -76q18 0 51 18q23 16 41 -6zM614 43q193 0 318 131t125 338t-125 338t-316 131q-195 0 -319.5 -135t-124.5 -334 t123.5 -334t318.5 -135z" glyph-name="adieresis.aalt" horiz-adv-x="1325"/><glyph d="M473 1417q-33 23 -8 51l8 11q20 23 53 -4l277 -222q29 -25 12 -43l-6 -6q-14 -18 -45 6zM1278 47q14 -25 -6 -41q-37 -31 -94.5 -31t-91 37t-33.5 105v121q-63 -121 -178 -192t-265 -71q-223 0 -368.5 155t-145.5 382t145.5 382t368.5 155q145 0 261 -69t182 -187v202 q0 33 28 33h15q29 0 28 -33v-880q0 -76 60 -76q18 0 51 18q23 16 41 -6zM614 43q193 0 318 131t125 338t-125 338t-316 131q-195 0 -319.5 -135t-124.5 -334t123.5 -334t318.5 -135z" glyph-name="agrave.aalt" horiz-adv-x="1325"/><glyph d="M387 1294q-31 0 -31 29v10q0 29 31 29h492q31 0 30 -29v-10q0 -29 -30 -29h-492zM1278 47q14 -25 -6 -41q-37 -31 -94.5 -31t-91 37t-33.5 105v121q-63 -121 -178 -192t-265 -71q-223 0 -368.5 155t-145.5 382t145.5 382t368.5 155q145 0 261 -69t182 -187v202 q0 33 28 33h15q29 0 28 -33v-880q0 -76 60 -76q18 0 51 18q23 16 41 -6zM614 43q193 0 318 131t125 338t-125 338t-316 131q-195 0 -319.5 -135t-124.5 -334t123.5 -334t318.5 -135z" glyph-name="amacron.aalt" horiz-adv-x="1325"/><glyph d="M1292 -319q12 -25 -20 -37q-98 -39 -187.5 7t-89.5 148q0 113 123 189q-66 33 -65 129v121q-63 -121 -178 -192t-265 -71q-223 0 -368.5 155t-145.5 382t145.5 382t368.5 155q145 0 261 -69t182 -187v202q0 33 28 33h15q29 0 28 -33v-880q0 -76 60 -76q18 0 51 18 q23 16 41 -6l2 -4q14 -25 -6 -41q-37 -31 -94 -31h-2q-115 -66 -115 -168q0 -78 60.5 -106.5t131.5 -1.5q27 8 37 -12zM614 43q193 0 318 131t125 338t-125 338t-316 131q-195 0 -319.5 -135t-124.5 -334t123.5 -334t318.5 -135z" glyph-name="aogonek.aalt" horiz-adv-x="1325"/><glyph d="M631 1182q-74 0 -124 49t-50 120.5t50 121t124 49.5q76 0 126 -49.5t50 -121t-50 -120.5t-126 -49zM631 1462q-51 0 -81 -32.5t-30 -77.5t30 -79t81 -34t81.5 34t30.5 79t-30.5 77.5t-81.5 32.5zM1278 47q14 -25 -6 -41q-37 -31 -94.5 -31t-91 37t-33.5 105v121 q-63 -121 -178 -192t-265 -71q-223 0 -368.5 155t-145.5 382t145.5 382t368.5 155q145 0 261 -69t182 -187v202q0 33 28 33h15q29 0 28 -33v-880q0 -76 60 -76q18 0 51 18q23 16 41 -6zM614 43q193 0 318 131t125 338t-125 338t-316 131q-195 0 -319.5 -135t-124.5 -334 t123.5 -334t318.5 -135z" glyph-name="aring.aalt" horiz-adv-x="1325"/><glyph d="M360 1219q-29 0 -28 28q0 78 38 122t103 44q63 0 161.5 -65.5t151.5 -65.5q80 0 80 102q0 29 29 29h6q29 0 29 -29q0 -78 -37 -121.5t-102 -43.5q-63 0 -166 65.5t-150 65.5q-80 0 -80 -103q0 -29 -28 -28h-7zM1278 47q14 -25 -6 -41q-37 -31 -94.5 -31t-91 37t-33.5 105 v121q-63 -121 -178 -192t-265 -71q-223 0 -368.5 155t-145.5 382t145.5 382t368.5 155q145 0 261 -69t182 -187v202q0 33 28 33h15q29 0 28 -33v-880q0 -76 60 -76q18 0 51 18q23 16 41 -6zM614 43q193 0 318 131t125 338t-125 338t-316 131q-195 0 -319.5 -135t-124.5 -334 t123.5 -334t318.5 -135z" glyph-name="atilde.aalt" horiz-adv-x="1325"/><glyph d="M215 1264q-35 0 -57.5 23.5t-22.5 56t22.5 56t57.5 23.5t58.5 -23.5t23.5 -56t-23.5 -56t-58.5 -23.5zM303 -25q-57 0 -90 37t-33 105v878q0 33 29 33h14q29 0 29 -33v-880q0 -76 59 -76q18 0 51 18q23 16 41 -6l3 -4q14 -25 -7 -41q-37 -31 -96 -31z" glyph-name="i.salt" horiz-adv-x="454"/><glyph d="M303 -25q-57 0 -90 37t-33 105v878q0 33 29 33h14q29 0 29 -33v-880q0 -76 59 -76q18 0 51 18q23 16 41 -6l3 -4q14 -25 -7 -41q-37 -31 -96 -31z" glyph-name="dotlessi.aalt" horiz-adv-x="454"/><glyph d="M43 1204l-4 6q-16 20 12 43l277 222q33 29 53 4l6 -11q25 -29 -8 -51l-291 -207q-29 -22 -45 -6zM303 -25q-57 0 -90 37t-33 105v878q0 33 29 33h14q29 0 29 -33v-880q0 -76 59 -76q18 0 51 18q23 16 41 -6l3 -4q14 -25 -7 -41q-37 -31 -96 -31z" glyph-name="iacute.aalt" horiz-adv-x="454"/><glyph d="M473 1264q35 -20 14 -43l-6 -7q-14 -18 -43 0l-223 150l-221 -150q-29 -18 -45 0l-4 7q-18 23 12 43l236 172q23 16 45 0zM403 51l3 -4q14 -25 -7 -41q-37 -31 -96 -31q-57 0 -90 37t-33 105v878q0 33 29 33h14q29 0 29 -33v-880q0 -76 59 -76q18 0 51 18q23 17 41 -6z " glyph-name="icircumflex.aalt" horiz-adv-x="454"/><glyph d="M69.5 1264q-32.5 0 -56 23.5t-23.5 56t23.5 56t56 23.5t56.5 -23.5t24 -56t-24 -56t-56.5 -23.5zM362.5 1264q-34.5 0 -57 23.5t-22.5 56t22.5 56t57 23.5t57 -23.5t22.5 -56t-22.5 -56t-57 -23.5zM303 -25q-57 0 -90 37t-33 105v878q0 33 29 33h14q29 0 29 -33v-880 q0 -76 59 -76q18 0 51 18q23 16 41 -6l3 -4q14 -25 -7 -41q-37 -31 -96 -31z" glyph-name="idieresis.aalt" horiz-adv-x="454"/><glyph d="M215 1264q-35 0 -57.5 23.5t-22.5 56t22.5 56t57.5 23.5t58.5 -23.5t23.5 -56t-23.5 -56t-58.5 -23.5zM303 -25q-57 0 -90 37t-33 105v878q0 33 29 33h14q29 0 29 -33v-880q0 -76 59 -76q18 0 51 18q23 16 41 -6l3 -4q14 -25 -7 -41q-37 -31 -96 -31z" glyph-name="glyph400" horiz-adv-x="454"/><glyph d="M393 1204q-14 -18 -45 6l-291 207q-33 23 -8 51l8 11q20 23 54 -4l276 -222q29 -25 12 -43zM303 -25q-57 0 -90 37t-33 105v878q0 33 29 33h14q29 0 29 -33v-880q0 -76 59 -76q18 0 51 18q23 16 41 -6l3 -4q14 -25 -7 -41q-37 -31 -96 -31z" glyph-name="igrave.aalt" horiz-adv-x="454"/><glyph d="M217 1264q-33 0 -56.5 23.5t-23.5 56t23.5 56t56.5 23.5q35 0 58.5 -23.5t23.5 -56t-23.5 -56t-58.5 -23.5zM629 1264q-33 0 -55.5 22.5t-22.5 55t22.5 55t55.5 22.5t55.5 -22.5t22.5 -55t-22.5 -55t-55.5 -22.5zM305 -25q-57 0 -90 37t-33 105v878q0 33 29 33h14 q29 0 29 -33v-880q0 -76 59 -76q18 0 52 18q23 16 41 -6l2 -4q14 -25 -7 -41q-37 -31 -96 -31zM479 -362q-20 -14 -33 6l-10 18q-10 16 10 31q80 55 114 119.5t34 189.5v995q0 27 24 27h21q25 0 25 -27v-1001q0 -143 -43.5 -219t-141.5 -139z" glyph-name="ij.aalt" horiz-adv-x="839"/><glyph d="M-31 1294q-31 0 -30 29v10q0 29 30 29h492q31 0 31 -29v-10q0 -29 -31 -29h-492zM303 -25q-57 0 -90 37t-33 105v878q0 33 29 33h14q29 0 29 -33v-880q0 -76 59 -76q18 0 51 18q23 16 41 -6l3 -4q14 -25 -7 -41q-37 -31 -96 -31z" glyph-name="imacron.aalt" horiz-adv-x="454"/><glyph d="M217 1264q-35 0 -58.5 23.5t-23.5 56t23.5 56t58.5 23.5q33 0 56.5 -23.5t23.5 -56t-23.5 -56t-56.5 -23.5zM424 -322q12 -25 -21 -36q-98 -39 -187 7t-89 148q0 113 123 189q-70 33 -70 131v878q0 33 29 33h14q29 0 29 -33v-880q0 -76 59 -76q18 0 51 18q23 16 41 -6 l3 -4q14 -25 -7 -41q-33 -27 -88 -31q-119 -66 -118 -170q0 -78 60 -106.5t132 -1.5q27 8 37 -12z" glyph-name="iogonek.aalt" horiz-adv-x="454"/><glyph d="M-29 1219q-27 0 -26 28q0 78 33.5 122t93.5 44q57 0 145 -65.5t137 -65.5q72 0 72 102q0 29 27 29h6q25 0 24 -29q0 -78 -33.5 -121.5t-93.5 -43.5q-57 0 -148 65.5t-134 65.5q-72 0 -72 -103q0 -29 -25 -28h-6zM303 -25q-57 0 -90 37t-33 105v878q0 33 29 33h14 q29 0 29 -33v-880q0 -76 59 -76q18 0 51 18q23 16 41 -6l3 -4q14 -25 -7 -41q-37 -31 -96 -31z" glyph-name="itilde.aalt" horiz-adv-x="454"/><glyph d="M1051 47q14 -25 -9 -41q-37 -31 -94 -31q-78 0 -166 121l-215 314h-317v-379q0 -31 -29 -31h-16q-29 0 -29 31v1390q0 20 25 29l20 6q29 10 29 -24v-607q51 106 147.5 165t223.5 59q168 0 269 -88.5t101 -231.5q0 -137 -92 -223t-246 -96l195 -285q59 -86 108 -86 q23 0 50 18q27 16 41 -6zM250 586v-113h373q131 0 211.5 70.5t80.5 185.5t-81.5 184.5t-215.5 69.5q-168 0 -268 -108.5t-100 -288.5z" glyph-name="k.aalt" horiz-adv-x="1114"/><glyph d="M1051 47q14 -25 -9 -41q-37 -31 -94 -31q-78 0 -166 121l-215 314h-317v-379q0 -31 -29 -31h-16q-29 0 -29 31v1390q0 20 25 29l20 6q29 10 29 -24v-607q51 106 147.5 165t223.5 59q168 0 269 -88.5t101 -231.5q0 -137 -92 -223t-246 -96l195 -285q59 -86 108 -86 q23 0 50 18q27 16 41 -6zM250 586v-113h373q131 0 211.5 70.5t80.5 185.5t-81.5 184.5t-215.5 69.5q-168 0 -268 -108.5t-100 -288.5zM573 -113q35 0 25 -30l-68 -240q-8 -29 -28 -29h-8q-25 0 -21 29l45 240q6 31 37 30h18z" glyph-name="kcommaaccent.aalt" horiz-adv-x="1114"/><glyph d="M569 -25q-170 0 -276.5 105.5t-106.5 277.5v551q0 76 -59 76q-20 0 -49 -18q-25 -16 -41 6l-4 4q-14 25 8 41q37 31 96 31q55 0 89 -37t34 -105v-542q0 -150 84 -236t225 -86q162 0 264.5 125t102.5 332q0 166 -42 310t-114 222q-20 25 2 43l11 8q29 23 51 -6 q78 -88 123 -243.5t45 -333.5q0 -236 -123 -380.5t-320 -144.5z" glyph-name="v.aalt" horiz-adv-x="1116"/><glyph d="M1540 1077q78 -88 124 -243.5t46 -333.5q0 -236 -123 -380.5t-319 -144.5q-121 0 -210 60.5t-132 165.5q-45 -106 -137.5 -166t-219.5 -60q-170 0 -276.5 105.5t-106.5 277.5v551q0 76 -57 76q-23 0 -51 -18q-25 -16 -41 6l-2 4q-16 23 6 41q37 31 96 31q57 0 90 -37 t33 -105v-542q0 -150 84 -236t225 -86q145 0 232.5 92t87.5 246v614q0 33 29 33h16q29 0 29 -33v-616q0 -150 81.5 -243t223.5 -93q162 0 264 125t102 332q0 166 -42 310t-113 222q-20 25 4 43l8 8q31 23 49 -6z" glyph-name="w.aalt" horiz-adv-x="1812"/><glyph d="M756 1204l-4 6q-16 20 12 43l276 222q33 29 54 4l6 -11q25 -29 -8 -51l-291 -207q-29 -22 -45 -6zM1540 1077q78 -88 124 -243.5t46 -333.5q0 -236 -123 -380.5t-319 -144.5q-121 0 -210 60.5t-132 165.5q-45 -106 -137.5 -166t-219.5 -60q-170 0 -276.5 105.5 t-106.5 277.5v551q0 76 -57 76q-23 0 -51 -18q-25 -16 -41 6l-2 4q-16 23 6 41q37 31 96 31q57 0 90 -37t33 -105v-542q0 -150 84 -236t225 -86q145 0 232.5 92t87.5 246v614q0 33 29 33h16q29 0 29 -33v-616q0 -150 81.5 -243t223.5 -93q162 0 264 125t102 332 q0 166 -42 310t-113 222q-20 25 4 43l8 8q31 23 49 -6z" glyph-name="wacute.aalt" horiz-adv-x="1812"/><glyph d="M666 1214l-7 7q-18 23 13 43l235 172q23 16 45 0l236 -172q35 -20 14 -43l-6 -7q-14 -18 -43 0l-223 150l-221 -150q-29 -18 -43 0zM1540 1077q78 -88 124 -243.5t46 -333.5q0 -236 -123 -380.5t-319 -144.5q-121 0 -210 60.5t-132 165.5q-45 -106 -137.5 -166 t-219.5 -60q-170 0 -276.5 105.5t-106.5 277.5v551q0 76 -57 76q-23 0 -51 -18q-25 -16 -41 6l-2 4q-16 23 6 41q37 31 96 31q57 0 90 -37t33 -105v-542q0 -150 84 -236t225 -86q145 0 232.5 92t87.5 246v614q0 33 29 33h16q29 0 29 -33v-616q0 -150 81.5 -243t223.5 -93 q162 0 264 125t102 332q0 166 -42 310t-113 222q-20 25 4 43l8 8q31 23 49 -6z" glyph-name="wcircumflex.aalt" horiz-adv-x="1812"/><glyph d="M782.5 1264q-32.5 0 -56.5 23.5t-24 56t24 56t56.5 23.5t56 -23.5t23.5 -56t-23.5 -56t-56 -23.5zM1075 1264q-35 0 -57.5 23.5t-22.5 56t22.5 56t57.5 23.5t57.5 -23.5t22.5 -56t-22.5 -56t-57.5 -23.5zM1540 1077q78 -88 124 -243.5t46 -333.5q0 -236 -123 -380.5 t-319 -144.5q-121 0 -210 60.5t-132 165.5q-45 -106 -137.5 -166t-219.5 -60q-170 0 -276.5 105.5t-106.5 277.5v551q0 76 -57 76q-23 0 -51 -18q-25 -16 -41 6l-2 4q-16 23 6 41q37 31 96 31q57 0 90 -37t33 -105v-542q0 -150 84 -236t225 -86q145 0 232.5 92t87.5 246v614 q0 33 29 33h16q29 0 29 -33v-616q0 -150 81.5 -243t223.5 -93q162 0 264 125t102 332q0 166 -42 310t-113 222q-20 25 4 43l8 8q31 23 49 -6z" glyph-name="wdieresis.aalt" horiz-adv-x="1812"/><glyph d="M770 1417q-33 23 -8 51l8 11q20 23 53 -4l277 -222q29 -25 12 -43l-6 -6q-14 -18 -45 6zM1540 1077q78 -88 124 -243.5t46 -333.5q0 -236 -123 -380.5t-319 -144.5q-121 0 -210 60.5t-132 165.5q-45 -106 -137.5 -166t-219.5 -60q-170 0 -276.5 105.5t-106.5 277.5v551 q0 76 -57 76q-23 0 -51 -18q-25 -16 -41 6l-2 4q-16 23 6 41q37 31 96 31q57 0 90 -37t33 -105v-542q0 -150 84 -236t225 -86q145 0 232.5 92t87.5 246v614q0 33 29 33h16q29 0 29 -33v-616q0 -150 81.5 -243t223.5 -93q162 0 264 125t102 332q0 166 -42 310t-113 222 q-20 25 4 43l8 8q31 23 49 -6z" glyph-name="wgrave.aalt" horiz-adv-x="1812"/><glyph d="M991 1028q29 0 29 -33v-909q0 -221 -128 -341t-343 -120q-233 0 -385 162q-23 23 2 43l4 6q23 18 47 -6q131 -137 336 -137q182 0 287.5 104.5t105.5 290.5v227q-51 -98 -149.5 -154.5t-225.5 -56.5q-172 0 -282.5 113t-110.5 297v395q0 76 -57 76q-23 0 -51 -18 q-25 -16 -41 6l-2 4q-16 23 6 41q37 31 96 31q57 0 90 -37t33 -105v-393q0 -152 92 -247t236 -95q164 0 265 102.5t101 260.5v460q0 33 29 33h16z" glyph-name="y.aalt" horiz-adv-x="1196"/><glyph d="M408 1204l-5 6q-16 20 13 43l276 222q33 29 53 4l7 -11q25 -29 -9 -51l-290 -207q-29 -22 -45 -6zM991 1028q29 0 29 -33v-909q0 -221 -128 -341t-343 -120q-233 0 -385 162q-23 23 2 43l4 6q23 18 47 -6q131 -137 336 -137q182 0 287.5 104.5t105.5 290.5v227 q-51 -98 -149.5 -154.5t-225.5 -56.5q-172 0 -282.5 113t-110.5 297v395q0 76 -57 76q-23 0 -51 -18q-25 -16 -41 6l-2 4q-16 23 6 41q37 31 96 31q57 0 90 -37t33 -105v-393q0 -152 92 -247t236 -95q164 0 265 102.5t101 260.5v460q0 33 29 33h16z" glyph-name="yacute.aalt" horiz-adv-x="1196"/><glyph d="M315 1214l-6 7q-18 23 13 43l235 172q23 16 45 0l236 -172q35 -20 14 -43l-6 -7q-14 -18 -43 0l-223 150l-222 -150q-29 -18 -43 0zM991 1028q29 0 29 -33v-909q0 -221 -128 -341t-343 -120q-233 0 -385 162q-23 23 2 43l4 6q23 18 47 -6q131 -137 336 -137 q182 0 287.5 104.5t105.5 290.5v227q-51 -98 -149.5 -154.5t-225.5 -56.5q-172 0 -282.5 113t-110.5 297v395q0 76 -57 76q-23 0 -51 -18q-25 -16 -41 6l-2 4q-16 23 6 41q37 31 96 31q57 0 90 -37t33 -105v-393q0 -152 92 -247t236 -95q164 0 265 102.5t101 260.5v460 q0 33 29 33h16z" glyph-name="ycircumflex.aalt" horiz-adv-x="1196"/><glyph d="M434 1264q-33 0 -56.5 23.5t-23.5 56t23.5 56t56.5 23.5t56.5 -23.5t23.5 -56t-23.5 -56t-56.5 -23.5zM727 1264q-35 0 -57.5 23.5t-22.5 56t22.5 56t57.5 23.5t57.5 -23.5t22.5 -56t-22.5 -56t-57.5 -23.5zM991 1028q29 0 29 -33v-909q0 -221 -128 -341t-343 -120 q-233 0 -385 162q-23 23 2 43l4 6q23 18 47 -6q131 -137 336 -137q182 0 287.5 104.5t105.5 290.5v227q-51 -98 -149.5 -154.5t-225.5 -56.5q-172 0 -282.5 113t-110.5 297v395q0 76 -57 76q-23 0 -51 -18q-25 -16 -41 6l-2 4q-16 23 6 41q37 31 96 31q57 0 90 -37t33 -105 v-393q0 -152 92 -247t236 -95q164 0 265 102.5t101 260.5v460q0 33 29 33h16z" glyph-name="ydieresis.aalt" horiz-adv-x="1196"/><glyph d="M422 1417q-33 23 -8 51l8 11q20 23 53 -4l277 -222q29 -25 12 -43l-6 -6q-14 -18 -45 6zM991 1028q29 0 29 -33v-909q0 -221 -128 -341t-343 -120q-233 0 -385 162q-23 23 2 43l4 6q23 18 47 -6q131 -137 336 -137q182 0 287.5 104.5t105.5 290.5v227 q-51 -98 -149.5 -154.5t-225.5 -56.5q-172 0 -282.5 113t-110.5 297v395q0 76 -57 76q-23 0 -51 -18q-25 -16 -41 6l-2 4q-16 23 6 41q37 31 96 31q57 0 90 -37t33 -105v-393q0 -152 92 -247t236 -95q164 0 265 102.5t101 260.5v460q0 33 29 33h16z" glyph-name="ygrave.aalt" horiz-adv-x="1196"/><glyph d="M307 1219q-29 0 -28 28q0 78 37.5 122t103.5 44q63 0 161.5 -65.5t151.5 -65.5q80 0 80 102q0 29 29 29h6q29 0 29 -29q0 -78 -37 -121.5t-103 -43.5q-63 0 -165.5 65.5t-149.5 65.5q-80 0 -80 -103q0 -29 -29 -28h-6zM991 1028q29 0 29 -33v-909q0 -221 -128 -341 t-343 -120q-233 0 -385 162q-23 23 2 43l4 6q23 18 47 -6q131 -137 336 -137q182 0 287.5 104.5t105.5 290.5v227q-51 -98 -149.5 -154.5t-225.5 -56.5q-172 0 -282.5 113t-110.5 297v395q0 76 -57 76q-23 0 -51 -18q-25 -16 -41 6l-2 4q-16 23 6 41q37 31 96 31 q57 0 90 -37t33 -105v-393q0 -152 92 -247t236 -95q164 0 265 102.5t101 260.5v460q0 33 29 33h16z" glyph-name="uni1EF9.aalt" horiz-adv-x="1196"/><glyph d="M1223 72q16 -25 -15 -41q-78 -55 -170 -56q-131 0 -202.5 76t-71.5 217v695h-465v-932q0 -31 -29 -31h-16q-29 0 -29 31v932h-151q-29 0 -29 28v8q0 29 29 29h151v74q0 178 85 266t218 88q78 0 138 -33q29 -16 16 -41l-6 -10q-12 -23 -43 -10q-55 29 -105 29 q-106 0 -167.5 -72t-61.5 -217v-74h465v338q0 18 20 23l27 6q27 8 27 -23v-344h309q29 0 29 -29v-8q0 -29 -29 -28h-309v-691q0 -229 204 -229q72 0 132 43q27 18 45 -6z" glyph-name="f_t.dlig" horiz-adv-x="1218"/><glyph d="M584 -25q-213 0 -350.5 119t-137.5 303q0 135 82 237.5t219 145.5q-88 35 -137 104.5t-49 162.5q0 137 99.5 223t258.5 86q215 0 355 -166q20 -25 -4 -41l-9 -6q-25 -25 -45 4q-117 139 -297 139q-127 -2 -204.5 -67.5t-77.5 -169.5q0 -102 79.5 -167t206.5 -65h68 q29 0 29 -29v-10q0 -29 -29 -28h-57q-180 0 -296 -99.5t-116 -253t115.5 -253t296.5 -99.5q178 0 292.5 99.5t114.5 252.5q0 129 -96 230q-16 16 -16 39v18q0 29 28 29h213q31 0 31 -29v-10q0 -29 -31 -29h-147q94 -111 94 -248q0 -184 -136 -303t-347 -119z" glyph-name="ampersand.aalt" horiz-adv-x="1206"/><glyph d="M-276 1087q-27 0 -21 29l53 289q6 31 37 31h19q35 0 24 -33l-78 -287q-8 -29 -30 -29h-4z" glyph-name="glyph422"/><glyph d="M125 1087q-27 0 -23 29l56 289q6 31 37 31h18q31 0 25 -33l-80 -287q-8 -29 -29 -29h-4z" glyph-name="glyph423" horiz-adv-x="344"/><glyph d="M-506 1505q-35 0 -58.5 23.5t-23.5 58.5t23.5 58.5t58.5 23.5t58.5 -23.5t23.5 -58.5t-23.5 -58.5t-58.5 -23.5zM-184.5 1505q-32.5 0 -57 23.5t-24.5 58.5t24.5 58.5t57 23.5t57.5 -23.5t25 -58.5q0 -33 -25 -57.5t-57.5 -24.5z" glyph-name="uni0308.aalt"/><glyph d="M-147.5 1397q-32.5 0 -56 22.5t-23.5 57t23.5 57t56 22.5t56 -22.5t23.5 -57t-23.5 -57t-56 -22.5z" glyph-name="uni0307.aalt"/><glyph d="M-104 1462q-12 -16 -41 0l-318 180q-31 16 -12 44l10 16q16 27 49 6l303 -195q29 -18 15 -40z" glyph-name="gravecomb.aalt"/><glyph d="M-465 1462l-6 8q-16 23 16 41l301 195q33 20 50 -6l12 -17q16 -25 -14 -43l-318 -178q-29 -16 -41 0z" glyph-name="acutecomb.aalt"/><glyph d="M-541 1450q-31 0 -16 25l141 247q18 27 37 27h35q35 0 16 -25l-161 -247q-18 -27 -37 -27h-15zM-276 1450q-29 0 -15 25l141 247q14 27 35 27h35q35 0 19 -25l-162 -247q-18 -27 -37 -27h-16z" glyph-name="uni030B.aalt"/><glyph d="M-106 1509q33 -23 16 -43l-6 -6q-14 -20 -45 0l-232 150l-233 -150q-31 -20 -45 0l-6 6q-16 20 16 43l244 177q23 14 47 0z" glyph-name="uni0302.aalt"/><glyph d="M-92 1677q16 -20 -17 -43l-243 -176q-25 -14 -47 0l-244 176q-33 23 -16 43l6 9q14 16 45 0l233 -152l232 152q31 16 45 0z" glyph-name="uni030C.aalt"/><glyph d="M-367 1450q-106 0 -184 68.5t-78 175.5q0 31 31 30h8q29 0 29 -30q0 -82 57.5 -131.5t137 -49.5t136 49.5t56.5 131.5q0 31 31 30h8q31 0 31 -30q0 -106 -79.5 -175t-183.5 -69z" glyph-name="uni0306.aalt"/><glyph d="M-250 1425q-72 0 -123 50.5t-51 120t51 119.5t123 50q74 0 124 -49t50 -120.5t-50 -121t-124 -49.5zM-250 1481q51 0 83 34.5t32 79.5t-32 80t-83 35q-49 0 -80.5 -35t-31.5 -80t31.5 -79.5t80.5 -34.5z" glyph-name="uni030A.aalt"/><glyph d="M-702 1450q-31 0 -31 29q0 78 43 123t112 45q63 0 171 -67t161 -67q41 0 66.5 27t25.5 78q0 31 31 31h6q31 0 31 -31q0 -78 -43 -123t-112.5 -45t-177 67.5t-154.5 67.5q-41 0 -67 -27.5t-26 -78.5q0 -29 -30 -29h-6z" glyph-name="tildecomb.aalt"/><glyph d="M-612 1540q-31 0 -31 29v8q0 27 31 27h499q31 0 31 -27v-8q0 -29 -31 -29h-499z" glyph-name="uni0304.aalt"/><glyph d="M-588 412q-31 -14 -30 16v10q0 25 26 37l524 258q31 16 31 -18v-8q0 -27 -26 -37z" glyph-name="uni0337.aalt"/><glyph d="M-1141 -100q-14 0 -21 9t1 19l989 1495q18 27 45 27h16q14 0 20.5 -9t0.5 -20l-991 -1495q-14 -27 -43 -26h-17z" glyph-name="uni0338.aalt"/><glyph d="M92 1462l-6 8q-16 23 16 41l301 195q33 20 50 -6l12 -17q16 -25 -14 -43l-318 -178q-29 -16 -41 0z" glyph-name="acute.aalt" horiz-adv-x="557"/><glyph d="M371 1450q-106 0 -184 68.5t-78 175.5q0 31 30 30h8q29 0 29 -30q0 -82 57.5 -131.5t137.5 -49.5t136 49.5t56 131.5q0 31 31 30h8q31 0 31 -30q0 -106 -79 -175t-183 -69z" glyph-name="breve.aalt" horiz-adv-x="757"/><glyph d="M709 1677q16 -20 -17 -43l-243 -176q-25 -14 -48 0l-243 176q-33 23 -17 43l6 9q14 16 46 0l233 -152l231 152q31 16 45 0z" glyph-name="caron.aalt" horiz-adv-x="747"/><glyph d="M641 1509q33 -23 16 -43l-6 -6q-14 -20 -45 0l-231 150l-234 -150q-31 -20 -45 0l-6 6q-16 20 16 43l244 177q23 14 47 0z" glyph-name="circumflex.aalt" horiz-adv-x="747"/><glyph d="M184.5 1505q-32.5 0 -57.5 23.5t-25 58.5t25 58.5t57.5 23.5t57 -23.5t24.5 -58.5t-24.5 -58.5t-57 -23.5zM506 1505q-35 0 -58.5 23.5t-23.5 58.5t23.5 58.5t58.5 23.5t58.5 -23.5t23.5 -58.5q0 -33 -24.5 -57.5t-57.5 -24.5z" glyph-name="dieresis.aalt" horiz-adv-x="690"/><glyph d="M164 1505q-33 0 -57.5 23.5t-24.5 58.5t24.5 58.5t57.5 23.5t57.5 -23.5t24.5 -58.5t-24.5 -58.5t-57.5 -23.5z" glyph-name="dotaccent.aalt" horiz-adv-x="325"/><glyph d="M467 1462q-12 -16 -43 0l-318 178q-29 20 -12 43l10 17q18 25 52 6l301 -195q31 -18 14 -41z" glyph-name="grave.aalt" horiz-adv-x="559"/><glyph d="M96 1450q-29 0 -14 25l139 247q18 27 37 27h35q35 0 18 -25l-161 -247q-20 -27 -39 -27h-15zM362 1450q-31 0 -16 25l141 247q14 27 37 27h35q31 0 16 -25l-161 -247q-18 -27 -37 -27h-15z" glyph-name="hungarumlaut.aalt" horiz-adv-x="636"/><glyph d="M113 1540q-31 0 -31 29v8q0 27 31 27h499q31 0 31 -27v-8q0 -29 -31 -29h-499z" glyph-name="macron.aalt" horiz-adv-x="724"/><glyph d="M252 1427q-72 0 -123 50.5t-51 120t51 119.5t123 50q74 0 124 -49t50 -120.5t-50 -121t-124 -49.5zM252 1485q51 0 82 33.5t31 78.5t-31 80t-82 35q-49 0 -81 -35t-32 -80t32 -78.5t81 -33.5z" glyph-name="ring.aalt" horiz-adv-x="499"/><glyph d="M125 1450q-31 0 -31 29q0 78 43 123t113 45q63 0 170.5 -67t161.5 -67q41 0 66.5 27t25.5 78q0 31 31 31h6q31 0 30 -31q0 -78 -43 -123t-112.5 -45t-177 67.5t-154.5 67.5q-41 0 -66.5 -27.5t-25.5 -78.5q0 -29 -31 -29h-6z" glyph-name="tilde.aalt" horiz-adv-x="829"/><glyph d="M49 1462l-6 8q-16 23 16 41l301 195q33 20 50 -6l12 -17q16 -25 -14 -43l-318 -178q-29 -16 -41 0zM735 1462l-6 8q-16 23 14 41l304 195q33 20 49 -6l10 -17q16 -25 -12 -43l-318 -178q-31 -16 -41 0zM236 0q-29 0 -29 33v1265q0 33 29 33h16q31 0 31 -33v-1265 q0 -33 -31 -33h-16zM788 -25q-223 0 -364 187q-20 29 0 47l14 8q25 20 45 -8q127 -164 303 -164q133 0 218.5 85t85.5 226v908h-400q-33 0 -33 28v11q0 29 33 28h445q31 0 30 -33v-942q0 -174 -107.5 -277.5t-269.5 -103.5z" glyph-name="glyph448" horiz-adv-x="1361"/><glyph d="M80 1186q-27 -20 -41 -2l-8 6q-14 18 14 41l283 227q25 23 47 0l10 -12q20 -27 -4 -45zM424 1186q-27 -20 -41 -2l-8 6q-14 18 14 41l283 227q25 23 47 0l8 -12q25 -27 -2 -45zM205 0q-29 0 -29 31v964q0 33 29 33h16q29 0 29 -33v-964q0 -31 -29 -31h-16zM485 -369 q-29 -18 -45 9l-4 4q-16 27 15 45q74 47 106.5 105.5t32.5 164.5v1004h-119q-29 0 -29 28v8q0 29 29 29h166q27 0 27 -29v-1036q0 -131 -43.5 -202t-135.5 -130z" glyph-name="glyph449" horiz-adv-x="839"/><glyph d="M190 -100q-14 0 -21 9t1 19l989 1495q18 27 45 27h17q14 0 20 -9t0 -20l-991 -1495q-14 -27 -43 -26h-17z" glyph-name="glyph450" horiz-adv-x="1331"/><glyph d="M111 59q-33 0 -15 29l826 1182q18 29 45 28h22q33 0 15 -28l-826 -1182q-18 -29 -45 -29h-22z" glyph-name="glyph451" horiz-adv-x="1095"/><glyph d="M72 412q-31 -14 -31 16v10q0 25 27 37l524 258q31 16 31 -18v-8q0 -27 -27 -37z" glyph-name="glyph452" horiz-adv-x="778"/><glyph d="M104 584q-14 -8 -25 -2t-11 22v4q0 23 26 35l357 184q16 8 27 2t11 -22v-6q0 -20 -28 -35z" glyph-name="glyph453" horiz-adv-x="651"/><glyph d="M102 631q-31 0 -30 26v9q0 27 30 26h463q29 0 29 -26v-9q0 -27 -29 -26h-463z" glyph-name="glyph454" horiz-adv-x="733"/></font>
</defs>
</svg>
