<?xml version="1.0" standalone="no"?>
<!DOCTYPE svg PUBLIC "-//W3C//DTD SVG 1.1//EN" "http://www.w3.org/Graphics/SVG/1.1/DTD/svg11.dtd">
<svg version="1.1" xmlns="http://www.w3.org/2000/svg" xmlns:xlink="http://www.w3.org/1999/xlink"><metadata>This SVG WebFont was generated by YouWorkForThem.
</metadata><defs><font horiz-adv-x="588" id="ywftsvg"><font-face ascent="850" bbox="-43 -224 925 760" cap-height="700" descent="-150" font-family="" font-stretch="normal" font-weight="400" panose-1="0 0 0 0 0 0 0 0 0 0" underline-position="0" underline-thickness="0" unicode-range="U+0020-007A" units-per-em="1000" x-height="500"/><missing-glyph horiz-adv-x="250"/><glyph glyph-name=".notdef" horiz-adv-x="250"/><glyph glyph-name="glyph1" horiz-adv-x="0"/><glyph glyph-name="glyph2" horiz-adv-x="333"/><glyph glyph-name="space" horiz-adv-x="184" unicode=" "/><glyph glyph-name="space" horiz-adv-x="184" unicode=" "/><glyph d="M76 99h94v-99h-94v99zM75 700h96l-20 -514h-56z" glyph-name="exclam" horiz-adv-x="246" unicode="!"/><glyph d="M304 714q84 0 134.5 -44t50.5 -116q0 -51 -29.5 -89.5t-98.5 -78.5l-36 -21l162 -163q26 64 29 150h80q-9 -121 -52 -206l145 -146h-108l-80 82q-82 -96 -224 -96q-102 0 -161 48t-59 132q0 59 36 106.5t124 102.5l-13 13q-47 48 -67 86t-20 79q0 72 51.5 116.5 t135.5 44.5zM284 54q104 0 166 81l-187 192q-61 -38 -89 -75.5t-28 -81.5q0 -54 37 -85t101 -31zM199 551q0 -60 66 -126l14 -13l37 22q91 55 91 120q0 41 -27 69t-75 28q-46 0 -76 -27t-30 -73z" glyph-name="ampersand" horiz-adv-x="685" unicode="&amp;"/><glyph d="M296 760q-70 -121 -99 -225.5t-29 -234.5t29 -234.5t99 -225.5h-59q-83 117 -118 226.5t-35 233.5t35 233.5t118 226.5h59z" glyph-name="parenleft" horiz-adv-x="308" unicode="("/><glyph d="M71 760q83 -117 118 -226.5t35 -233.5t-35 -233.5t-118 -226.5h-59q70 121 99 225.5t29 234.5t-29 234.5t-99 225.5h59z" glyph-name="parenright" horiz-adv-x="308" unicode=")"/><glyph d="M76 121h104v-109l-56 -132h-48l44 120h-44v121z" glyph-name="comma" horiz-adv-x="255" unicode=","/><glyph d="M76 121h104v-121h-104v121z" glyph-name="period" horiz-adv-x="255" unicode="."/><glyph d="M62 350q0 177 67 270.5t199 93.5t199 -93.5t67 -270.5t-67 -270.5t-199 -93.5t-199 93.5t-67 270.5zM155 350q0 -146 40 -219t133 -73t133 73t40 219t-40 219t-133 73t-133 -73t-40 -219z" glyph-name="zero" horiz-adv-x="656" unicode="0"/><glyph d="M234 0v604h-2l-210 -153v87l226 162h75v-700h-89z" glyph-name="one" horiz-adv-x="413" unicode="1"/><glyph d="M181 72h368v-72h-500v62l264 235q75 68 103 113t28 97q0 65 -35 100t-102 35q-156 0 -165 -200h-83q2 132 65.5 202t184.5 70q110 0 169 -55t59 -152q0 -65 -35 -120t-137 -146l-184 -167v-2z" glyph-name="two" horiz-adv-x="598" unicode="2"/><glyph d="M238 327v66h56q142 0 142 123q0 60 -33.5 93t-102.5 33q-153 0 -162 -180h-83q4 122 66 187t181 65q107 0 167 -52t60 -142q0 -59 -30 -95.5t-99 -61.5v-2q143 -31 143 -168q0 -95 -65.5 -151t-177.5 -56q-122 0 -185 69t-66 193h83q9 -190 168 -190q72 0 111 36.5 t39 104.5q0 128 -152 128h-60z" glyph-name="three" horiz-adv-x="592" unicode="3"/><glyph d="M379 0v170h-357v58l335 472h111v-460h86v-70h-86v-170h-89zM379 240v373h-2l-260 -371v-2h262z" glyph-name="four" horiz-adv-x="594" unicode="4"/><glyph d="M309 394q-86 0 -158 -68l-86 10l39 364h405v-72h-329l-25 -235h2q81 73 175 73q98 0 154.5 -63t56.5 -173q0 -116 -64.5 -180t-181.5 -64q-118 0 -180.5 65t-67.5 177h83q15 -170 167 -170t152 170q0 166 -142 166z" glyph-name="five" horiz-adv-x="592" unicode="5"/><glyph d="M154 326q61 118 198 118q101 0 160.5 -60.5t59.5 -165.5q0 -109 -65.5 -170.5t-181.5 -61.5q-134 0 -198.5 88t-64.5 270q0 188 65.5 279t201.5 91q104 0 165 -54t68 -168h-83q-8 83 -46.5 116.5t-103.5 33.5q-98 0 -137.5 -72.5t-39.5 -243.5h2zM170 217 q0 -72 42 -115.5t114 -43.5q71 0 112 43t41 116t-41 116t-112 43q-72 0 -114 -43.5t-42 -115.5z" glyph-name="six" horiz-adv-x="621" unicode="6"/><glyph d="M172 0q18 159 82.5 327.5t168.5 298.5v2h-404v72h504v-62q-224 -284 -259 -638h-92z" glyph-name="seven" horiz-adv-x="542" unicode="7"/><glyph d="M49 186q0 134 151 173v2q-135 41 -135 161q0 91 64.5 141.5t172.5 50.5t172.5 -50.5t64.5 -141.5q0 -120 -135 -161v-2q151 -39 151 -173q0 -95 -68.5 -147.5t-184.5 -52.5t-184.5 52.5t-68.5 147.5zM141 193q0 -64 42 -99.5t119 -35.5q76 0 118.5 35.5t42.5 99.5 q0 63 -42.5 98.5t-118.5 35.5q-77 0 -119 -35.5t-42 -98.5zM155 518q0 -60 38 -92.5t109 -32.5t109 32.5t38 92.5q0 59 -38.5 91.5t-108.5 32.5t-108.5 -32.5t-38.5 -91.5z" glyph-name="eight" horiz-adv-x="604" unicode="8"/><glyph d="M467 364q-33 -64 -81 -91t-117 -27q-102 0 -161 61.5t-59 168.5q0 111 65.5 174.5t181.5 63.5q134 0 198.5 -87.5t64.5 -269.5q0 -189 -64.5 -280t-202.5 -91q-107 0 -166 54t-67 158h83q16 -140 151 -140q96 0 136 70t40 236h-2zM451 478q0 75 -42 119.5t-114 44.5 q-71 0 -112 -44.5t-41 -119.5t41 -119.5t112 -44.5q72 0 114 44.5t42 119.5z" glyph-name="nine" horiz-adv-x="621" unicode="9"/><glyph d="M222 99h94v-99h-94v99zM504 516q0 -75 -46 -127.5t-153 -97.5l-8 -105h-56l-10 138q105 44 144 84t39 104q0 132 -129 132q-71 0 -108 -44t-43 -138h-80q8 252 233 252q103 0 160 -53t57 -145z" glyph-name="question" horiz-adv-x="557" unicode="?"/><glyph d="M245 231q0 91 47.5 163.5t132.5 72.5q75 0 109 -63h2l10 53h69l-50 -250q-15 -80 47 -80q42 0 71.5 38.5t40.5 85.5t11 95q0 109 -70.5 176.5t-194.5 67.5q-147 0 -244 -104.5t-97 -263.5q0 -126 70.5 -193t195.5 -67q49 0 116 19l-6 -50q-59 -19 -116 -19 q-151 0 -237 80.5t-86 227.5q0 82 28 157.5t79 134t129 93.5t172 35q148 0 236 -81.5t88 -215.5q0 -46 -11 -92t-33.5 -86.5t-62 -66t-89.5 -25.5q-90 0 -114 78h-3q-48 -54 -120 -54q-58 0 -89 34.5t-31 99.5zM316 236q0 -88 74 -88q43 0 73 31.5t41 70.5t11 79 q0 87 -74 87q-43 0 -73 -31.5t-41 -70t-11 -78.5z" glyph-name="at" horiz-adv-x="864" unicode="@"/><glyph d="M459 208h-287l-74 -208h-77l250 700h109l251 -700h-99zM434 279l-118 335h-2l-117 -335h237z" glyph-name="A" horiz-adv-x="650" unicode="A"/><glyph d="M380 700q224 0 224 -181q0 -127 -129 -162v-2q143 -31 143 -172q0 -183 -228 -183h-296v700h286zM373 72q81 0 115.5 32.5t34.5 93.5q0 60 -34.5 92.5t-115.5 32.5h-187v-251h187zM363 387q82 0 115 30t33 91q0 60 -33.5 90t-114.5 30h-177v-241h177z" glyph-name="B" horiz-adv-x="671" unicode="B"/><glyph d="M676 280q-9 -142 -86 -218t-208 -76q-147 0 -231.5 95.5t-84.5 268.5q0 174 84.5 269t231.5 95q130 0 208 -72.5t82 -201.5h-86q-7 97 -60.5 147.5t-141.5 50.5q-108 0 -165 -74.5t-57 -213.5t57 -213.5t165 -74.5q90 0 143.5 55.5t62.5 162.5h86z" glyph-name="C" horiz-adv-x="737" unicode="C"/><glyph d="M331 700q168 0 245.5 -86t77.5 -264t-77.5 -264t-245.5 -86h-237v700h237zM321 72q132 0 184.5 67t52.5 211t-52.5 211t-184.5 67h-135v-556h135z" glyph-name="D" horiz-adv-x="719" unicode="D"/><glyph d="M94 700h454v-72h-362v-233h342v-70h-342v-253h372v-72h-464v700z" glyph-name="E" horiz-adv-x="605" unicode="E"/><glyph d="M94 700h434v-72h-342v-254h332v-72h-332v-302h-92v700z" glyph-name="F" horiz-adv-x="561" unicode="F"/><glyph d="M590 119q-66 -133 -221 -133q-140 0 -221.5 97t-81.5 267q0 173 87 268.5t237 95.5q130 0 208.5 -70t83.5 -194h-86q-9 91 -61.5 139.5t-141.5 48.5q-111 0 -171 -75t-60 -213t59.5 -213t168.5 -75q95 0 143.5 58.5t56.5 177.5h-228v70h320v-368h-72l-18 119h-2z" glyph-name="G" horiz-adv-x="761" unicode="G"/><glyph d="M94 700h92v-307h374v307h92v-700h-92v321h-374v-321h-92v700z" glyph-name="H" horiz-adv-x="745" unicode="H"/><glyph d="M94 700h92v-700h-92v700z" glyph-name="I" horiz-adv-x="279" unicode="I"/><glyph d="M6 72q65 -10 91 -10q64 0 91.5 23t27.5 75v540h92v-552q0 -84 -48.5 -123t-151.5 -39q-46 0 -102 14v72z" glyph-name="J" horiz-adv-x="401" unicode="J"/><glyph d="M94 700h92v-309h37q39 0 62.5 9t44.5 35l219 265h95l-210 -251q-54 -64 -105 -88v-2q65 -33 121 -99l218 -260h-117l-213 260q-32 38 -52 48.5t-53 10.5h-47v-319h-92v700z" glyph-name="K" horiz-adv-x="672" unicode="K"/><glyph d="M94 700h92v-628h358v-72h-450v700z" glyph-name="L" horiz-adv-x="560" unicode="L"/><glyph d="M431 136h2l218 564h117v-700h-92v557h-2l-216 -557h-72l-218 572h-2v-572h-72v700h125z" glyph-name="M" horiz-adv-x="861" unicode="M"/><glyph d="M94 700h102l378 -577h2v577h72v-700h-102l-378 577h-2v-577h-72v700z" glyph-name="N" horiz-adv-x="741" unicode="N"/><glyph d="M66 350q0 175 85.5 269.5t241.5 94.5t241.5 -94.5t85.5 -269.5t-85.5 -269.5t-241.5 -94.5t-241.5 94.5t-85.5 269.5zM162 350q0 -288 231 -288t231 288t-231 288t-231 -288z" glyph-name="O" horiz-adv-x="786" unicode="O"/><glyph d="M600 488q0 -213 -232 -213h-182v-275h-92v700h274q122 0 177 -55t55 -157zM349 347q87 0 121 34.5t34 106.5q0 71 -34 105.5t-121 34.5h-163v-281h163z" glyph-name="P" horiz-adv-x="643" unicode="P"/><glyph d="M66 350q0 175 85 269.5t240 94.5t240 -94.5t85 -269.5q0 -162 -72 -254.5t-205 -106.5v-2q30 -63 119 -63q33 0 68 8v-70q-34 -12 -75 -12q-159 0 -200 138q-137 12 -211 105.5t-74 256.5zM162 350q0 -288 229 -288t229 288t-229 288t-229 -288z" glyph-name="Q" horiz-adv-x="782" unicode="Q"/><glyph d="M610 498q0 -70 -28.5 -112t-92.5 -64v-2q48 -15 71.5 -42.5t30.5 -81.5l13 -110q6 -48 26 -86h-96q-16 37 -22 88l-12 96q-7 57 -37.5 81.5t-95.5 24.5h-181v-290h-92v700h286q230 0 230 -202zM369 360q81 0 113 32.5t32 101.5q0 70 -32 102t-113 32h-183v-268h183z" glyph-name="R" horiz-adv-x="660" unicode="R"/><glyph d="M163 508q0 -47 29.5 -69.5t97.5 -32.5l133 -20q96 -14 141 -56.5t45 -123.5q0 -107 -70 -163.5t-197 -56.5q-132 0 -204.5 63.5t-76.5 190.5h86q12 -180 195 -180q81 0 128 37t47 106q0 49 -28.5 72t-97.5 34l-132 20q-95 14 -141.5 55.5t-46.5 119.5q0 99 71 154.5 t192 55.5q124 0 191.5 -60.5t71.5 -183.5h-86q-9 170 -177 170q-79 0 -125 -35t-46 -97z" glyph-name="S" horiz-adv-x="672" unicode="S"/><glyph d="M232 628h-229v72h550v-72h-229v-628h-92v628z" glyph-name="T" horiz-adv-x="556" unicode="T"/><glyph d="M93 700h92v-445q0 -103 47 -148t140 -45t140 45t47 148v445h72v-456q0 -258 -269 -258t-269 258v456z" glyph-name="U" horiz-adv-x="724" unicode="U"/><glyph d="M325 89h2l208 611h78l-246 -700h-104l-246 700h98z" glyph-name="V" horiz-adv-x="630" unicode="V"/><glyph d="M270 108h2l155 592h112l154 -592h2l155 592h75l-188 -700h-106l-158 586h-2l-157 -586h-106l-189 700h96z" glyph-name="W" horiz-adv-x="944" unicode="W"/><glyph d="M311 298h-2l-209 -298h-87l255 359l-245 341h110l199 -280h2l200 280h87l-247 -341l259 -359h-110z" glyph-name="X" horiz-adv-x="646" unicode="X"/><glyph d="M-7 700h108l205 -341h2l204 341h85l-256 -424v-276h-92v276z" glyph-name="Y" horiz-adv-x="590" unicode="Y"/><glyph d="M23 66l396 560v2h-386v72h504v-66l-396 -560v-2h401l-1 -72h-518v66z" glyph-name="Z" horiz-adv-x="564" unicode="Z"/><glyph d="M62 335q15 179 213 179q201 0 201 -193v-321h-74l-12 88h-2q-58 -103 -176 -103q-74 0 -118 39t-44 106q0 69 47.5 110t135.5 48l157 11v18q0 67 -28 98t-91 31q-119 0 -131 -111h-78zM256 234q-59 -4 -90.5 -29t-31.5 -68q0 -39 26.5 -61.5t73.5 -22.5q69 0 112.5 47 t43.5 118v25z" glyph-name="a" horiz-adv-x="552" unicode="a"/><glyph d="M77 710h86v-294h2q47 98 166 98q100 0 156 -68.5t56 -195.5t-56 -195.5t-156 -68.5q-119 0 -166 98h-2l-12 -84h-74v710zM163 250q0 -196 145 -196t145 196t-145 196t-145 -196z" glyph-name="b" unicode="b"/><glyph d="M505 194q-10 -102 -66.5 -155t-154.5 -53q-111 0 -175 68.5t-64 195.5t63.5 195.5t175.5 68.5q98 0 154 -51t63 -147h-80q-14 130 -135 130q-73 0 -112 -50.5t-39 -145.5t38.5 -145.5t111.5 -50.5q123 0 140 140h80z" glyph-name="c" horiz-adv-x="546" unicode="c"/><glyph d="M437 0l-12 84h-2q-47 -98 -166 -98q-100 0 -156 68.5t-56 195.5t56 195.5t156 68.5q119 0 166 -98h2v294h86v-710h-74zM425 250q0 196 -145 196t-145 -196t145 -196t145 196z" glyph-name="d" unicode="d"/><glyph d="M504 174q-9 -89 -66 -138.5t-155 -49.5q-113 0 -175.5 68t-62.5 196q0 129 61 196.5t177 67.5q114 0 171.5 -70.5t53.5 -206.5h-373q6 -183 150 -183q59 0 95 31t44 89h80zM285 446q-131 0 -148 -153h287q-12 153 -139 153z" glyph-name="e" horiz-adv-x="554" unicode="e"/><glyph d="M103 566q0 73 39 113.5t113 40.5q32 0 66 -10v-64q-25 8 -50 8q-82 0 -82 -90v-64h122v-64h-122v-436h-86v436h-84v64h84v66z" glyph-name="f" horiz-adv-x="334" unicode="f"/><glyph d="M48 339q0 85 53 130t150 45q66 0 116 -25q24 79 98 79q15 0 32 -4v-66q-16 2 -27 2q-47 0 -65 -36v-2q40 -46 40 -123q0 -85 -51.5 -130t-146.5 -45q-31 0 -60 6q-64 -8 -64 -48q0 -44 73 -44h147q80 0 126 -35.5t46 -102.5q0 -81 -65.5 -122.5t-186.5 -41.5 q-115 0 -174.5 37t-59.5 106q0 84 99 109v2q-73 21 -73 76q0 59 76 84v2q-83 45 -83 147zM129 339q0 -113 118 -113t118 113t-118 113t-118 -113zM106 -65q0 -45 42.5 -70t121.5 -25q80 0 121.5 25t41.5 70q0 77 -108 77h-110q-49 0 -79 -19t-30 -58z" glyph-name="g" horiz-adv-x="521" unicode="g"/><glyph d="M77 710h86v-292h2q57 96 175 96q86 0 131.5 -49.5t45.5 -145.5v-319h-86v309q0 137 -118 137q-68 0 -109 -43.5t-41 -113.5v-289h-86v710z" glyph-name="h" horiz-adv-x="593" unicode="h"/><glyph d="M77 500h86v-500h-86v500zM77 700h86v-113h-86v113z" glyph-name="i" horiz-adv-x="239" unicode="i"/><glyph d="M147 -91q0 -68 -30.5 -98.5t-93.5 -30.5q-34 0 -66 10v64q26 -8 47 -8q30 0 43.5 14t13.5 49v591h86v-591zM61 700h86v-113h-86v113z" glyph-name="j" horiz-adv-x="223" unicode="j"/><glyph d="M77 710h86v-410h34q33 0 56 11.5t50 44.5l124 144h86l-145 -168q-33 -41 -80 -58v-2q50 -14 78 -56l161 -216h-102l-138 191q-17 25 -34.5 35t-45.5 10h-44v-236h-86v710z" glyph-name="k" horiz-adv-x="534" unicode="k"/><glyph d="M77 710h86v-710h-86v710z" glyph-name="l" horiz-adv-x="239" unicode="l"/><glyph d="M77 500h74l12 -82h2q54 96 165 96q123 0 155 -105h2q59 105 177 105q81 0 124 -49.5t43 -145.5v-319h-86v309q0 137 -109 137q-63 0 -101 -43.5t-38 -113.5v-289h-86v309q0 137 -109 137q-63 0 -101 -43.5t-38 -113.5v-289h-86v500z" glyph-name="m" horiz-adv-x="907" unicode="m"/><glyph d="M77 500h74l12 -82h2q57 96 175 96q86 0 131.5 -49.5t45.5 -145.5v-319h-86v309q0 137 -118 137q-68 0 -109 -43.5t-41 -113.5v-289h-86v500z" glyph-name="n" horiz-adv-x="593" unicode="n"/><glyph d="M45 250q0 128 63 196t177 68q113 0 176.5 -68t63.5 -196t-63.5 -196t-176.5 -68q-114 0 -177 68t-63 196zM135 250q0 -196 150 -196t150 196t-150 196t-150 -196z" glyph-name="o" horiz-adv-x="570" unicode="o"/><glyph d="M151 500l12 -84h2q47 98 166 98q100 0 156 -68.5t56 -195.5t-56 -195.5t-156 -68.5q-119 0 -166 98h-2v-294h-86v710h74zM163 250q0 -196 145 -196t145 196t-145 196t-145 -196z" glyph-name="p" unicode="p"/><glyph d="M511 -210h-86v294h-2q-47 -98 -166 -98q-100 0 -156 68.5t-56 195.5t56 195.5t156 68.5q119 0 166 -98h2l12 84h74v-710zM425 250q0 196 -145 196t-145 -196t145 -196t145 196z" glyph-name="q" unicode="q"/><glyph d="M77 500h74l12 -104h2q59 108 192 108v-81h-20q-84 0 -129 -48t-45 -138v-237h-86v500z" glyph-name="r" horiz-adv-x="377" unicode="r"/><glyph d="M130 361q0 -32 20 -47.5t66 -20.5l95 -10q144 -18 144 -137q0 -75 -54 -117.5t-150 -42.5q-99 0 -154.5 45.5t-60.5 131.5h75q11 -113 141 -113q57 0 88 24t31 67q0 32 -19.5 49.5t-62.5 22.5l-95 11q-148 17 -148 134q0 74 53 115t147 41q93 0 143 -42.5t55 -124.5h-76 q-6 103 -122 103q-55 0 -85.5 -23.5t-30.5 -65.5z" glyph-name="s" horiz-adv-x="488" unicode="s"/><glyph d="M103 436h-84v64h84l12 142h74v-142h112v-64h-112v-308q0 -41 13.5 -56.5t46.5 -15.5q20 0 52 8v-64q-40 -10 -73 -10q-67 0 -96 30t-29 104v312z" glyph-name="t" horiz-adv-x="323" unicode="t"/><glyph d="M513 0h-74l-12 82h-2q-57 -96 -173 -96q-86 0 -130.5 49.5t-44.5 145.5v319h86v-309q0 -137 116 -137q68 0 108 43.5t40 113.5v289h86v-500z" glyph-name="u" horiz-adv-x="589" unicode="u"/><glyph d="M261 85h2l153 415h70l-187 -500h-96l-187 500h93z" glyph-name="v" horiz-adv-x="501" unicode="v"/><glyph d="M223 94h2l124 406h94l123 -406h2l114 406h68l-143 -500h-99l-123 391h-2l-123 -391h-99l-143 500h91z" glyph-name="w" horiz-adv-x="767" unicode="w"/><glyph d="M241 202h-2l-141 -202h-78l180 257l-170 243h100l128 -184h2l133 184h78l-174 -237l183 -263h-100z" glyph-name="x" horiz-adv-x="501" unicode="x"/><glyph d="M259 95h2l148 405h70l-213 -576q-29 -80 -65.5 -112t-98.5 -32q-29 0 -66 10v66q29 -8 52 -8q35 0 56 18.5t42 75.5l21 58l-191 500h94z" glyph-name="y" horiz-adv-x="495" unicode="y"/><glyph d="M45 500h394v-58l-285 -376v-2h293v-64h-406v58l286 376v2h-282v64z" glyph-name="z" horiz-adv-x="488" unicode="z"/></font>
</defs>
</svg>
